<?xml version='1.0' encoding='UTF-8' standalone='no'?>
<!-- Created with Fritzing (http://www.fritzing.org/) -->
<svg xmlns="http://www.w3.org/2000/svg" width="3.11722in" x="0in" version="1.2" y="0in"  height="2.07524in" viewBox="0 0 224.44 149.417" baseProfile="tiny" xmlns:svg="http://www.w3.org/2000/svg">
 <g  id="watermark">
  <g >
   <path fill="#8C8C8C"  d="M116.623,147.089L114.698,141.525L114.663,141.525c0.017,0.214,0.032,0.427,0.044,0.64c0.012,0.183,0.021,0.375,0.028,0.574c0.007,0.203,0.011,0.385,0.011,0.551l0,3.8L113.998,147.09L113.998,140.734l1.199,0l1.791,5.181l0.025,0l1.8,-5.181L120.013,140.734l0,6.354L119.204,147.088l0,-3.854c0,-0.15,0.003,-0.324,0.009,-0.518s0.013,-0.38,0.021,-0.557c0.012,-0.207,0.021,-0.416,0.029,-0.625L119.231,141.534L117.287,147.089L116.623,147.089z"/>
   <path fill="#8C8C8C"  d="M124.323,147.089l-0.16,-0.661l-0.035,0c-0.095,0.131,-0.19,0.243,-0.286,0.338c-0.095,0.095,-0.2,0.172,-0.313,0.231c-0.113,0.062,-0.239,0.106,-0.378,0.136c-0.141,0.028,-0.3,0.042,-0.482,0.042c-0.2,0,-0.384,-0.026,-0.552,-0.084c-0.168,-0.057,-0.314,-0.144,-0.438,-0.261c-0.122,-0.116,-0.219,-0.265,-0.288,-0.443S121.287,145.999,121.287,145.754c0,-0.475,0.167,-0.841,0.501,-1.095c0.335,-0.256,0.845,-0.394,1.528,-0.418l0.799,-0.029l0,-0.301c0,-0.193,-0.021,-0.356,-0.063,-0.486s-0.103,-0.234,-0.183,-0.314s-0.178,-0.138,-0.295,-0.172c-0.117,-0.035,-0.251,-0.052,-0.402,-0.052c-0.241,0,-0.464,0.034,-0.671,0.104c-0.207,0.068,-0.407,0.152,-0.597,0.25L121.625,142.648c0.214,-0.117,0.453,-0.217,0.717,-0.298c0.264,-0.079,0.54,-0.12,0.83,-0.12c0.296,0,0.551,0.029,0.768,0.09c0.216,0.059,0.395,0.151,0.534,0.28c0.141,0.13,0.247,0.294,0.316,0.494c0.07,0.199,0.104,0.44,0.104,0.726l0,3.269L124.323,147.089L124.323,147.089zM122.872,146.538c0.178,0,0.341,-0.028,0.491,-0.084c0.149,-0.055,0.282,-0.138,0.391,-0.249c0.11,-0.111,0.196,-0.252,0.258,-0.422c0.063,-0.17,0.094,-0.369,0.094,-0.599l0,-0.43l-0.621,0.03c-0.262,0.012,-0.48,0.041,-0.656,0.086c-0.175,0.047,-0.317,0.113,-0.423,0.193c-0.105,0.084,-0.183,0.185,-0.229,0.301c-0.046,0.117,-0.068,0.25,-0.068,0.398c0,0.268,0.069,0.462,0.211,0.586C122.459,146.475,122.643,146.538,122.872,146.538z"/>
   <path fill="#8C8C8C"  d="M129.305,146.45l-0.034,0c-0.063,0.099,-0.139,0.191,-0.224,0.281c-0.085,0.088,-0.184,0.165,-0.296,0.231c-0.111,0.066,-0.237,0.118,-0.376,0.156c-0.139,0.037,-0.295,0.056,-0.47,0.056c-0.271,0,-0.517,-0.051,-0.738,-0.154c-0.223,-0.105,-0.416,-0.262,-0.575,-0.469s-0.282,-0.464,-0.369,-0.771c-0.087,-0.309,-0.13,-0.664,-0.13,-1.069c0,-0.408,0.043,-0.767,0.13,-1.076c0.086,-0.31,0.209,-0.567,0.369,-0.774c0.159,-0.209,0.352,-0.367,0.575,-0.473c0.222,-0.105,0.469,-0.158,0.738,-0.158c0.171,0,0.327,0.02,0.466,0.057s0.264,0.088,0.376,0.152c0.112,0.063,0.211,0.137,0.297,0.221s0.163,0.172,0.227,0.266l0.052,0c-0.009,-0.1,-0.018,-0.191,-0.026,-0.283c-0.006,-0.074,-0.012,-0.152,-0.018,-0.232c-0.005,-0.078,-0.009,-0.143,-0.009,-0.188L129.27,140.326l0.792,0l0,6.763l-0.641,0L129.305,146.45zM128.057,146.521c0.221,0,0.407,-0.033,0.56,-0.102c0.151,-0.065,0.274,-0.168,0.37,-0.304c0.094,-0.136,0.163,-0.308,0.209,-0.512c0.044,-0.204,0.069,-0.442,0.076,-0.716l0,-0.177c0,-0.292,-0.02,-0.552,-0.059,-0.78c-0.04,-0.229,-0.105,-0.418,-0.2,-0.574c-0.094,-0.154,-0.219,-0.271,-0.376,-0.351c-0.156,-0.08,-0.352,-0.119,-0.586,-0.119c-0.391,0,-0.679,0.157,-0.861,0.474c-0.185,0.315,-0.277,0.771,-0.277,1.359c0,0.605,0.092,1.058,0.277,1.354C127.37,146.371,127.66,146.521,128.057,146.521z"/>
   <path fill="#8C8C8C"  d="M133.459,147.175c-0.318,0,-0.609,-0.053,-0.874,-0.16c-0.263,-0.106,-0.49,-0.264,-0.68,-0.469c-0.19,-0.207,-0.338,-0.461,-0.442,-0.766c-0.104,-0.306,-0.156,-0.651,-0.156,-1.045s0.049,-0.744,0.144,-1.055c0.096,-0.311,0.229,-0.574,0.405,-0.789c0.174,-0.216,0.382,-0.381,0.623,-0.492c0.241,-0.113,0.51,-0.17,0.802,-0.17c0.287,0,0.545,0.051,0.772,0.153c0.229,0.104,0.423,0.248,0.583,0.435c0.159,0.188,0.282,0.412,0.367,0.674c0.087,0.263,0.13,0.554,0.13,0.873l0,0.49l-3.008,0c0.015,0.559,0.133,0.971,0.354,1.234c0.222,0.263,0.551,0.396,0.987,0.396c0.149,0,0.285,-0.008,0.411,-0.021s0.248,-0.035,0.365,-0.063c0.118,-0.026,0.23,-0.063,0.342,-0.104s0.222,-0.089,0.334,-0.142l0,0.704c-0.116,0.055,-0.229,0.104,-0.341,0.144c-0.112,0.041,-0.226,0.074,-0.343,0.102c-0.117,0.024,-0.239,0.045,-0.365,0.056S133.608,147.175,133.459,147.175zM133.264,142.887c-0.331,0,-0.592,0.112,-0.783,0.339c-0.193,0.227,-0.307,0.555,-0.338,0.985l2.14,0c0,-0.196,-0.021,-0.378,-0.06,-0.541c-0.039,-0.164,-0.1,-0.304,-0.183,-0.419s-0.187,-0.205,-0.315,-0.27C133.597,142.917,133.444,142.887,133.264,142.887z"/>
   <path fill="#8C8C8C"  d="M142.273,147.089l-0.729,-2.678c-0.012,-0.053,-0.026,-0.111,-0.044,-0.176c-0.017,-0.065,-0.034,-0.136,-0.051,-0.207c-0.019,-0.072,-0.036,-0.146,-0.055,-0.223c-0.02,-0.074,-0.037,-0.148,-0.055,-0.222c-0.041,-0.169,-0.083,-0.341,-0.126,-0.521l-0.024,0c-0.041,0.182,-0.08,0.356,-0.117,0.524c-0.032,0.146,-0.066,0.294,-0.104,0.448c-0.037,0.152,-0.069,0.283,-0.103,0.391l-0.75,2.66l-0.917,0l-1.221,-4.771l0.83,0l0.57,2.539c0.029,0.129,0.059,0.27,0.086,0.423c0.028,0.151,0.057,0.303,0.082,0.452c0.026,0.148,0.05,0.288,0.07,0.421c0.02,0.132,0.037,0.238,0.049,0.322l0.025,0c0.015,-0.074,0.034,-0.177,0.059,-0.302c0.025,-0.126,0.052,-0.26,0.083,-0.399c0.031,-0.141,0.063,-0.28,0.093,-0.417c0.032,-0.139,0.063,-0.254,0.091,-0.351l0.778,-2.69l0.853,0l0.748,2.69c0.025,0.098,0.056,0.215,0.089,0.348c0.033,0.135,0.065,0.27,0.098,0.407c0.032,0.139,0.061,0.271,0.087,0.397c0.025,0.127,0.045,0.231,0.056,0.315l0.026,0c0.01,-0.074,0.022,-0.177,0.042,-0.302c0.02,-0.126,0.042,-0.265,0.067,-0.415c0.025,-0.149,0.054,-0.306,0.084,-0.464c0.03,-0.157,0.062,-0.306,0.094,-0.44L143.633,142.316l0.809,0l-1.234,4.771L142.273,147.087L142.273,147.089z"/>
   <path fill="#8C8C8C"  d="M145.228,141.026c0,-0.175,0.045,-0.3,0.133,-0.379c0.088,-0.078,0.197,-0.117,0.328,-0.117c0.063,0,0.123,0.011,0.181,0.028c0.056,0.019,0.104,0.049,0.147,0.089c0.042,0.041,0.075,0.092,0.101,0.154c0.023,0.063,0.037,0.137,0.037,0.224c0,0.168,-0.045,0.293,-0.138,0.376c-0.092,0.083,-0.2,0.123,-0.327,0.123c-0.131,0,-0.24,-0.04,-0.328,-0.12C145.274,141.323,145.228,141.196,145.228,141.026zM146.08,147.089l-0.791,0L145.289,142.316l0.791,0L146.08,147.089z"/>
   <path fill="#8C8C8C"  d="M149.036,146.528c0.052,0,0.111,-0.003,0.176,-0.01c0.066,-0.006,0.128,-0.013,0.189,-0.021c0.061,-0.009,0.116,-0.019,0.167,-0.031c0.051,-0.011,0.089,-0.021,0.115,-0.028l0,0.6c-0.037,0.017,-0.085,0.035,-0.144,0.052c-0.059,0.018,-0.122,0.033,-0.191,0.046c-0.068,0.015,-0.142,0.022,-0.217,0.03s-0.148,0.011,-0.221,0.011c-0.18,0,-0.347,-0.021,-0.5,-0.068c-0.153,-0.048,-0.286,-0.126,-0.397,-0.239c-0.111,-0.112,-0.198,-0.267,-0.263,-0.458c-0.063,-0.192,-0.095,-0.437,-0.095,-0.729L147.655,142.912l-0.674,0L146.981,142.56l0.673,-0.339l0.339,-0.999l0.456,0l0,1.096l1.199,0l0,0.596l-1.199,0l0,2.769c0,0.281,0.045,0.492,0.137,0.636C148.678,146.457,148.827,146.528,149.036,146.528z"/>
   <path fill="#8C8C8C"  d="M153.591,147.089l0,-3.073c0,-0.377,-0.076,-0.659,-0.228,-0.848c-0.152,-0.188,-0.391,-0.282,-0.715,-0.282c-0.234,0,-0.433,0.037,-0.592,0.111c-0.158,0.076,-0.286,0.188,-0.384,0.336c-0.097,0.148,-0.166,0.328,-0.208,0.544c-0.042,0.214,-0.063,0.461,-0.063,0.739l0,2.473l-0.791,0L150.61,140.326l0.791,0l0,2.008l-0.034,0.626l0.044,0c0.072,-0.124,0.158,-0.232,0.258,-0.323s0.209,-0.167,0.328,-0.229c0.118,-0.061,0.245,-0.104,0.378,-0.135c0.133,-0.027,0.27,-0.043,0.408,-0.043c0.531,0,0.93,0.139,1.198,0.416c0.268,0.275,0.401,0.719,0.401,1.326l0,3.117L153.591,147.089L153.591,147.089z"/>
  </g>
  <g >
   <path fill="#8C8C8C"  d="M175.351,147.073l-1.324,0L174.027,140.719l3.642,0l0,1.104l-2.316,0l0,1.639l2.156,0l0,1.1l-2.156,0L175.351,147.073L175.351,147.073z"/>
   <path fill="#8C8C8C"  d="M181.384,142.123c0.035,0,0.074,0.002,0.116,0.002c0.042,0.002,0.083,0.006,0.12,0.01c0.041,0.005,0.076,0.009,0.11,0.014c0.031,0.004,0.059,0.01,0.075,0.016l0,1.244c-0.022,-0.008,-0.056,-0.012,-0.095,-0.018c-0.04,-0.007,-0.083,-0.012,-0.128,-0.018c-0.045,-0.004,-0.09,-0.006,-0.133,-0.008c-0.044,-0.002,-0.08,-0.002,-0.108,-0.002c-0.171,0,-0.328,0.021,-0.472,0.064c-0.146,0.043,-0.269,0.113,-0.37,0.211s-0.183,0.225,-0.239,0.383c-0.057,0.157,-0.084,0.352,-0.084,0.581l0,2.474l-1.326,0L178.85,142.214l1.005,0l0.194,0.73l0.066,0c0.068,-0.125,0.145,-0.238,0.226,-0.34c0.081,-0.103,0.172,-0.189,0.272,-0.259c0.1,-0.071,0.212,-0.126,0.338,-0.165C181.077,142.143,181.223,142.123,181.384,142.123z"/>
   <path fill="#8C8C8C"  d="M182.702,140.958c0,-0.125,0.018,-0.228,0.056,-0.311c0.038,-0.084,0.089,-0.15,0.154,-0.2c0.065,-0.051,0.142,-0.086,0.229,-0.106c0.088,-0.02,0.184,-0.03,0.281,-0.03c0.099,0,0.191,0.01,0.277,0.03c0.088,0.02,0.164,0.055,0.229,0.106c0.066,0.05,0.117,0.116,0.156,0.2c0.04,0.083,0.059,0.186,0.059,0.311c0,0.122,-0.019,0.225,-0.059,0.309c-0.039,0.084,-0.09,0.151,-0.156,0.203c-0.063,0.05,-0.142,0.086,-0.229,0.108c-0.086,0.021,-0.18,0.032,-0.277,0.032c-0.099,0,-0.191,-0.012,-0.281,-0.032c-0.088,-0.021,-0.164,-0.059,-0.229,-0.108c-0.065,-0.051,-0.116,-0.119,-0.154,-0.203C182.721,141.183,182.702,141.08,182.702,140.958zM184.084,147.073l-1.325,0L182.759,142.214l1.325,0L184.084,147.073z"/>
   <path fill="#8C8C8C"  d="M187.493,146.104c0.13,0,0.254,-0.016,0.371,-0.045c0.117,-0.027,0.235,-0.064,0.357,-0.107l0,0.986c-0.124,0.063,-0.278,0.116,-0.463,0.157c-0.184,0.042,-0.385,0.063,-0.603,0.063c-0.211,0,-0.408,-0.024,-0.59,-0.073c-0.185,-0.05,-0.342,-0.137,-0.476,-0.259c-0.133,-0.123,-0.237,-0.288,-0.313,-0.495c-0.077,-0.208,-0.114,-0.468,-0.114,-0.781L185.662,143.209l-0.636,0L185.026,142.648l0.729,-0.443l0.383,-1.024l0.848,0l0,1.034l1.184,0l0,0.995l-1.184,0l0,2.343c0,0.188,0.048,0.327,0.141,0.417C187.22,146.059,187.342,146.104,187.493,146.104z"/>
   <path fill="#8C8C8C"  d="M192.366,147.073L188.793,147.073l0,-0.781l1.985,-3.064l-1.853,0L188.925,142.214l3.355,0l0,0.859l-1.92,2.985l2.004,0L192.366,147.073L192.366,147.073z"/>
   <path fill="#8C8C8C"  d="M193.305,140.958c0,-0.125,0.02,-0.228,0.057,-0.311c0.038,-0.084,0.09,-0.15,0.153,-0.2c0.065,-0.051,0.144,-0.086,0.23,-0.106s0.182,-0.03,0.28,-0.03c0.098,0,0.19,0.01,0.277,0.03c0.088,0.02,0.164,0.055,0.229,0.106c0.064,0.05,0.117,0.116,0.156,0.2c0.038,0.083,0.059,0.186,0.059,0.311c0,0.122,-0.021,0.225,-0.059,0.309c-0.039,0.084,-0.092,0.151,-0.156,0.203c-0.064,0.05,-0.143,0.086,-0.229,0.108c-0.086,0.021,-0.18,0.032,-0.277,0.032c-0.099,0,-0.192,-0.012,-0.28,-0.032c-0.088,-0.021,-0.165,-0.059,-0.23,-0.108c-0.063,-0.051,-0.115,-0.119,-0.153,-0.203C193.324,141.183,193.305,141.08,193.305,140.958zM194.687,147.073L193.363,147.073L193.363,142.214l1.324,0L194.687,147.073z"/>
   <path fill="#8C8C8C"  d="M200.337,147.073L199.013,147.073l0,-2.839c0,-0.351,-0.053,-0.613,-0.158,-0.787c-0.105,-0.176,-0.274,-0.265,-0.508,-0.265c-0.173,0,-0.317,0.035,-0.434,0.104c-0.116,0.07,-0.209,0.173,-0.276,0.31c-0.066,0.136,-0.115,0.304,-0.146,0.504c-0.029,0.2,-0.043,0.429,-0.043,0.687l0,2.286L196.123,147.073L196.123,142.214l1.012,0l0.181,0.621l0.073,0c0.069,-0.124,0.153,-0.23,0.253,-0.321c0.102,-0.089,0.21,-0.163,0.328,-0.221s0.245,-0.103,0.378,-0.128c0.136,-0.028,0.271,-0.043,0.409,-0.043c0.237,0,0.454,0.033,0.647,0.104c0.194,0.067,0.36,0.174,0.5,0.318c0.141,0.146,0.247,0.328,0.321,0.555c0.075,0.225,0.113,0.492,0.113,0.807l0,3.168L200.337,147.073L200.337,147.073z"/>
   <path fill="#8C8C8C"  d="M205.767,142.223l0,0.722l-0.708,0.221c0.059,0.1,0.1,0.201,0.122,0.308c0.021,0.106,0.033,0.22,0.033,0.343c0,0.246,-0.039,0.471,-0.116,0.676c-0.078,0.203,-0.193,0.379,-0.349,0.522c-0.152,0.146,-0.346,0.258,-0.578,0.337c-0.23,0.08,-0.5,0.119,-0.808,0.119c-0.067,0,-0.141,-0.003,-0.218,-0.012c-0.078,-0.007,-0.137,-0.015,-0.175,-0.021c-0.057,0.049,-0.104,0.101,-0.137,0.152c-0.033,0.054,-0.049,0.117,-0.049,0.193c0,0.061,0.018,0.108,0.056,0.146s0.087,0.065,0.147,0.087c0.06,0.022,0.133,0.036,0.214,0.044s0.165,0.012,0.251,0.012l0.756,0c0.236,0,0.446,0.025,0.631,0.081c0.186,0.055,0.342,0.135,0.472,0.246c0.129,0.109,0.229,0.249,0.299,0.419c0.069,0.169,0.104,0.372,0.104,0.605c0,0.275,-0.054,0.523,-0.164,0.745c-0.109,0.224,-0.274,0.41,-0.494,0.565c-0.219,0.154,-0.488,0.273,-0.813,0.355c-0.324,0.082,-0.699,0.123,-1.126,0.123c-0.329,0,-0.618,-0.031,-0.864,-0.094c-0.247,-0.063,-0.451,-0.15,-0.617,-0.27c-0.165,-0.116,-0.288,-0.258,-0.371,-0.424c-0.084,-0.164,-0.125,-0.353,-0.125,-0.561c0,-0.177,0.031,-0.33,0.093,-0.46c0.061,-0.131,0.143,-0.243,0.243,-0.336c0.102,-0.093,0.218,-0.168,0.347,-0.227c0.129,-0.058,0.262,-0.103,0.396,-0.134c-0.061,-0.026,-0.12,-0.063,-0.181,-0.109c-0.059,-0.047,-0.113,-0.1,-0.161,-0.159c-0.047,-0.063,-0.086,-0.129,-0.116,-0.203c-0.031,-0.072,-0.047,-0.15,-0.047,-0.23c0,-0.093,0.015,-0.178,0.04,-0.252c0.029,-0.076,0.068,-0.146,0.12,-0.212c0.052,-0.064,0.117,-0.126,0.196,-0.184c0.078,-0.06,0.166,-0.117,0.264,-0.18c-0.254,-0.11,-0.456,-0.287,-0.604,-0.53c-0.15,-0.244,-0.225,-0.529,-0.225,-0.859c0,-0.26,0.04,-0.494,0.121,-0.699c0.081,-0.207,0.2,-0.381,0.356,-0.523c0.155,-0.144,0.35,-0.252,0.582,-0.328c0.231,-0.076,0.499,-0.113,0.801,-0.113c0.057,0,0.122,0.004,0.194,0.012s0.145,0.018,0.216,0.025c0.07,0.01,0.137,0.021,0.196,0.033c0.061,0.01,0.109,0.021,0.146,0.029L205.767,142.223L205.767,142.223zM202.29,147.76c0,0.073,0.017,0.145,0.047,0.211c0.03,0.068,0.08,0.129,0.15,0.182c0.068,0.052,0.16,0.094,0.272,0.124c0.113,0.03,0.252,0.046,0.417,0.046c0.452,0,0.792,-0.063,1.021,-0.191c0.229,-0.127,0.343,-0.298,0.343,-0.514c0,-0.183,-0.07,-0.304,-0.213,-0.364c-0.143,-0.06,-0.361,-0.091,-0.66,-0.091l-0.613,0c-0.077,0,-0.162,0.009,-0.252,0.027c-0.09,0.018,-0.172,0.052,-0.248,0.099c-0.075,0.046,-0.139,0.108,-0.188,0.184S202.29,147.645,202.29,147.76zM202.769,143.805c0,0.263,0.049,0.468,0.147,0.612c0.098,0.146,0.248,0.217,0.447,0.217c0.209,0,0.358,-0.07,0.451,-0.217c0.094,-0.145,0.14,-0.35,0.14,-0.612c0,-0.261,-0.046,-0.468,-0.137,-0.622c-0.092,-0.152,-0.243,-0.229,-0.454,-0.229C202.966,142.953,202.769,143.236,202.769,143.805z"/>
   <path fill="#8C8C8C"  d="M206.517,146.452c0,-0.136,0.02,-0.251,0.059,-0.346c0.04,-0.095,0.094,-0.172,0.163,-0.229c0.069,-0.058,0.149,-0.101,0.244,-0.126c0.092,-0.026,0.191,-0.039,0.299,-0.039c0.102,0,0.198,0.013,0.289,0.039c0.092,0.025,0.172,0.068,0.242,0.126c0.068,0.057,0.123,0.134,0.163,0.229c0.041,0.095,0.062,0.21,0.062,0.346c0,0.13,-0.021,0.242,-0.062,0.335c-0.04,0.093,-0.095,0.17,-0.163,0.229c-0.07,0.062,-0.15,0.104,-0.242,0.133c-0.091,0.027,-0.188,0.042,-0.289,0.042c-0.106,0,-0.207,-0.015,-0.299,-0.042c-0.095,-0.027,-0.175,-0.071,-0.244,-0.133c-0.069,-0.061,-0.123,-0.138,-0.163,-0.229C206.535,146.694,206.517,146.582,206.517,146.452z"/>
   <path fill="#8C8C8C"  d="M213.476,144.634c0,0.406,-0.052,0.767,-0.153,1.079c-0.104,0.313,-0.251,0.576,-0.443,0.79c-0.192,0.215,-0.428,0.378,-0.704,0.489c-0.277,0.111,-0.587,0.167,-0.933,0.167c-0.321,0,-0.617,-0.056,-0.886,-0.167c-0.271,-0.112,-0.503,-0.274,-0.698,-0.489c-0.195,-0.214,-0.35,-0.479,-0.458,-0.79c-0.11,-0.313,-0.165,-0.673,-0.165,-1.079c0,-0.402,0.051,-0.76,0.154,-1.072c0.103,-0.314,0.25,-0.576,0.442,-0.789C209.824,142.559,210.058,142.398,210.333,142.289s0.587,-0.164,0.937,-0.164c0.319,0,0.615,0.055,0.886,0.164c0.27,0.111,0.502,0.271,0.695,0.484c0.197,0.213,0.351,0.477,0.459,0.789C213.42,143.874,213.476,144.232,213.476,144.634zM210.39,144.634c0,0.484,0.068,0.851,0.205,1.093c0.137,0.246,0.357,0.368,0.664,0.368c0.306,0,0.524,-0.123,0.66,-0.37c0.137,-0.245,0.205,-0.608,0.205,-1.091s-0.068,-0.846,-0.205,-1.084c-0.136,-0.238,-0.358,-0.357,-0.668,-0.357c-0.305,0,-0.523,0.119,-0.659,0.357C210.457,143.789,210.39,144.152,210.39,144.634z"/>
   <path fill="#8C8C8C"  d="M217.196,142.123c0.035,0,0.073,0.002,0.115,0.002c0.042,0.002,0.083,0.006,0.12,0.01c0.04,0.005,0.076,0.009,0.109,0.014c0.033,0.004,0.059,0.01,0.076,0.016l0,1.244c-0.023,-0.008,-0.055,-0.012,-0.095,-0.018c-0.041,-0.007,-0.083,-0.012,-0.13,-0.018c-0.045,-0.004,-0.089,-0.006,-0.132,-0.008c-0.045,-0.002,-0.08,-0.002,-0.108,-0.002c-0.171,0,-0.328,0.021,-0.473,0.064c-0.144,0.043,-0.267,0.113,-0.37,0.211c-0.102,0.098,-0.182,0.225,-0.237,0.383c-0.058,0.157,-0.084,0.352,-0.084,0.581l0,2.474l-1.326,0L214.661,142.214l1.004,0l0.195,0.73l0.065,0c0.068,-0.125,0.146,-0.238,0.226,-0.34c0.081,-0.103,0.172,-0.189,0.271,-0.259c0.101,-0.071,0.213,-0.126,0.339,-0.165C216.89,142.143,217.034,142.123,217.196,142.123z"/>
   <path fill="#8C8C8C"  d="M222.504,142.223l0,0.722l-0.708,0.221c0.058,0.1,0.099,0.201,0.121,0.308s0.034,0.22,0.034,0.343c0,0.246,-0.039,0.471,-0.116,0.676c-0.079,0.203,-0.194,0.379,-0.349,0.522c-0.153,0.146,-0.348,0.258,-0.578,0.337c-0.232,0.08,-0.501,0.119,-0.809,0.119c-0.067,0,-0.141,-0.003,-0.219,-0.012c-0.078,-0.007,-0.135,-0.015,-0.173,-0.021c-0.058,0.049,-0.104,0.101,-0.137,0.152c-0.034,0.054,-0.05,0.117,-0.05,0.193c0,0.061,0.019,0.108,0.057,0.146c0.037,0.037,0.086,0.065,0.146,0.087c0.062,0.021,0.133,0.036,0.215,0.044c0.08,0.008,0.164,0.012,0.251,0.012l0.756,0c0.234,0,0.445,0.025,0.63,0.081c0.186,0.055,0.343,0.135,0.472,0.246c0.129,0.109,0.229,0.249,0.298,0.419c0.07,0.169,0.104,0.372,0.104,0.605c0,0.275,-0.054,0.523,-0.165,0.745c-0.109,0.224,-0.275,0.41,-0.493,0.565c-0.219,0.154,-0.489,0.273,-0.815,0.355c-0.323,0.082,-0.698,0.123,-1.125,0.123c-0.329,0,-0.617,-0.031,-0.864,-0.094c-0.246,-0.063,-0.451,-0.15,-0.617,-0.27c-0.164,-0.116,-0.287,-0.258,-0.371,-0.424c-0.083,-0.164,-0.124,-0.353,-0.124,-0.561c0,-0.177,0.03,-0.33,0.091,-0.46c0.063,-0.131,0.144,-0.243,0.244,-0.336c0.103,-0.093,0.217,-0.168,0.346,-0.227c0.129,-0.058,0.263,-0.103,0.398,-0.134c-0.062,-0.026,-0.121,-0.063,-0.182,-0.109c-0.06,-0.047,-0.113,-0.1,-0.16,-0.159c-0.047,-0.063,-0.087,-0.129,-0.117,-0.203c-0.03,-0.073,-0.045,-0.151,-0.045,-0.231c0,-0.093,0.014,-0.178,0.04,-0.252c0.027,-0.076,0.067,-0.146,0.12,-0.212c0.051,-0.064,0.117,-0.126,0.194,-0.184c0.078,-0.06,0.166,-0.117,0.266,-0.18c-0.255,-0.109,-0.456,-0.287,-0.606,-0.529c-0.148,-0.244,-0.223,-0.531,-0.223,-0.861c0,-0.26,0.039,-0.493,0.121,-0.698c0.081,-0.207,0.199,-0.382,0.354,-0.524c0.156,-0.143,0.351,-0.252,0.583,-0.328c0.231,-0.074,0.499,-0.111,0.8,-0.111c0.059,0,0.123,0.003,0.195,0.011s0.146,0.017,0.215,0.026c0.072,0.009,0.138,0.021,0.198,0.031c0.062,0.012,0.108,0.021,0.145,0.03L222.504,142.222L222.504,142.223zM219.028,147.76c0,0.073,0.017,0.145,0.046,0.211c0.031,0.068,0.081,0.129,0.149,0.182c0.07,0.052,0.161,0.094,0.273,0.124c0.114,0.03,0.252,0.046,0.418,0.046c0.451,0,0.792,-0.063,1.021,-0.191c0.229,-0.127,0.343,-0.298,0.343,-0.514c0,-0.183,-0.071,-0.304,-0.214,-0.364s-0.361,-0.091,-0.66,-0.091l-0.612,0c-0.079,0,-0.163,0.009,-0.252,0.027c-0.09,0.019,-0.173,0.052,-0.248,0.099c-0.076,0.046,-0.139,0.108,-0.188,0.184C219.054,147.547,219.028,147.645,219.028,147.76zM219.505,143.805c0,0.263,0.049,0.468,0.148,0.612c0.099,0.146,0.248,0.217,0.447,0.217c0.209,0,0.358,-0.07,0.451,-0.217c0.094,-0.145,0.141,-0.35,0.141,-0.612c0,-0.261,-0.046,-0.468,-0.138,-0.622c-0.092,-0.152,-0.243,-0.229,-0.454,-0.229C219.703,142.953,219.505,143.236,219.505,143.805z"/>
  </g>
  <g >
   <path fill="#8C8C8C"  d="M168.098,139.343l-8.146,0c-0.532,0,-0.965,0.432,-0.965,0.964l0,8.146c0,0.531,0.433,0.964,0.965,0.964l5.55,0l3.557,-3.558L169.059,140.307C169.062,139.774,168.63,139.343,168.098,139.343zM166.421,143.072l-1.075,0l0,0.401l1.075,0l0,1.601l-2.196,0l0,2.058l-2.572,0l0,-4.67l0.988,-0.99l3.779,0l0,1.603l0.001,0L166.421,143.072z"/>
  </g>
 </g>
 <g partID="2240">
  <g transform="translate(0,4.248)">
   <g id="board">
    <rect width="220.526" x="0.576" y="0.576" fill="#338040" height="126.983" stroke="#338040" fill-opacity="0.5" id="boardoutline" stroke-width="0.576"/>
   </g>
  </g>
 </g>
 <g partID="489290">
  <g transform="translate(120.978,18)">
   <g transform="matrix(0,-1,1,0,0,0)">
    <g  id="copper0">
     <circle fill="none" cx="5.04"  cy="5.04" stroke="rgb(255, 191, 0)" id="connector0pin" r="2.088" stroke-width="1.44"/>
     <circle fill="none" cx="5.04"  cy="12.24" stroke="rgb(255, 191, 0)" id="connector1pin" r="2.088" stroke-width="1.44"/>
     <circle fill="none" cx="5.04"  cy="19.44" stroke="rgb(255, 191, 0)" id="connector2pin" r="2.088" stroke-width="1.44"/>
     <circle fill="none" cx="5.04"  cy="26.64" stroke="rgb(255, 191, 0)" id="connector3pin" r="2.088" stroke-width="1.44"/>
     <circle fill="none" cx="5.04"  cy="33.84" stroke="rgb(255, 191, 0)" id="connector4pin" r="2.088" stroke-width="1.44"/>
     <circle fill="none" cx="5.04"  cy="41.04" stroke="rgb(255, 191, 0)" id="connector5pin" r="2.088" stroke-width="1.44"/>
     <circle fill="none" cx="5.04"  cy="48.24" stroke="rgb(255, 191, 0)" id="connector6pin" r="2.088" stroke-width="1.44"/>
     <circle fill="none" cx="5.04"  cy="55.44" stroke="rgb(255, 191, 0)" id="connector7pin" r="2.088" stroke-width="1.44"/>
     <circle fill="none" cx="5.04"  cy="62.64" stroke="rgb(255, 191, 0)" id="connector8pin" r="2.088" stroke-width="1.44"/>
    </g>
   </g>
  </g>
 </g>
 <g partID="489270">
  <g transform="translate(113.641,22.44)">
   <g  id="copper0">
    <circle fill="none" cx="5.04"  cy="5.04" stroke="rgb(255, 191, 0)" id="connector0pin" r="2.088" stroke-width="1.44"/>
    <circle fill="none" cx="5.04"  cy="12.24" stroke="rgb(255, 191, 0)" id="connector1pin" r="2.088" stroke-width="1.44"/>
    <circle fill="none" cx="5.04"  cy="19.44" stroke="rgb(255, 191, 0)" id="connector2pin" r="2.088" stroke-width="1.44"/>
   </g>
  </g>
 </g>
 <g partID="480420">
  <g transform="translate(32.4184,69.12)">
   <g transform="matrix(0,1,-1,0,0,0)">
    <g  id="copper0">
     <rect width="4.464" x="6.408" y="12.168" fill="none"  height="4.464" stroke="rgb(255, 191, 0)" stroke-width="1.44"/>
     <circle fill="none" cx="8.64"  cy="14.4" stroke="rgb(255, 191, 0)" id="connector0pad" r="2.232" stroke-width="1.44"/>
     <circle fill="none" cx="15.84"  cy="14.4" stroke="rgb(255, 191, 0)" id="connector1pad" r="2.232" stroke-width="1.44"/>
     <circle fill="none" cx="23.04"  cy="14.4" stroke="rgb(255, 191, 0)" id="connector2pad" r="2.232" stroke-width="1.44"/>
    </g>
   </g>
  </g>
 </g>
 <g partID="489180">
  <g transform="translate(29.7184,96.66)">
   <g  id="copper0">
    <g  id="copper1">
     <rect width="3.96" x="0.72" y="0.72" fill="none"  height="3.96" stroke="rgb(255, 191, 0)" stroke-width="1.44"/>
     <circle fill="none" cx="2.7"  cy="2.7" stroke="rgb(255, 191, 0)" r="1.98" id="connector0pin" stroke-width="1.44"/>
     <circle fill="none" cx="24.3"  cy="2.7" stroke="rgb(255, 191, 0)" r="1.98" id="connector1pin" stroke-width="1.44"/>
    </g>
   </g>
  </g>
 </g>
 <g partID="489250">
  <g transform="translate(29.7184,103.86)">
   <g  id="copper0">
    <g  id="copper1">
     <rect width="3.96" x="0.72" y="0.72" fill="none"  height="3.96" stroke="rgb(255, 191, 0)" stroke-width="1.44"/>
     <circle fill="none" cx="2.7"  cy="2.7" stroke="rgb(255, 191, 0)" r="1.98" id="connector0pin" stroke-width="1.44"/>
     <circle fill="none" cx="24.3"  cy="2.7" stroke="rgb(255, 191, 0)" r="1.98" id="connector1pin" stroke-width="1.44"/>
    </g>
   </g>
  </g>
 </g>
 <g partID="489260">
  <g transform="translate(65.7184,80.46)">
   <g transform="matrix(0,-1,1,0,0,0)">
    <g  id="copper0">
     <g  id="copper1">
      <rect width="3.96" x="0.72" y="0.72" fill="none"  height="3.96" stroke="rgb(255, 191, 0)" stroke-width="1.44"/>
      <circle fill="none" cx="2.7"  cy="2.7" stroke="rgb(255, 191, 0)" r="1.98" id="connector0pin" stroke-width="1.44"/>
      <circle fill="none" cx="24.3"  cy="2.7" stroke="rgb(255, 191, 0)" r="1.98" id="connector1pin" stroke-width="1.44"/>
     </g>
    </g>
   </g>
  </g>
 </g>
 <g partID="489190">
  <g transform="translate(80.1184,80.46)">
   <g transform="matrix(0,-1,1,0,0,0)">
    <g  id="copper0">
     <g  id="copper1">
      <rect width="3.96" x="0.72" y="0.72" fill="none"  height="3.96" stroke="rgb(255, 191, 0)" stroke-width="1.44"/>
      <circle fill="none" cx="2.7"  cy="2.7" stroke="rgb(255, 191, 0)" r="1.98" id="connector0pin" stroke-width="1.44"/>
      <circle fill="none" cx="24.3"  cy="2.7" stroke="rgb(255, 191, 0)" r="1.98" id="connector1pin" stroke-width="1.44"/>
     </g>
    </g>
   </g>
  </g>
 </g>
 <g partID="489170">
  <g transform="translate(86.9224,109.26)">
   <g transform="matrix(0,-1,1,0,0,0)">
    <g  id="copper0">
     <g  id="copper1">
      <rect width="3.96" x="0.72" y="1.116" fill="none"  height="3.96" stroke="rgb(255, 191, 0)" stroke-width="1.44"/>
      <circle fill="none" cx="2.7"  cy="3.096" stroke="rgb(255, 191, 0)" r="1.98" id="connector0pin" stroke-width="1.44"/>
      <circle fill="none" cx="31.5"  cy="3.096" stroke="rgb(255, 191, 0)" r="1.98" id="connector1pin" stroke-width="1.44"/>
     </g>
    </g>
   </g>
  </g>
 </g>
 <g partID="489300">
  <g transform="translate(58.1224,102.06)">
   <g transform="matrix(0,-1,1,0,0,0)">
    <g  id="copper0">
     <g  id="copper1">
      <rect width="3.96" x="0.72" y="1.116" fill="none"  height="3.96" stroke="rgb(255, 191, 0)" stroke-width="1.44"/>
      <circle fill="none" cx="2.7"  cy="3.096" stroke="rgb(255, 191, 0)" r="1.98" id="connector0pin" stroke-width="1.44"/>
      <circle fill="none" cx="31.5"  cy="3.096" stroke="rgb(255, 191, 0)" r="1.98" id="connector1pin" stroke-width="1.44"/>
     </g>
    </g>
   </g>
  </g>
 </g>
 <g partID="489220">
  <g transform="translate(56.7184,60.66)">
   <g transform="matrix(0,1,-1,0,0,0)">
    <g  id="copper0">
     <g  id="copper1">
      <rect width="3.96" x="0.72" y="0.72" fill="none"  height="3.96" stroke="rgb(255, 191, 0)" stroke-width="1.44"/>
      <circle fill="none" cx="2.7"  cy="2.7" stroke="rgb(255, 191, 0)" r="1.98" id="connector0pin" stroke-width="1.44"/>
      <circle fill="none" cx="24.3"  cy="2.7" stroke="rgb(255, 191, 0)" r="1.98" id="connector1pin" stroke-width="1.44"/>
     </g>
    </g>
   </g>
  </g>
 </g>
 <g partID="483010">
  <g transform="translate(32.0584,88.92)">
   <g transform="matrix(0,-1,1,0,0,0)">
    <g  id="copper0">
     <rect width="3.96" x="1.98" y="5.58" fill="none"  height="3.96" stroke="rgb(255, 191, 0)" stroke-width="1.44"/>
     <circle fill="none" cx="3.96"  cy="7.56" stroke="rgb(255, 191, 0)" id="connector0pin" r="1.98" stroke-width="1.44"/>
     <circle fill="none" cx="11.16"  cy="7.56" stroke="rgb(255, 191, 0)" id="connector1pin" r="1.98" stroke-width="1.44"/>
    </g>
   </g>
  </g>
 </g>
 <g partID="489150">
  <g transform="translate(137.718,110.664)">
   <g  id="copper0">
    <g  id="copper1">
     <rect width="3.96" x="0.72" y="1.116" fill="none"  height="3.96" stroke="rgb(255, 191, 0)" stroke-width="1.44"/>
     <circle fill="none" cx="2.7"  cy="3.096" stroke="rgb(255, 191, 0)" r="1.98" id="connector0pin" stroke-width="1.44"/>
     <circle fill="none" cx="31.5"  cy="3.096" stroke="rgb(255, 191, 0)" r="1.98" id="connector1pin" stroke-width="1.44"/>
    </g>
   </g>
  </g>
 </g>
 <g partID="500260">
  <g transform="translate(137.718,103.464)">
   <g  id="copper0">
    <g  id="copper1">
     <rect width="3.96" x="0.72" y="1.116" fill="none"  height="3.96" stroke="rgb(255, 191, 0)" stroke-width="1.44"/>
     <circle fill="none" cx="2.7"  cy="3.096" stroke="rgb(255, 191, 0)" r="1.98" id="connector0pin" stroke-width="1.44"/>
     <circle fill="none" cx="31.5"  cy="3.096" stroke="rgb(255, 191, 0)" r="1.98" id="connector1pin" stroke-width="1.44"/>
    </g>
   </g>
  </g>
 </g>
 <g partID="489280">
  <g transform="translate(108.522,87.66)">
   <g transform="matrix(0,-1,1,0,0,0)">
    <g  id="copper0">
     <g  id="copper1">
      <rect width="3.96" x="0.72" y="1.116" fill="none"  height="3.96" stroke="rgb(255, 191, 0)" stroke-width="1.44"/>
      <circle fill="none" cx="2.7"  cy="3.096" stroke="rgb(255, 191, 0)" r="1.98" id="connector0pin" stroke-width="1.44"/>
      <circle fill="none" cx="31.5"  cy="3.096" stroke="rgb(255, 191, 0)" r="1.98" id="connector1pin" stroke-width="1.44"/>
     </g>
    </g>
   </g>
  </g>
 </g>
 <g partID="489200">
  <g transform="translate(101.322,58.86)">
   <g transform="matrix(0,-1,1,0,0,0)">
    <g  id="copper0">
     <g  id="copper1">
      <rect width="3.96" x="0.72" y="1.116" fill="none"  height="3.96" stroke="rgb(255, 191, 0)" stroke-width="1.44"/>
      <circle fill="none" cx="2.7"  cy="3.096" stroke="rgb(255, 191, 0)" r="1.98" id="connector0pin" stroke-width="1.44"/>
      <circle fill="none" cx="31.5"  cy="3.096" stroke="rgb(255, 191, 0)" r="1.98" id="connector1pin" stroke-width="1.44"/>
     </g>
    </g>
   </g>
  </g>
 </g>
 <g partID="489310">
  <g transform="translate(63.3784,36.72)">
   <g  id="copper0">
    <circle fill="none" cx="5.04"  cy="5.04" stroke="rgb(255, 191, 0)" id="connector0pin" r="2.088" stroke-width="1.44"/>
   </g>
  </g>
 </g>
 <g partID="489240">
  <g transform="translate(205.854,37.2264)">
   <g  id="copper0">
    <circle fill="none" cx="5.04"  cy="5.04" stroke="rgb(255, 191, 0)" id="connector0pin" r="2.088" stroke-width="1.44"/>
   </g>
  </g>
 </g>
 <g partID="490370">
  <g transform="translate(45.0184,34.56)">
   <g transform="matrix(0,-1,1,0,0,0)">
    <g id="copper0">
     <rect width="4.32" x="12.24" y="6.84" fill="none" height="4.32" stroke="rgb(255, 191, 0)" id="square" stroke-width="1.44"/>
     <circle fill="none" cx="14.4" cy="9" stroke="rgb(255, 191, 0)" id="connector0pin" r="2.16" stroke-width="1.44"/>
     <circle fill="none" cx="14.4" cy="23.4" stroke="rgb(255, 191, 0)" id="connector1pin" r="2.16" stroke-width="1.44"/>
     <circle fill="none" cx="14.4" cy="37.8" stroke="rgb(255, 191, 0)" id="connector2pin" r="2.16" stroke-width="1.44"/>
    </g>
   </g>
  </g>
 </g>
 <g partID="495090">
  <g transform="translate(121.698,96.48)">
   <g transform="matrix(0,-1,1,0,0,0)">
    <g  id="copper0">
     <rect width="3.96" x="2.34" y="2.34" fill="none"  height="3.96" stroke="rgb(255, 191, 0)" id="square" stroke-width="1.44"/>
     <circle fill="none" cx="4.32"  cy="4.32" stroke="rgb(255, 191, 0)" id="connector0pin" r="1.98" stroke-width="1.44"/>
     <circle fill="none" cx="25.92"  cy="4.32" stroke="rgb(255, 191, 0)" id="connector13pin" r="1.98" stroke-width="1.44"/>
     <circle fill="none" cx="4.32"  cy="11.52" stroke="rgb(255, 191, 0)" id="connector1pin" r="1.98" stroke-width="1.44"/>
     <circle fill="none" cx="25.92"  cy="11.52" stroke="rgb(255, 191, 0)" id="connector12pin" r="1.98" stroke-width="1.44"/>
     <circle fill="none" cx="4.32"  cy="18.72" stroke="rgb(255, 191, 0)" id="connector2pin" r="1.98" stroke-width="1.44"/>
     <circle fill="none" cx="25.92"  cy="18.72" stroke="rgb(255, 191, 0)" id="connector11pin" r="1.98" stroke-width="1.44"/>
     <circle fill="none" cx="4.32"  cy="25.92" stroke="rgb(255, 191, 0)" id="connector3pin" r="1.98" stroke-width="1.44"/>
     <circle fill="none" cx="25.92"  cy="25.92" stroke="rgb(255, 191, 0)" id="connector10pin" r="1.98" stroke-width="1.44"/>
     <circle fill="none" cx="4.32"  cy="33.12" stroke="rgb(255, 191, 0)" id="connector4pin" r="1.98" stroke-width="1.44"/>
     <circle fill="none" cx="25.92"  cy="33.12" stroke="rgb(255, 191, 0)" id="connector9pin" r="1.98" stroke-width="1.44"/>
     <circle fill="none" cx="4.32"  cy="40.32" stroke="rgb(255, 191, 0)" id="connector5pin" r="1.98" stroke-width="1.44"/>
     <circle fill="none" cx="25.92"  cy="40.32" stroke="rgb(255, 191, 0)" id="connector8pin" r="1.98" stroke-width="1.44"/>
     <circle fill="none" cx="4.32"  cy="47.52" stroke="rgb(255, 191, 0)" id="connector6pin" r="1.98" stroke-width="1.44"/>
     <circle fill="none" cx="25.92"  cy="47.52" stroke="rgb(255, 191, 0)" id="connector7pin" r="1.98" stroke-width="1.44"/>
    </g>
   </g>
  </g>
 </g>
 <g partID="498800">
  <g transform="translate(128.898,60.48)">
   <g transform="matrix(0,-1,1,0,0,0)">
    <g  id="copper0">
     <rect width="3.96" x="2.34" y="2.34" fill="none"  height="3.96" stroke="rgb(255, 191, 0)" id="square" stroke-width="1.44"/>
     <circle fill="none" cx="4.32"  cy="4.32" stroke="rgb(255, 191, 0)" id="connector0pin" r="1.98" stroke-width="1.44"/>
     <circle fill="none" cx="25.92"  cy="4.32" stroke="rgb(255, 191, 0)" id="connector17pin" r="1.98" stroke-width="1.44"/>
     <circle fill="none" cx="4.32"  cy="11.52" stroke="rgb(255, 191, 0)" id="connector1pin" r="1.98" stroke-width="1.44"/>
     <circle fill="none" cx="25.92"  cy="11.52" stroke="rgb(255, 191, 0)" id="connector16pin" r="1.98" stroke-width="1.44"/>
     <circle fill="none" cx="4.32"  cy="18.72" stroke="rgb(255, 191, 0)" id="connector2pin" r="1.98" stroke-width="1.44"/>
     <circle fill="none" cx="25.92"  cy="18.72" stroke="rgb(255, 191, 0)" id="connector15pin" r="1.98" stroke-width="1.44"/>
     <circle fill="none" cx="4.32"  cy="25.92" stroke="rgb(255, 191, 0)" id="connector3pin" r="1.98" stroke-width="1.44"/>
     <circle fill="none" cx="25.92"  cy="25.92" stroke="rgb(255, 191, 0)" id="connector14pin" r="1.98" stroke-width="1.44"/>
     <circle fill="none" cx="4.32"  cy="33.12" stroke="rgb(255, 191, 0)" id="connector4pin" r="1.98" stroke-width="1.44"/>
     <circle fill="none" cx="25.92"  cy="33.12" stroke="rgb(255, 191, 0)" id="connector13pin" r="1.98" stroke-width="1.44"/>
     <circle fill="none" cx="4.32"  cy="40.32" stroke="rgb(255, 191, 0)" id="connector5pin" r="1.98" stroke-width="1.44"/>
     <circle fill="none" cx="25.92"  cy="40.32" stroke="rgb(255, 191, 0)" id="connector12pin" r="1.98" stroke-width="1.44"/>
     <circle fill="none" cx="4.32"  cy="47.52" stroke="rgb(255, 191, 0)" id="connector6pin" r="1.98" stroke-width="1.44"/>
     <circle fill="none" cx="25.92"  cy="47.52" stroke="rgb(255, 191, 0)" id="connector11pin" r="1.98" stroke-width="1.44"/>
     <circle fill="none" cx="4.32"  cy="54.72" stroke="rgb(255, 191, 0)" id="connector7pin" r="1.98" stroke-width="1.44"/>
     <circle fill="none" cx="25.92"  cy="54.72" stroke="rgb(255, 191, 0)" id="connector10pin" r="1.98" stroke-width="1.44"/>
     <circle fill="none" cx="4.32"  cy="61.92" stroke="rgb(255, 191, 0)" id="connector8pin" r="1.98" stroke-width="1.44"/>
     <circle fill="none" cx="25.92"  cy="61.92" stroke="rgb(255, 191, 0)" id="connector9pin" r="1.98" stroke-width="1.44"/>
    </g>
   </g>
  </g>
 </g>
 <g partID="4880">
  <line stroke="#ffbf00" stroke-linecap="round" y1="68.37" x1="133.218" y2="58.35" stroke-width="2.304" x2="133.218"/>
 </g>
 <g partID="4910">
  <line stroke="#ffbf00" stroke-linecap="round" y1="58.35" x1="140.418" y2="68.37" stroke-width="2.304" x2="140.418"/>
 </g>
 <g partID="4940">
  <line stroke="#ffbf00" stroke-linecap="round" y1="68.37" x1="147.618" y2="58.35" stroke-width="2.304" x2="147.618"/>
 </g>
 <g partID="4960">
  <line stroke="#ffbf00" stroke-linecap="round" y1="58.35" x1="154.818" y2="68.37" stroke-width="2.304" x2="154.818"/>
 </g>
 <g partID="4980">
  <line stroke="#ffbf00" stroke-linecap="round" y1="58.35" x1="169.218" y2="68.37" stroke-width="2.304" x2="169.218"/>
 </g>
 <g partID="5000">
  <line stroke="#ffbf00" stroke-linecap="round" y1="58.35" x1="162.018" y2="68.37" stroke-width="2.304" x2="162.018"/>
 </g>
 <g partID="5020">
  <line stroke="#ffbf00" stroke-linecap="round" y1="32.37" x1="162.018" y2="15.204" stroke-width="2.304" x2="162.018"/>
 </g>
 <g partID="5040">
  <line stroke="#ffbf00" stroke-linecap="round" y1="15.204" x1="140.418" y2="32.37" stroke-width="2.304" x2="140.418"/>
 </g>
 <g partID="5060">
  <line stroke="#ffbf00" stroke-linecap="round" y1="32.37" x1="169.218" y2="15.204" stroke-width="2.304" x2="169.218"/>
 </g>
 <g partID="5080">
  <line stroke="#ffbf00" stroke-linecap="round" y1="32.37" x1="133.218" y2="15.204" stroke-width="2.304" x2="133.218"/>
 </g>
 <g partID="5100">
  <line stroke="#ffbf00" stroke-linecap="round" y1="15.204" x1="154.818" y2="32.37" stroke-width="2.304" x2="154.818"/>
 </g>
 <g partID="5120">
  <line stroke="#ffbf00" stroke-linecap="round" y1="32.37" x1="147.618" y2="15.204" stroke-width="2.304" x2="147.618"/>
 </g>
 <g partID="5140">
  <line stroke="#ffbf00" stroke-linecap="round" y1="32.37" x1="183.618" y2="15.204" stroke-width="2.304" x2="183.618"/>
 </g>
 <g partID="5160">
  <line stroke="#ffbf00" stroke-linecap="round" y1="32.37" x1="176.418" y2="15.204" stroke-width="2.304" x2="176.418"/>
 </g>
 <g partID="5200">
  <line stroke="#ffbf00" stroke-linecap="round" y1="92.16" x1="171.408" y2="92.16" stroke-width="2.304" x2="176.462"/>
 </g>
 <g partID="5220">
  <line stroke="#ffbf00" stroke-linecap="round" y1="92.16" x1="176.462" y2="58.35" stroke-width="2.304" x2="176.421"/>
 </g>
 <g partID="8640">
  <line stroke="#ffbf00" stroke-linecap="round" y1="99.2952" x1="183.597" y2="99.2952" stroke-width="2.304" x2="161.975"/>
 </g>
 <g partID="8660">
  <line stroke="#ffbf00" stroke-linecap="round" y1="99.2952" x1="161.975" y2="94.35" stroke-width="2.304" x2="162.005"/>
 </g>
 <g partID="8780">
  <line stroke="#ffbf00" stroke-linecap="round" y1="58.35" x1="183.617" y2="99.2951" stroke-width="2.304" x2="183.597"/>
 </g>
 <g partID="480400">
  <line stroke="#ffbf00" stroke-linecap="round" y1="41.7816" x1="126.083" y2="68.37" stroke-width="2.304" x2="126.023"/>
 </g>
 <g partID="480380">
  <line stroke="#ffbf00" stroke-linecap="round" y1="41.7816" x1="190.732" y2="41.7816" stroke-width="2.304" x2="126.083"/>
 </g>
 <g partID="480360">
  <line stroke="#ffbf00" stroke-linecap="round" y1="53.97" x1="190.805" y2="41.7816" stroke-width="2.304" x2="190.732"/>
 </g>
 <g partID="481650">
  <line stroke="#ffbf00" stroke-linecap="round" y1="99.2952" x1="61.2184" y2="99.2952" stroke-width="2.304" x2="140.354"/>
 </g>
 <g partID="480560">
  <line stroke="#ffbf00" stroke-linecap="round" y1="99.2952" x1="140.354" y2="94.35" stroke-width="2.304" x2="140.399"/>
 </g>
 <g partID="480490">
  <line stroke="#ffbf00" stroke-linecap="round" y1="99.3403" x1="56.2083" y2="99.2952" stroke-width="2.304" x2="61.2184"/>
 </g>
 <g partID="485950">
  <line stroke="#ffbf00" stroke-linecap="round" y1="106.646" x1="126.083" y2="113.945" stroke-width="2.304" x2="138.265"/>
 </g>
 <g partID="483770">
  <line stroke="#ffbf00" stroke-linecap="round" y1="113.945" x1="138.265" y2="113.782" stroke-width="2.304" x2="147.705"/>
 </g>
 <g partID="481840">
  <line stroke="#ffbf00" stroke-linecap="round" y1="106.646" x1="89.9752" y2="106.646" stroke-width="2.304" x2="126.083"/>
 </g>
 <g partID="480680">
  <line stroke="#ffbf00" stroke-linecap="round" y1="113.782" x1="147.705" y2="94.35" stroke-width="2.304" x2="147.627"/>
 </g>
 <g partID="480610">
  <line stroke="#ffbf00" stroke-linecap="round" y1="106.565" x1="56.2084" y2="106.646" stroke-width="2.304" x2="89.9752"/>
 </g>
 <g partID="480790">
  <line stroke="#ffbf00" stroke-linecap="round" y1="104.37" x1="32.4184" y2="101.55" stroke-width="2.4" x2="32.4184"/>
 </g>
 <g partID="500560">
  <line stroke="#ffbf00" stroke-linecap="round" y1="92.16" x1="32.4184" y2="92.16" stroke-width="2.304" x2="123.828"/>
 </g>
 <g partID="502310">
  <line stroke="#ffbf00" stroke-linecap="round" y1="92.16" x1="25.2184" y2="92.16" stroke-width="2.304" x2="32.4184"/>
 </g>
 <g partID="480910">
  <line stroke="#ffbf00" stroke-linecap="round" y1="92.16" x1="20.3344" y2="92.16" stroke-width="2.304" x2="25.2184"/>
 </g>
 <g partID="481350">
  <line stroke="#ffbf00" stroke-linecap="round" y1="77.76" x1="80.6284" y2="77.76" stroke-width="2.304" x2="70.6084"/>
 </g>
 <g partID="481620">
  <line stroke="#ffbf00" stroke-linecap="round" y1="56.052" x1="61.2184" y2="56.1272" stroke-width="2.304" x2="66.2286"/>
 </g>
 <g partID="481510">
  <line stroke="#ffbf00" stroke-linecap="round" y1="68.37" x1="61.2184" y2="56.052" stroke-width="2.304" x2="61.2184"/>
 </g>
 <g partID="481800">
  <line stroke="#ffbf00" stroke-linecap="round" y1="97.17" x1="61.2184" y2="99.2951" stroke-width="2.304" x2="61.2184"/>
 </g>
 <g partID="481990">
  <line stroke="#ffbf00" stroke-linecap="round" y1="108.519" x1="89.039" y2="106.646" stroke-width="2.304" x2="89.9752"/>
 </g>
 <g partID="482130">
  <line stroke="#ffbf00" stroke-linecap="round" y1="56.268" x1="89.9752" y2="56.193" stroke-width="2.304" x2="85.0082"/>
 </g>
 <g partID="482020">
  <line stroke="#ffbf00" stroke-linecap="round" y1="75.57" x1="90.014" y2="56.2681" stroke-width="2.304" x2="89.9752"/>
 </g>
 <g partID="483040">
  <line stroke="#ffbf00" stroke-linecap="round" y1="84.96" x1="20.3344" y2="84.96" stroke-width="2.304" x2="37.4284"/>
 </g>
 <g partID="483160">
  <line stroke="#ffbf00" stroke-linecap="round" y1="84.96" x1="51.8284" y2="84.96" stroke-width="2.304" x2="41.8084"/>
 </g>
 <g partID="483190">
  <line stroke="#ffbf00" stroke-linecap="round" y1="77.76" x1="20.3344" y2="77.76" stroke-width="2.304" x2="37.4284"/>
 </g>
 <g partID="483410">
  <line stroke="#ffbf00" stroke-linecap="round" y1="77.6736" x1="54.0832" y2="77.747" stroke-width="2.304" x2="41.8083"/>
 </g>
 <g partID="483390">
  <line stroke="#ffbf00" stroke-linecap="round" y1="65.55" x1="54.0283" y2="77.6735" stroke-width="2.304" x2="54.0833"/>
 </g>
 <g partID="483480">
  <line stroke="#ffbf00" stroke-linecap="round" y1="77.7468" x1="66.2284" y2="77.6735" stroke-width="2.304" x2="54.0833"/>
 </g>
 <g partID="483750">
  <line stroke="#ffbf00" stroke-linecap="round" y1="104.37" x1="140.399" y2="99.2952" stroke-width="2.304" x2="140.354"/>
 </g>
 <g partID="483960">
  <line stroke="#ffbf00" stroke-linecap="round" y1="113.947" x1="138.236" y2="113.945" stroke-width="2.304" x2="138.265"/>
 </g>
 <g partID="488440">
  <line stroke="#ffbf00" stroke-linecap="round" y1="63.4032" x1="190.732" y2="106.646" stroke-width="3.456" x2="190.732"/>
 </g>
 <g partID="484180">
  <line stroke="#ffbf00" stroke-linecap="round" y1="106.646" x1="190.732" y2="106.57" stroke-width="3.456" x2="171.808"/>
 </g>
 <g partID="483990">
  <line stroke="#ffbf00" stroke-linecap="round" y1="58.7498" x1="190.787" y2="63.4032" stroke-width="3.456" x2="190.732"/>
 </g>
 <g partID="484210">
  <line stroke="#ffbf00" stroke-linecap="round" y1="111.17" x1="169.218" y2="109.15" stroke-width="3.456" x2="169.218"/>
 </g>
 <g partID="484720">
  <line stroke="#ffbf00" stroke-linecap="round" y1="13.0248" x1="97.1104" y2="12.965" stroke-width="2.304" x2="123.775"/>
 </g>
 <g partID="484700">
  <line stroke="#ffbf00" stroke-linecap="round" y1="85.0248" x1="97.3264" y2="13.0248" stroke-width="2.304" x2="97.1102"/>
 </g>
 <g partID="484680">
  <line stroke="#ffbf00" stroke-linecap="round" y1="85.0248" x1="82.84" y2="85.0248" stroke-width="2.304" x2="97.3265"/>
 </g>
 <g partID="484450">
  <line stroke="#ffbf00" stroke-linecap="round" y1="79.95" x1="82.8249" y2="85.0248" stroke-width="2.304" x2="82.84"/>
 </g>
 <g partID="485210">
  <line stroke="#ffbf00" stroke-linecap="round" y1="27.2952" x1="126.083" y2="41.7817" stroke-width="2.304" x2="126.083"/>
 </g>
 <g partID="485030">
  <line stroke="#ffbf00" stroke-linecap="round" y1="27.424" x1="120.924" y2="27.2952" stroke-width="2.304" x2="126.083"/>
 </g>
 <g partID="485190">
  <line stroke="#ffbf00" stroke-linecap="round" y1="77.6736" x1="133.218" y2="77.6736" stroke-width="2.304" x2="118.732"/>
 </g>
 <g partID="485170">
  <line stroke="#ffbf00" stroke-linecap="round" y1="77.6736" x1="118.732" y2="44.124" stroke-width="2.304" x2="118.684"/>
 </g>
 <g partID="485060">
  <line stroke="#ffbf00" stroke-linecap="round" y1="72.75" x1="133.218" y2="77.6735" stroke-width="2.304" x2="133.218"/>
 </g>
 <g partID="485350">
  <line stroke="#ffbf00" stroke-linecap="round" y1="85.0248" x1="133.218" y2="84.9665" stroke-width="2.304" x2="113.808"/>
 </g>
 <g partID="485280">
  <line stroke="#ffbf00" stroke-linecap="round" y1="89.97" x1="133.218" y2="85.0249" stroke-width="2.304" x2="133.218"/>
 </g>
 <g partID="485450">
  <line stroke="#ffbf00" stroke-linecap="round" y1="34.6464" x1="111.597" y2="34.6693" stroke-width="2.304" x2="116.437"/>
 </g>
 <g partID="485380">
  <line stroke="#ffbf00" stroke-linecap="round" y1="53.97" x1="111.616" y2="34.6465" stroke-width="2.304" x2="111.597"/>
 </g>
 <g partID="485520">
  <line stroke="#ffbf00" stroke-linecap="round" y1="27.3784" x1="106.608" y2="27.4611" stroke-width="2.304" x2="116.437"/>
 </g>
 <g partID="485840">
  <line stroke="#ffbf00" stroke-linecap="round" y1="56.16" x1="106.608" y2="56.16" stroke-width="2.304" x2="109.428"/>
 </g>
 <g partID="487030">
  <line stroke="#ffbf00" stroke-linecap="round" y1="99.2952" x1="10.84" y2="85.025" stroke-width="3.456" x2="10.84"/>
 </g>
 <g partID="487010">
  <line stroke="#ffbf00" stroke-linecap="round" y1="85.0248" x1="10.84" y2="84.9844" stroke-width="3.456" x2="15.3025"/>
 </g>
 <g partID="486990">
  <line stroke="#ffbf00" stroke-linecap="round" y1="120.917" x1="169.326" y2="120.917" stroke-width="3.456" x2="32.4616"/>
 </g>
 <g partID="486970">
  <line stroke="#ffbf00" stroke-linecap="round" y1="120.917" x1="32.4616" y2="99.2952" stroke-width="3.456" x2="10.84"/>
 </g>
 <g partID="485980">
  <line stroke="#ffbf00" stroke-linecap="round" y1="116.35" x1="169.257" y2="120.917" stroke-width="3.456" x2="169.326"/>
 </g>
 <g partID="488970">
  <line stroke="#ffbf00" stroke-linecap="round" y1="63.4032" x1="198.083" y2="63.4032" stroke-width="3.456" x2="190.732"/>
 </g>
 <g partID="488950">
  <line stroke="#ffbf00" stroke-linecap="round" y1="44.5275" x1="209.524" y2="63.4032" stroke-width="3.456" x2="198.083"/>
 </g>
 <g partID="489410">
  <line stroke="#ffbf00" stroke-linecap="round" y1="53.97" x1="68.4184" y2="44.004" stroke-width="2.304" x2="68.4184"/>
 </g>
 <g partID="489530">
  <line stroke="#ffbf00" stroke-linecap="round" y1="22.84" x1="68.4184" y2="39.116" stroke-width="3.456" x2="68.4184"/>
 </g>
 <g partID="489690">
  <line stroke="#ffbf00" stroke-linecap="round" y1="53.97" x1="82.8184" y2="22.44" stroke-width="2.304" x2="82.8184"/>
 </g>
 <g partID="490310">
  <line stroke="#ffbf00" stroke-linecap="round" y1="70.5384" x1="10.84" y2="85.0249" stroke-width="3.456" x2="10.84"/>
 </g>
 <g partID="490290">
  <line stroke="#ffbf00" stroke-linecap="round" y1="22.1949" x1="52.2744" y2="70.5384" stroke-width="3.456" x2="10.84"/>
 </g>
 <g partID="502200">
  <line stroke="#f28a00" stroke-linecap="round" y1="92.16" x1="32.4184" y2="97.17" stroke-width="2.304" x2="32.4184"/>
 </g>
 <g partID="2241">
  <g transform="translate(0,4.248)">
   <g id="silkscreen">
    <rect width="220.526" x="0.576" y="0.576" fill="none" height="126.983" stroke="#ffffff" stroke-width="0.576"/>
   </g>
  </g>
 </g>
 <g partID="489292">
  <g transform="translate(120.978,18)">
   <g transform="matrix(0,-1,1,0,0,0)">
    <g  id="silkscreen">
     <line  stroke="white" y1="1.44" stroke-width="0.72" x1="1.44" y2="66.24" x2="1.44"/>
     <line  stroke="white" y1="66.24" stroke-width="0.72" x1="1.44" y2="66.24" x2="8.64"/>
     <line  stroke="white" y1="66.24" stroke-width="0.72" x1="8.64" y2="1.44" x2="8.64"/>
     <line  stroke="white" y1="1.44" stroke-width="0.72" x1="8.64" y2="1.44" x2="1.44"/>
     <line  stroke="white" y1="3.96" stroke-width="0.36" x1="1.44" y2="1.44" x2="3.96"/>
     <!-- 120 -->
    </g>
   </g>
  </g>
 </g>
 <g partID="489272">
  <g transform="translate(113.641,22.44)">
   <g  id="silkscreen">
    <line  stroke="white" y1="1.44" stroke-width="0.72" x1="1.44" y2="23.04" x2="1.44"/>
    <line  stroke="white" y1="23.04" stroke-width="0.72" x1="1.44" y2="23.04" x2="8.64"/>
    <line  stroke="white" y1="23.04" stroke-width="0.72" x1="8.64" y2="1.44" x2="8.64"/>
    <line  stroke="white" y1="1.44" stroke-width="0.72" x1="8.64" y2="1.44" x2="1.44"/>
    <line  stroke="white" y1="3.96" stroke-width="0.36" x1="1.44" y2="1.44" x2="3.96"/>
    <!-- 120 -->
   </g>
  </g>
 </g>
 <g partID="480422">
  <g transform="translate(32.4184,69.12)">
   <g transform="matrix(0,1,-1,0,0,0)">
    <g  id="silkscreen">
     <line  stroke="white" y1="5.76" stroke-width="0.72" x1="1.44" y2="5.76" x2="30.24"/>
     <line  stroke="white" y1="5.76" stroke-width="0.72" x1="30.24" y2="18.72" x2="30.24"/>
     <line  stroke="white" y1="18.72" stroke-width="0.72" x1="30.24" y2="18.72" x2="1.44"/>
     <line  stroke="white" y1="18.72" stroke-width="0.72" x1="1.44" y2="5.76" x2="1.44"/>
     <line  stroke="white" y1="5.76" stroke-width="0.72" x1="1.44" y2="5.76" x2="30.24"/>
     <line  stroke="white" y1="5.76" stroke-width="0.72" x1="30.24" y2="10.08" x2="30.24"/>
     <line  stroke="white" y1="10.08" stroke-width="0.72" x1="30.24" y2="10.08" x2="1.44"/>
     <line  stroke="white" y1="10.08" stroke-width="0.72" x1="1.44" y2="5.76" x2="1.44"/>
     <line  stroke="white" y1="5.76" stroke-width="0.36" x1="10.8" y2="10.08" x2="10.8"/>
     <line  stroke="white" y1="5.76" stroke-width="0.36" x1="20.88" y2="10.08" x2="20.88"/>
    </g>
   </g>
  </g>
 </g>
 <g partID="489182">
  <g transform="translate(29.7184,96.66)">
   <g  id="silkscreen">
    <line  stroke="white" y1="2.736" x1="5.4" y2="2.736" stroke-width="0.72" x2="8.064"/>
    <line  stroke="white" y1="2.736" x1="18.864" y2="2.736" stroke-width="0.72" x2="21.6"/>
    <line  stroke="white" y1="0.936" x1="8.064" y2="0.936" stroke-width="0.72" x2="18.864"/>
    <line  stroke="white" y1="0.936" x1="18.864" y2="4.536" stroke-width="0.72" x2="18.864"/>
    <line  stroke="white" y1="4.536" x1="18.864" y2="4.536" stroke-width="0.72" x2="8.064"/>
    <line  stroke="white" y1="4.536" x1="8.064" y2="0.936" stroke-width="0.72" x2="8.064"/>
   </g>
  </g>
 </g>
 <g partID="489252">
  <g transform="translate(29.7184,103.86)">
   <g  id="silkscreen">
    <line  stroke="white" y1="2.736" x1="5.4" y2="2.736" stroke-width="0.72" x2="8.064"/>
    <line  stroke="white" y1="2.736" x1="18.864" y2="2.736" stroke-width="0.72" x2="21.6"/>
    <line  stroke="white" y1="0.936" x1="8.064" y2="0.936" stroke-width="0.72" x2="18.864"/>
    <line  stroke="white" y1="0.936" x1="18.864" y2="4.536" stroke-width="0.72" x2="18.864"/>
    <line  stroke="white" y1="4.536" x1="18.864" y2="4.536" stroke-width="0.72" x2="8.064"/>
    <line  stroke="white" y1="4.536" x1="8.064" y2="0.936" stroke-width="0.72" x2="8.064"/>
   </g>
  </g>
 </g>
 <g partID="489262">
  <g transform="translate(65.7184,80.46)">
   <g transform="matrix(0,-1,1,0,0,0)">
    <g  id="silkscreen">
     <line  stroke="white" y1="2.736" x1="5.4" y2="2.736" stroke-width="0.72" x2="8.064"/>
     <line  stroke="white" y1="2.736" x1="18.864" y2="2.736" stroke-width="0.72" x2="21.6"/>
     <line  stroke="white" y1="0.936" x1="8.064" y2="0.936" stroke-width="0.72" x2="18.864"/>
     <line  stroke="white" y1="0.936" x1="18.864" y2="4.536" stroke-width="0.72" x2="18.864"/>
     <line  stroke="white" y1="4.536" x1="18.864" y2="4.536" stroke-width="0.72" x2="8.064"/>
     <line  stroke="white" y1="4.536" x1="8.064" y2="0.936" stroke-width="0.72" x2="8.064"/>
    </g>
   </g>
  </g>
 </g>
 <g partID="489192">
  <g transform="translate(80.1184,80.46)">
   <g transform="matrix(0,-1,1,0,0,0)">
    <g  id="silkscreen">
     <line  stroke="white" y1="2.736" x1="5.4" y2="2.736" stroke-width="0.72" x2="8.064"/>
     <line  stroke="white" y1="2.736" x1="18.864" y2="2.736" stroke-width="0.72" x2="21.6"/>
     <line  stroke="white" y1="0.936" x1="8.064" y2="0.936" stroke-width="0.72" x2="18.864"/>
     <line  stroke="white" y1="0.936" x1="18.864" y2="4.536" stroke-width="0.72" x2="18.864"/>
     <line  stroke="white" y1="4.536" x1="18.864" y2="4.536" stroke-width="0.72" x2="8.064"/>
     <line  stroke="white" y1="4.536" x1="8.064" y2="0.936" stroke-width="0.72" x2="8.064"/>
    </g>
   </g>
  </g>
 </g>
 <g partID="489172">
  <g transform="translate(86.9224,109.26)">
   <g transform="matrix(0,-1,1,0,0,0)">
    <g  id="silkscreen">
     <line  stroke="white" y1="3.096" x1="5.4" y2="3.096" stroke-width="0.72" x2="10.584"/>
     <line  stroke="white" y1="3.096" x1="24.984" y2="3.096" stroke-width="0.72" x2="28.8"/>
     <line  stroke="white" y1="0.72" x1="10.584" y2="0.72" stroke-width="0.72" x2="24.984"/>
     <line  stroke="white" y1="0.72" x1="24.984" y2="5.472" stroke-width="0.72" x2="24.984"/>
     <line  stroke="white" y1="5.472" x1="24.984" y2="5.472" stroke-width="0.72" x2="10.584"/>
     <line  stroke="white" y1="5.472" x1="10.584" y2="0.72" stroke-width="0.72" x2="10.584"/>
    </g>
   </g>
  </g>
 </g>
 <g partID="489302">
  <g transform="translate(58.1224,102.06)">
   <g transform="matrix(0,-1,1,0,0,0)">
    <g  id="silkscreen">
     <line  stroke="white" y1="3.096" x1="5.4" y2="3.096" stroke-width="0.72" x2="10.584"/>
     <line  stroke="white" y1="3.096" x1="24.984" y2="3.096" stroke-width="0.72" x2="28.8"/>
     <line  stroke="white" y1="0.72" x1="10.584" y2="0.72" stroke-width="0.72" x2="24.984"/>
     <line  stroke="white" y1="0.72" x1="24.984" y2="5.472" stroke-width="0.72" x2="24.984"/>
     <line  stroke="white" y1="5.472" x1="24.984" y2="5.472" stroke-width="0.72" x2="10.584"/>
     <line  stroke="white" y1="5.472" x1="10.584" y2="0.72" stroke-width="0.72" x2="10.584"/>
    </g>
   </g>
  </g>
 </g>
 <g partID="489222">
  <g transform="translate(56.7184,60.66)">
   <g transform="matrix(0,1,-1,0,0,0)">
    <g  id="silkscreen">
     <line  stroke="white" y1="2.736" x1="5.4" y2="2.736" stroke-width="0.72" x2="8.064"/>
     <line  stroke="white" y1="2.736" x1="18.864" y2="2.736" stroke-width="0.72" x2="21.6"/>
     <line  stroke="white" y1="0.936" x1="8.064" y2="0.936" stroke-width="0.72" x2="18.864"/>
     <line  stroke="white" y1="0.936" x1="18.864" y2="4.536" stroke-width="0.72" x2="18.864"/>
     <line  stroke="white" y1="4.536" x1="18.864" y2="4.536" stroke-width="0.72" x2="8.064"/>
     <line  stroke="white" y1="4.536" x1="8.064" y2="0.936" stroke-width="0.72" x2="8.064"/>
    </g>
   </g>
  </g>
 </g>
 <g partID="483012">
  <g transform="translate(32.0584,88.92)">
   <g transform="matrix(0,-1,1,0,0,0)">
    <g  id="silkscreen">
     <circle fill="none" cx="7.56"  cy="7.56" stroke="white" r="7.2" stroke-width="0.72"/>
    </g>
   </g>
  </g>
 </g>
 <g partID="489152">
  <g transform="translate(137.718,110.664)">
   <g  id="silkscreen">
    <line  stroke="white" y1="3.096" x1="5.4" y2="3.096" stroke-width="0.72" x2="10.584"/>
    <line  stroke="white" y1="3.096" x1="24.984" y2="3.096" stroke-width="0.72" x2="28.8"/>
    <line  stroke="white" y1="0.72" x1="10.584" y2="0.72" stroke-width="0.72" x2="24.984"/>
    <line  stroke="white" y1="0.72" x1="24.984" y2="5.472" stroke-width="0.72" x2="24.984"/>
    <line  stroke="white" y1="5.472" x1="24.984" y2="5.472" stroke-width="0.72" x2="10.584"/>
    <line  stroke="white" y1="5.472" x1="10.584" y2="0.72" stroke-width="0.72" x2="10.584"/>
   </g>
  </g>
 </g>
 <g partID="500262">
  <g transform="translate(137.718,103.464)">
   <g  id="silkscreen">
    <line  stroke="white" y1="3.096" x1="5.4" y2="3.096" stroke-width="0.72" x2="10.584"/>
    <line  stroke="white" y1="3.096" x1="24.984" y2="3.096" stroke-width="0.72" x2="28.8"/>
    <line  stroke="white" y1="0.72" x1="10.584" y2="0.72" stroke-width="0.72" x2="24.984"/>
    <line  stroke="white" y1="0.72" x1="24.984" y2="5.472" stroke-width="0.72" x2="24.984"/>
    <line  stroke="white" y1="5.472" x1="24.984" y2="5.472" stroke-width="0.72" x2="10.584"/>
    <line  stroke="white" y1="5.472" x1="10.584" y2="0.72" stroke-width="0.72" x2="10.584"/>
   </g>
  </g>
 </g>
 <g partID="489282">
  <g transform="translate(108.522,87.66)">
   <g transform="matrix(0,-1,1,0,0,0)">
    <g  id="silkscreen">
     <line  stroke="white" y1="3.096" x1="5.4" y2="3.096" stroke-width="0.72" x2="10.584"/>
     <line  stroke="white" y1="3.096" x1="24.984" y2="3.096" stroke-width="0.72" x2="28.8"/>
     <line  stroke="white" y1="0.72" x1="10.584" y2="0.72" stroke-width="0.72" x2="24.984"/>
     <line  stroke="white" y1="0.72" x1="24.984" y2="5.472" stroke-width="0.72" x2="24.984"/>
     <line  stroke="white" y1="5.472" x1="24.984" y2="5.472" stroke-width="0.72" x2="10.584"/>
     <line  stroke="white" y1="5.472" x1="10.584" y2="0.72" stroke-width="0.72" x2="10.584"/>
    </g>
   </g>
  </g>
 </g>
 <g partID="489202">
  <g transform="translate(101.322,58.86)">
   <g transform="matrix(0,-1,1,0,0,0)">
    <g  id="silkscreen">
     <line  stroke="white" y1="3.096" x1="5.4" y2="3.096" stroke-width="0.72" x2="10.584"/>
     <line  stroke="white" y1="3.096" x1="24.984" y2="3.096" stroke-width="0.72" x2="28.8"/>
     <line  stroke="white" y1="0.72" x1="10.584" y2="0.72" stroke-width="0.72" x2="24.984"/>
     <line  stroke="white" y1="0.72" x1="24.984" y2="5.472" stroke-width="0.72" x2="24.984"/>
     <line  stroke="white" y1="5.472" x1="24.984" y2="5.472" stroke-width="0.72" x2="10.584"/>
     <line  stroke="white" y1="5.472" x1="10.584" y2="0.72" stroke-width="0.72" x2="10.584"/>
    </g>
   </g>
  </g>
 </g>
 <g partID="489312">
  <g transform="translate(63.3784,36.72)">
   <g  id="silkscreen">
    <line  stroke="white" y1="1.44" stroke-width="0.72" x1="1.44" y2="8.64" x2="1.44"/>
    <line  stroke="white" y1="8.64" stroke-width="0.72" x1="1.44" y2="8.64" x2="8.64"/>
    <line  stroke="white" y1="8.64" stroke-width="0.72" x1="8.64" y2="1.44" x2="8.64"/>
    <line  stroke="white" y1="1.44" stroke-width="0.72" x1="8.64" y2="1.44" x2="1.44"/>
    <line  stroke="white" y1="3.96" stroke-width="0.36" x1="1.44" y2="1.44" x2="3.96"/>
    <!-- 120 -->
   </g>
  </g>
 </g>
 <g partID="489242">
  <g transform="translate(205.854,37.2264)">
   <g  id="silkscreen">
    <line  stroke="white" y1="1.44" stroke-width="0.72" x1="1.44" y2="8.64" x2="1.44"/>
    <line  stroke="white" y1="8.64" stroke-width="0.72" x1="1.44" y2="8.64" x2="8.64"/>
    <line  stroke="white" y1="8.64" stroke-width="0.72" x1="8.64" y2="1.44" x2="8.64"/>
    <line  stroke="white" y1="1.44" stroke-width="0.72" x1="8.64" y2="1.44" x2="1.44"/>
    <line  stroke="white" y1="3.96" stroke-width="0.36" x1="1.44" y2="1.44" x2="3.96"/>
    <!-- 120 -->
   </g>
  </g>
 </g>
 <g partID="490372">
  <g transform="translate(45.0184,34.56)">
   <g transform="matrix(0,-1,1,0,0,0)">
    <g id="silkscreen">
     <line stroke="white" id="vertical-left" y1="1.44" stroke-width="0.72" x1="1.44" y2="45.36" x2="1.44"/>
     <line stroke="white" id="bottom" y1="45.36" stroke-width="0.72" x1="1.44" y2="45.36" x2="33.12"/>
     <line stroke="white" id="vertical-right" y1="45.36" stroke-width="0.72" x1="33.12" y2="1.44" x2="33.12"/>
     <line stroke="white" id="top" y1="1.44" stroke-width="0.72" x1="33.12" y2="1.44" x2="1.44"/>
     <line stroke="white" id="mid-vertical" y1="45.36" stroke-width="0.36" x1="27.36" y2="1.44" x2="27.36"/>
    </g>
   </g>
  </g>
 </g>
 <g partID="494300">
  <g transform="translate(64.4968,34.5008)">
   <g transform="matrix(0,-1,1,0,0,0)">
    <g  id="silkscreen">
     <text x="7.2" y="6.48" fill="#ffffff" font-family="OCRA"  text-anchor="middle" id="label" stroke-width="0" font-size="7.2">Bl</text>
    </g>
   </g>
  </g>
 </g>
 <g partID="494280">
  <g transform="translate(49.9512,42.2064)">
   <g transform="matrix(0,-1,1,0,0,0)">
    <g  id="silkscreen">
     <text x="10.8" y="6.48" fill="#ffffff" font-family="OCRA"  text-anchor="middle" id="label" stroke-width="0" font-size="7.2">Gnd</text>
    </g>
   </g>
  </g>
 </g>
 <g partID="494260">
  <g transform="translate(123.64,123.639)">
   <g  id="silkscreen">
    <text x="50.4" y="6.48" fill="#ffffff" font-family="OCRA"  text-anchor="middle" id="label" stroke-width="0" font-size="7.2">Signals   V2.1</text>
   </g>
  </g>
 </g>
 <g partID="494240">
  <g transform="translate(129.383,116.085)">
   <g  id="silkscreen">
    <text x="46.8" y="6.48" fill="#ffffff" font-family="OCRA"  text-anchor="middle" id="label" stroke-width="0" font-size="7.2">Animated Turn</text>
   </g>
  </g>
 </g>
 <g partID="494220">
  <g transform="translate(3.2584,117.536)">
   <g  id="silkscreen">
    <defs  id="defs4"/>
    <metadata  id="metadata7">
     <rdf:RDF xmlns:rdf="http://www.w3.org/1999/02/22-rdf-syntax-ns#">
      <cc:Work xmlns:rdf="http://www.w3.org/1999/02/22-rdf-syntax-ns#" xmlns:cc="http://creativecommons.org/ns#" rdf:about="">
       <dc:format xmlns:dc="http://purl.org/dc/elements/1.1/">image/svg+xml</dc:format>
       <dc:type xmlns:rdf="http://www.w3.org/1999/02/22-rdf-syntax-ns#" rdf:resource="http://purl.org/dc/dcmitype/StillImage" xmlns:dc="http://purl.org/dc/elements/1.1/"/>
       <dc:title xmlns:dc="http://purl.org/dc/elements/1.1/"/>
      </cc:Work>
     </rdf:RDF>
    </metadata>
    <g  id="layer1" transform="matrix(1, 0, 0, 1, 0, -605.867)">
     <path fill="#ffffff"  stroke="none" style="fill-rule:evenodd;" fill-opacity="1" id="path2832" d="m38.6799,605.867,16.644,0,0,2.00626,-12.9937,0,0,2.87447,11.9503,0,0,1.96003,-11.9503,0,0,2.3949,12.9937,0,0,2.24021,-16.644,0,0,-11.4759zm51.7477,0,0,7.66643c0,2.09572,-1.71368,3.80943,-3.80867,3.80943l-10.2549,0c-2.09499,0,-3.8094,-1.71371,-3.8094,-3.80943l0,-7.66643,3.65028,0,0,6.75353c0,1.36537,1.11679,2.48213,2.48216,2.48213l5.43728,0c1.36537,0,2.48216,-1.11676,2.48216,-2.48213l0,-6.75353,3.82113,0zm1.66895,0,12.7136,0c3.15531,0,6.1779,2.58262,6.1779,5.7379l0,0c0,3.15458,-3.09665,5.73796,-6.69266,5.73796l-3.57182,0,-3.09592,-2.24021c1.95713,0,3.65688,0,5.61401,0,2.28857,0,4.03745,-1.60952,4.03745,-3.40607,0,-2.19251,-1.64182,-3.82333,-4.04185,-3.82333l-7.49121,0,0,9.4696,-3.64954,0,0,-11.4759zM0,605.867c4.17311,0,8.34621,0,12.5193,0,3.72287,0,5.03765,2.00626,5.03765,3.19124,0,1.68948,-1.55309,3.12525,-4.47009,3.12525,-3.14505,0,-6.29156,0,-9.4366,0,0,1.71952,0,3.43909,0,5.15937,-1.21651,0,-2.43376,0,-3.65028,0,0,-3.82556,0,-7.65106,0,-11.4759zm11.874,4.7634c1.33017,0,1.97473,-0.736215,1.97473,-1.40643,0,-0.650451,-0.644555,-1.35071,-1.97473,-1.35071,-2.95586,0,-5.26716,0,-8.22375,0,0,0.95837,0,1.79947,0,2.75714,2.74101,0,5.48275,0,8.22375,0zm7.31815,-4.7634c4.17311,0,8.34548,0,12.5186,0,3.7236,0,5.03838,2.00626,5.03838,3.19124,0,1.68948,-1.27444,3.2719,-4.71427,3.2719,-0.552161,-0.0170121,-0.644555,0.20309,-0.219251,0.588796l5.41529,4.42392c-1.3837,0,-2.80627,0,-4.18997,0,-2.70214,-2.19914,-5.40355,-4.51408,-8.10496,-6.71246,2.25777,0,3.78813,0,6.04737,0,1.49663,0,2.05759,-0.736215,2.05759,-1.40643,0,-0.650451,-0.644555,-1.35071,-1.97473,-1.35071,-2.95659,0,-5.2679,0,-8.22375,0,0,3.15605,0,6.3128,0,9.4696,-1.21651,0,-2.43303,0,-3.65028,0,0,-3.82556,0,-7.65106,0,-11.4759zm93.0373,0,16.6433,0,0,2.00626,-12.9938,0,0,2.87447,11.951,0,0,1.96003,-11.951,0,0,2.3949,12.9938,0,0,2.24021,-16.6433,0,0,-11.4759zm-55.6363,0,3.64955,0c0,3.07832,0,6.15734,0,9.23566l11.503,0,0,2.24021,-15.1525,0,0,-11.4759"/>
    </g>
   </g>
  </g>
 </g>
 <g partID="494320">
  <g transform="translate(78.9984,34.7536)">
   <g transform="matrix(0,-1,1,0,0,0)">
    <g  id="silkscreen">
     <text x="7.2" y="6.48" fill="#ffffff" font-family="OCRA"  text-anchor="middle" id="label" stroke-width="0" font-size="7.2">Li</text>
    </g>
   </g>
  </g>
 </g>
 <g partID="495092">
  <g transform="translate(121.698,96.48)">
   <g transform="matrix(0,-1,1,0,0,0)">
    <g  id="silkscreen">
     <line  stroke="white" y1="0.72" stroke-width="0.72" x1="0.72" y2="51.12" x2="0.72"/>
     <line  stroke="white" y1="51.12" stroke-width="0.72" x1="0.72" y2="51.12" x2="29.52"/>
     <line  stroke="white" y1="51.12" stroke-width="0.72" x1="29.52" y2="0.72" x2="29.52"/>
     <line  stroke="white" y1="0.72" stroke-width="0.72" x1="0.72" y2="0.72" x2="11.52"/>
     <line  stroke="white" y1="0.72" stroke-width="0.72" x1="18.72" y2="0.72" x2="29.52"/>
    </g>
   </g>
  </g>
 </g>
 <g partID="498802">
  <g transform="translate(128.898,60.48)">
   <g transform="matrix(0,-1,1,0,0,0)">
    <g  id="silkscreen">
     <line  stroke="white" y1="0.72" stroke-width="0.72" x1="0.72" y2="65.52" x2="0.72"/>
     <line  stroke="white" y1="65.52" stroke-width="0.72" x1="0.72" y2="65.52" x2="29.52"/>
     <line  stroke="white" y1="65.52" stroke-width="0.72" x1="29.52" y2="0.72" x2="29.52"/>
     <line  stroke="white" y1="0.72" stroke-width="0.72" x1="0.72" y2="0.72" x2="11.52"/>
     <line  stroke="white" y1="0.72" stroke-width="0.72" x1="18.72" y2="0.72" x2="29.52"/>
    </g>
   </g>
  </g>
 </g>
 <g id="partLabel" partID="489310">
  <g transform="translate(64.5282,47.4921)">
   <g fill="#ffffff" font-family="'OCRA'" stroke="none" font-style="normal" fill-opacity="1" font-weight="normal" id="silkscreenLabel" font-size="5">
    <text x="0" y="3.75">PR</text>
   </g>
  </g>
 </g>
 <g id="partLabel" partID="489240">
  <g transform="translate(207.376,47.9985)">
   <g fill="#ffffff" font-family="'OCRA'" stroke="none" font-style="normal" fill-opacity="1" font-weight="normal" id="silkscreenLabel" font-size="5">
    <text x="0" y="3.75">PR</text>
   </g>
  </g>
 </g>
 <g id="partLabel" partID="498800">
  <g transform="translate(154.652,44.9102)">
   <g fill="#ffffff" font-family="'OCRA'" stroke="none" font-style="normal" fill-opacity="1" font-weight="normal" id="silkscreenLabel" font-size="5">
    <text x="0" y="3.75">IC2</text>
   </g>
  </g>
 </g>
 <g id="partLabel" partID="500260">
  <g transform="translate(150.081,104.783)">
   <g fill="#ffffff" font-family="'OCRA'" stroke="none" font-style="normal" fill-opacity="1" font-weight="normal" id="silkscreenLabel" font-size="5">
    <text x="0" y="3.75">R13</text>
   </g>
  </g>
 </g>
 <g id="partLabel" partID="495090">
  <g transform="translate(141.333,79.0292)">
   <g fill="#ffffff" font-family="'OCRA'" stroke="none" font-style="normal" fill-opacity="1" font-weight="normal" id="silkscreenLabel" font-size="5">
    <text x="0" y="3.75">IC1</text>
   </g>
  </g>
 </g>
 <g id="partLabel" partID="489280">
  <g transform="translate(97.1508,68.1343)">
   <g fill="#ffffff" font-family="'OCRA'" stroke="none" font-style="normal" fill-opacity="1" font-weight="normal" id="silkscreenLabel" font-size="5">
    <text x="0" y="3.75">R14</text>
   </g>
  </g>
 </g>
 <g id="partLabel" partID="489270">
  <g transform="translate(109.234,18.3535)">
   <g fill="#ffffff" font-family="'OCRA'" stroke="none" font-style="normal" fill-opacity="1" font-weight="normal" id="silkscreenLabel" font-size="5">
    <text x="0" y="3.75">Serial</text>
   </g>
  </g>
 </g>
 <g id="partLabel" partID="489200">
  <g transform="translate(89.7346,38.9018)">
   <g fill="#ffffff" font-family="'OCRA'" stroke="none" font-style="normal" fill-opacity="1" font-weight="normal" id="silkscreenLabel" font-size="5">
    <text x="0" y="3.75">R12</text>
   </g>
  </g>
 </g>
 <g id="partLabel" partID="489290">
  <g transform="translate(189.264,10.7092)">
   <g fill="#ffffff" font-family="'OCRA'" stroke="none" font-style="normal" fill-opacity="1" font-weight="normal" id="silkscreenLabel" font-size="5">
    <text x="0" y="3.75">LEDs</text>
   </g>
  </g>
 </g>
 <g id="partLabel" partID="489170">
  <g transform="translate(93.9292,89.9505)">
   <g fill="#ffffff" font-family="'OCRA'" stroke="none" font-style="normal" fill-opacity="1" font-weight="normal" id="silkscreenLabel" font-size="5">
    <text x="0" y="3.75">R11</text>
   </g>
  </g>
 </g>
 <g id="partLabel" partID="489300">
  <g transform="translate(65.1292,83.1829)">
   <g fill="#ffffff" font-family="'OCRA'" stroke="none" font-style="normal" fill-opacity="1" font-weight="normal" id="silkscreenLabel" font-size="5">
    <text x="0" y="3.75">R15</text>
   </g>
  </g>
 </g>
 <g id="partLabel" partID="489190">
  <g transform="translate(86.1562,64.9303)">
   <g fill="#ffffff" font-family="'OCRA'" stroke="none" font-style="normal" fill-opacity="1" font-weight="normal" id="silkscreenLabel" font-size="5">
    <text x="0" y="3.75">D6</text>
   </g>
  </g>
 </g>
 <g id="partLabel" partID="489220">
  <g transform="translate(44.167,72.3465)">
   <g fill="#ffffff" font-family="'OCRA'" stroke="none" font-style="normal" fill-opacity="1" font-weight="normal" id="silkscreenLabel" font-size="5">
    <text x="0" y="3.75">C3</text>
   </g>
  </g>
 </g>
 <g id="partLabel" partID="489260">
  <g transform="translate(71.3238,64.9303)">
   <g fill="#ffffff" font-family="'OCRA'" stroke="none" font-style="normal" fill-opacity="1" font-weight="normal" id="silkscreenLabel" font-size="5">
    <text x="0" y="3.75">D8</text>
   </g>
  </g>
 </g>
 <g id="partLabel" partID="489150">
  <g transform="translate(149.864,111.983)">
   <g fill="#ffffff" font-family="'OCRA'" stroke="none" font-style="normal" fill-opacity="1" font-weight="normal" id="silkscreenLabel" font-size="5">
    <text x="0" y="3.75">R10</text>
   </g>
  </g>
 </g>
 <g id="partLabel" partID="489250">
  <g transform="translate(39.4211,110.368)">
   <g fill="#ffffff" font-family="'OCRA'" stroke="none" font-style="normal" fill-opacity="1" font-weight="normal" id="silkscreenLabel" font-size="5">
    <text x="0" y="3.75">D7</text>
   </g>
  </g>
 </g>
 <g id="partLabel" partID="480420">
  <g transform="translate(16.773,64.5233)">
   <g fill="#ffffff" font-family="'OCRA'" stroke="none" font-style="normal" fill-opacity="1" font-weight="normal" id="silkscreenLabel" font-size="5">
    <text x="0" y="3.75">U1</text>
   </g>
  </g>
 </g>
 <g id="partLabel" partID="483010">
  <g transform="translate(36.5838,68.6324)">
   <g fill="#ffffff" font-family="'OCRA'" stroke="none" font-style="normal" fill-opacity="1" font-weight="normal" id="silkscreenLabel" font-size="5">
    <text x="0" y="3.75">C2</text>
   </g>
  </g>
 </g>
 <g id="partLabel" partID="489180">
  <g transform="translate(39.4211,92.7897)">
   <g fill="#ffffff" font-family="'OCRA'" stroke="none" font-style="normal" fill-opacity="1" font-weight="normal" id="silkscreenLabel" font-size="5">
    <text x="0" y="3.75">D5</text>
   </g>
  </g>
 </g>
</svg>
