M48
M72,TZ
T10C0.038000
T11C0.042000
T12C0.035000
T13C0.040000
%
T10
X2.929090Y1.243617
X0.950256Y1.250650
X1.648340Y1.248983
X1.648340Y1.348983
X1.648340Y1.448983
X2.550260Y1.650650
X2.450260Y1.650650
X2.350260Y1.650650
X2.250260Y1.650650
X2.150260Y1.650650
X2.050260Y1.650650
X1.950260Y1.650650
X1.850260Y1.650650
X1.750260Y1.650650
T11
X0.250256Y0.550650
X0.250256Y0.650650
X0.250256Y0.750650
T12
X2.650260Y1.350650
X2.650260Y1.050650
X2.550260Y1.350650
X2.550260Y1.050650
X2.450260Y1.350650
X2.450260Y1.050650
X2.350260Y1.350650
X2.350260Y1.050650
X2.250260Y1.350650
X2.250260Y1.050650
X2.150260Y1.350650
X2.150260Y1.050650
X2.050260Y1.350650
X2.050260Y1.050650
X1.950260Y1.350650
X1.950260Y1.050650
X1.850260Y1.350650
X1.850260Y1.050650
X2.350260Y0.850650
X2.350260Y0.550650
X2.250260Y0.850650
X2.250260Y0.550650
X2.150260Y0.850650
X2.150260Y0.550650
X2.050260Y0.850650
X2.050260Y0.550650
X1.950260Y0.850650
X1.950260Y0.550650
X1.850260Y0.850650
X1.850260Y0.550650
X1.750260Y0.850650
X1.750260Y0.550650
X1.450260Y1.450650
X1.450260Y1.050650
X1.550260Y1.050650
X1.550260Y0.650650
X2.350260Y0.350650
X1.950260Y0.350650
X2.350260Y0.250650
X1.950260Y0.250650
X0.550256Y0.750650
X0.550256Y0.650650
X0.750256Y0.650650
X0.750256Y0.950650
X0.850256Y0.850650
X0.850256Y0.450650
X1.250260Y0.750650
X1.250260Y0.350650
X1.150260Y1.050650
X1.150260Y0.750650
X0.950256Y1.050650
X0.950256Y0.750650
X0.750256Y0.350650
X0.450256Y0.350650
X0.750256Y0.450650
X0.450256Y0.450650
T13
X1.150260Y1.550650
X0.950256Y1.550650
X0.750256Y1.550650
T00
M30
