G04 MADE WITH FRITZING*
G04 WWW.FRITZING.ORG*
G04 SINGLE SIDED*
G04 HOLES NOT PLATED*
G04 CONTOUR ON CENTER OF CONTOUR VECTOR*
%ASAXBY*%
%FSLAX23Y23*%
%MOIN*%
%OFA0B0*%
%SFA1.0B1.0*%
%ADD10C,0.084000*%
%ADD11C,0.088000*%
%ADD12C,0.081000*%
%ADD13C,0.086000*%
%ADD14R,0.088000X0.088000*%
%ADD15R,0.081000X0.081000*%
%ADD16R,0.086000X0.086000*%
%LNMASK0*%
G90*
G70*
G54D10*
X1750Y1651D03*
X1850Y1651D03*
X1950Y1651D03*
X2050Y1651D03*
X2150Y1651D03*
X2250Y1651D03*
X2350Y1651D03*
X2450Y1651D03*
X2550Y1651D03*
X1648Y1449D03*
X1648Y1349D03*
X1648Y1249D03*
G54D11*
X250Y751D03*
X250Y651D03*
X250Y551D03*
G54D12*
X450Y451D03*
X750Y451D03*
X450Y351D03*
X750Y351D03*
X950Y751D03*
X950Y1051D03*
X1150Y751D03*
X1150Y1051D03*
X1250Y351D03*
X1250Y751D03*
X850Y451D03*
X850Y851D03*
X750Y951D03*
X750Y651D03*
X550Y651D03*
X550Y751D03*
X1950Y251D03*
X2350Y251D03*
X1950Y351D03*
X2350Y351D03*
X1550Y651D03*
X1550Y1051D03*
X1450Y1051D03*
X1450Y1451D03*
G54D10*
X950Y1251D03*
X2929Y1244D03*
G54D13*
X750Y1551D03*
X950Y1551D03*
X1150Y1551D03*
G54D12*
X1750Y551D03*
X1750Y851D03*
X1850Y551D03*
X1850Y851D03*
X1950Y551D03*
X1950Y851D03*
X2050Y551D03*
X2050Y851D03*
X2150Y551D03*
X2150Y851D03*
X2250Y551D03*
X2250Y851D03*
X2350Y551D03*
X2350Y851D03*
X1850Y1051D03*
X1850Y1351D03*
X1950Y1051D03*
X1950Y1351D03*
X2050Y1051D03*
X2050Y1351D03*
X2150Y1051D03*
X2150Y1351D03*
X2250Y1051D03*
X2250Y1351D03*
X2350Y1051D03*
X2350Y1351D03*
X2450Y1051D03*
X2450Y1351D03*
X2550Y1051D03*
X2550Y1351D03*
X2650Y1051D03*
X2650Y1351D03*
G54D14*
X250Y751D03*
G54D15*
X450Y451D03*
X450Y351D03*
X950Y751D03*
X1150Y751D03*
X1250Y351D03*
X850Y451D03*
X750Y951D03*
X550Y651D03*
X1950Y251D03*
X1950Y351D03*
X1550Y651D03*
X1450Y1051D03*
G54D16*
X750Y1551D03*
G54D15*
X1750Y551D03*
X1850Y1051D03*
G04 End of Mask0*
M02*