G04 MADE WITH FRITZING*
G04 WWW.FRITZING.ORG*
G04 SINGLE SIDED*
G04 HOLES NOT PLATED*
G04 CONTOUR ON CENTER OF CONTOUR VECTOR*
%ASAXBY*%
%FSLAX23Y23*%
%MOIN*%
%OFA0B0*%
%SFA1.0B1.0*%
%ADD10C,0.210000X0.19*%
%ADD11C,0.010000*%
%ADD12C,0.005000*%
%LNSILK1*%
G90*
G70*
G54D10*
X550Y701D03*
G54D11*
X1700Y1601D02*
X2600Y1601D01*
D02*
X2600Y1601D02*
X2600Y1701D01*
D02*
X2600Y1701D02*
X1700Y1701D01*
D02*
X1700Y1701D02*
X1700Y1601D01*
G54D12*
D02*
X1735Y1601D02*
X1700Y1636D01*
G54D11*
D02*
X1598Y1499D02*
X1598Y1199D01*
D02*
X1598Y1199D02*
X1698Y1199D01*
D02*
X1698Y1199D02*
X1698Y1499D01*
D02*
X1698Y1499D02*
X1598Y1499D01*
G54D12*
D02*
X1598Y1464D02*
X1633Y1499D01*
G54D11*
D02*
X370Y851D02*
X370Y451D01*
D02*
X370Y451D02*
X190Y451D01*
D02*
X190Y451D02*
X190Y851D01*
D02*
X190Y851D02*
X370Y851D01*
D02*
X370Y851D02*
X370Y451D01*
D02*
X370Y451D02*
X310Y451D01*
D02*
X310Y451D02*
X310Y851D01*
D02*
X310Y851D02*
X370Y851D01*
G54D12*
D02*
X370Y721D02*
X310Y721D01*
D02*
X370Y581D02*
X310Y581D01*
G54D11*
D02*
X488Y450D02*
X525Y450D01*
D02*
X675Y450D02*
X713Y450D01*
D02*
X525Y475D02*
X675Y475D01*
D02*
X675Y475D02*
X675Y425D01*
D02*
X675Y425D02*
X525Y425D01*
D02*
X525Y425D02*
X525Y475D01*
D02*
X488Y350D02*
X525Y350D01*
D02*
X675Y350D02*
X713Y350D01*
D02*
X525Y375D02*
X675Y375D01*
D02*
X675Y375D02*
X675Y325D01*
D02*
X675Y325D02*
X525Y325D01*
D02*
X525Y325D02*
X525Y375D01*
D02*
X951Y788D02*
X951Y825D01*
D02*
X951Y975D02*
X951Y1013D01*
D02*
X926Y825D02*
X926Y975D01*
D02*
X926Y975D02*
X976Y975D01*
D02*
X976Y975D02*
X976Y825D01*
D02*
X976Y825D02*
X926Y825D01*
D02*
X1151Y788D02*
X1151Y825D01*
D02*
X1151Y975D02*
X1151Y1013D01*
D02*
X1126Y825D02*
X1126Y975D01*
D02*
X1126Y975D02*
X1176Y975D01*
D02*
X1176Y975D02*
X1176Y825D01*
D02*
X1176Y825D02*
X1126Y825D01*
D02*
X1250Y388D02*
X1250Y460D01*
D02*
X1250Y660D02*
X1250Y713D01*
D02*
X1217Y460D02*
X1217Y660D01*
D02*
X1217Y660D02*
X1283Y660D01*
D02*
X1283Y660D02*
X1283Y460D01*
D02*
X1283Y460D02*
X1217Y460D01*
D02*
X850Y488D02*
X850Y560D01*
D02*
X850Y760D02*
X850Y813D01*
D02*
X817Y560D02*
X817Y760D01*
D02*
X817Y760D02*
X883Y760D01*
D02*
X883Y760D02*
X883Y560D01*
D02*
X883Y560D02*
X817Y560D01*
D02*
X750Y913D02*
X750Y876D01*
D02*
X750Y726D02*
X750Y688D01*
D02*
X775Y876D02*
X775Y726D01*
D02*
X775Y726D02*
X725Y726D01*
D02*
X725Y726D02*
X725Y876D01*
D02*
X725Y876D02*
X775Y876D01*
D02*
X1988Y251D02*
X2060Y251D01*
D02*
X2260Y251D02*
X2313Y251D01*
D02*
X2060Y284D02*
X2260Y284D01*
D02*
X2260Y284D02*
X2260Y218D01*
D02*
X2260Y218D02*
X2060Y218D01*
D02*
X2060Y218D02*
X2060Y284D01*
D02*
X1988Y351D02*
X2060Y351D01*
D02*
X2260Y351D02*
X2313Y351D01*
D02*
X2060Y384D02*
X2260Y384D01*
D02*
X2260Y384D02*
X2260Y318D01*
D02*
X2260Y318D02*
X2060Y318D01*
D02*
X2060Y318D02*
X2060Y384D01*
D02*
X1550Y688D02*
X1550Y760D01*
D02*
X1550Y960D02*
X1550Y1013D01*
D02*
X1517Y760D02*
X1517Y960D01*
D02*
X1517Y960D02*
X1583Y960D01*
D02*
X1583Y960D02*
X1583Y760D01*
D02*
X1583Y760D02*
X1517Y760D01*
D02*
X1450Y1088D02*
X1450Y1160D01*
D02*
X1450Y1360D02*
X1450Y1413D01*
D02*
X1417Y1160D02*
X1417Y1360D01*
D02*
X1417Y1360D02*
X1483Y1360D01*
D02*
X1483Y1360D02*
X1483Y1160D01*
D02*
X1483Y1160D02*
X1417Y1160D01*
D02*
X900Y1301D02*
X900Y1201D01*
D02*
X900Y1201D02*
X1000Y1201D01*
D02*
X1000Y1201D02*
X1000Y1301D01*
D02*
X1000Y1301D02*
X900Y1301D01*
G54D12*
D02*
X900Y1266D02*
X935Y1301D01*
G54D11*
D02*
X2879Y1294D02*
X2879Y1194D01*
D02*
X2879Y1194D02*
X2979Y1194D01*
D02*
X2979Y1194D02*
X2979Y1294D01*
D02*
X2979Y1294D02*
X2879Y1294D01*
G54D12*
D02*
X2879Y1259D02*
X2914Y1294D01*
G54D11*
D02*
X645Y1371D02*
X1255Y1371D01*
G54D12*
D02*
X1255Y1731D02*
X645Y1731D01*
G54D11*
D02*
X1700Y501D02*
X2400Y501D01*
D02*
X2400Y501D02*
X2400Y901D01*
D02*
X2400Y901D02*
X1700Y901D01*
D02*
X1700Y501D02*
X1700Y651D01*
D02*
X1700Y751D02*
X1700Y901D01*
D02*
X1800Y1001D02*
X2700Y1001D01*
D02*
X2700Y1001D02*
X2700Y1401D01*
D02*
X2700Y1401D02*
X1800Y1401D01*
D02*
X1800Y1001D02*
X1800Y1151D01*
D02*
X1800Y1251D02*
X1800Y1401D01*
G36*
X640Y1772D02*
X640Y1768D01*
X650Y1768D01*
X650Y1772D01*
X640Y1772D01*
G37*
D02*
G36*
X1250Y1772D02*
X1250Y1768D01*
X1260Y1768D01*
X1260Y1772D01*
X1250Y1772D01*
G37*
D02*
G36*
X4Y1768D02*
X4Y1767D01*
X3072Y1767D01*
X3072Y1768D01*
X4Y1768D01*
G37*
D02*
G36*
X4Y1768D02*
X4Y1767D01*
X3072Y1767D01*
X3072Y1768D01*
X4Y1768D01*
G37*
D02*
G36*
X4Y1767D02*
X4Y1760D01*
X3066Y1760D01*
X3066Y5D01*
X3072Y5D01*
X3072Y1767D01*
X4Y1767D01*
G37*
D02*
G36*
X4Y1760D02*
X4Y5D01*
X12Y5D01*
X12Y1760D01*
X4Y1760D01*
G37*
D02*
G36*
X640Y1760D02*
X640Y1371D01*
X650Y1371D01*
X650Y1760D01*
X640Y1760D01*
G37*
D02*
G36*
X1250Y1760D02*
X1250Y1371D01*
X1260Y1371D01*
X1260Y1760D01*
X1250Y1760D01*
G37*
D02*
G36*
X2152Y78D02*
X2152Y77D01*
X2150Y77D01*
X2150Y76D01*
X2148Y76D01*
X2148Y75D01*
X2147Y75D01*
X2147Y74D01*
X2146Y74D01*
X2146Y73D01*
X2145Y73D01*
X2145Y72D01*
X2176Y72D01*
X2176Y73D01*
X2175Y73D01*
X2175Y74D01*
X2174Y74D01*
X2174Y75D01*
X2173Y75D01*
X2173Y76D01*
X2171Y76D01*
X2171Y77D01*
X2169Y77D01*
X2169Y78D01*
X2152Y78D01*
G37*
D02*
G36*
X2179Y78D02*
X2179Y77D01*
X2178Y77D01*
X2178Y76D01*
X2177Y76D01*
X2177Y72D01*
X2186Y72D01*
X2186Y76D01*
X2185Y76D01*
X2185Y77D01*
X2184Y77D01*
X2184Y78D01*
X2179Y78D01*
G37*
D02*
G36*
X2144Y72D02*
X2144Y71D01*
X2186Y71D01*
X2186Y72D01*
X2144Y72D01*
G37*
D02*
G36*
X2144Y72D02*
X2144Y71D01*
X2186Y71D01*
X2186Y72D01*
X2144Y72D01*
G37*
D02*
G36*
X2143Y71D02*
X2143Y70D01*
X2142Y70D01*
X2142Y69D01*
X2165Y69D01*
X2165Y68D01*
X2167Y68D01*
X2167Y67D01*
X2168Y67D01*
X2168Y66D01*
X2170Y66D01*
X2170Y65D01*
X2171Y65D01*
X2171Y64D01*
X2172Y64D01*
X2172Y63D01*
X2173Y63D01*
X2173Y62D01*
X2174Y62D01*
X2174Y61D01*
X2175Y61D01*
X2175Y60D01*
X2176Y60D01*
X2176Y59D01*
X2177Y59D01*
X2177Y48D01*
X2176Y48D01*
X2176Y46D01*
X2175Y46D01*
X2175Y45D01*
X2173Y45D01*
X2173Y44D01*
X2172Y44D01*
X2172Y43D01*
X2171Y43D01*
X2171Y42D01*
X2170Y42D01*
X2170Y41D01*
X2169Y41D01*
X2169Y40D01*
X2167Y40D01*
X2167Y39D01*
X2166Y39D01*
X2166Y38D01*
X2186Y38D01*
X2186Y71D01*
X2143Y71D01*
G37*
D02*
G36*
X2141Y69D02*
X2141Y67D01*
X2140Y67D01*
X2140Y64D01*
X2139Y64D01*
X2139Y43D01*
X2140Y43D01*
X2140Y40D01*
X2141Y40D01*
X2141Y38D01*
X2155Y38D01*
X2155Y39D01*
X2154Y39D01*
X2154Y40D01*
X2152Y40D01*
X2152Y41D01*
X2151Y41D01*
X2151Y42D01*
X2150Y42D01*
X2150Y43D01*
X2149Y43D01*
X2149Y63D01*
X2150Y63D01*
X2150Y65D01*
X2151Y65D01*
X2151Y66D01*
X2153Y66D01*
X2153Y67D01*
X2154Y67D01*
X2154Y68D01*
X2156Y68D01*
X2156Y69D01*
X2141Y69D01*
G37*
D02*
G36*
X2142Y38D02*
X2142Y37D01*
X2186Y37D01*
X2186Y38D01*
X2142Y38D01*
G37*
D02*
G36*
X2142Y38D02*
X2142Y37D01*
X2186Y37D01*
X2186Y38D01*
X2142Y38D01*
G37*
D02*
G36*
X2143Y37D02*
X2143Y36D01*
X2144Y36D01*
X2144Y35D01*
X2145Y35D01*
X2145Y34D01*
X2177Y34D01*
X2177Y20D01*
X2176Y20D01*
X2176Y18D01*
X2175Y18D01*
X2175Y17D01*
X2174Y17D01*
X2174Y16D01*
X2172Y16D01*
X2172Y15D01*
X2171Y15D01*
X2171Y14D01*
X2147Y14D01*
X2147Y13D01*
X2145Y13D01*
X2145Y11D01*
X2144Y11D01*
X2144Y7D01*
X2145Y7D01*
X2145Y6D01*
X2146Y6D01*
X2146Y5D01*
X2174Y5D01*
X2174Y6D01*
X2176Y6D01*
X2176Y7D01*
X2178Y7D01*
X2178Y8D01*
X2179Y8D01*
X2179Y9D01*
X2180Y9D01*
X2180Y10D01*
X2181Y10D01*
X2181Y11D01*
X2182Y11D01*
X2182Y12D01*
X2183Y12D01*
X2183Y13D01*
X2184Y13D01*
X2184Y14D01*
X2185Y14D01*
X2185Y16D01*
X2186Y16D01*
X2186Y37D01*
X2143Y37D01*
G37*
D02*
G36*
X2146Y34D02*
X2146Y33D01*
X2147Y33D01*
X2147Y32D01*
X2148Y32D01*
X2148Y31D01*
X2150Y31D01*
X2150Y30D01*
X2152Y30D01*
X2152Y29D01*
X2157Y29D01*
X2157Y28D01*
X2164Y28D01*
X2164Y29D01*
X2169Y29D01*
X2169Y30D01*
X2171Y30D01*
X2171Y31D01*
X2173Y31D01*
X2173Y32D01*
X2174Y32D01*
X2174Y33D01*
X2175Y33D01*
X2175Y34D01*
X2146Y34D01*
G37*
D02*
G36*
X4Y5D02*
X4Y4D01*
X3072Y4D01*
X3072Y5D01*
X4Y5D01*
G37*
D02*
G36*
X4Y5D02*
X4Y4D01*
X3072Y4D01*
X3072Y5D01*
X4Y5D01*
G37*
D02*
G36*
X4Y5D02*
X4Y4D01*
X3072Y4D01*
X3072Y5D01*
X4Y5D01*
G37*
D02*
G36*
X4Y4D02*
X4Y-1D01*
X3072Y-1D01*
X3072Y4D01*
X4Y4D01*
G37*
D02*
G36*
X2638Y1682D02*
X2638Y1681D01*
X2636Y1681D01*
X2636Y1679D01*
X2635Y1679D01*
X2635Y1630D01*
X2666Y1630D01*
X2666Y1631D01*
X2667Y1631D01*
X2667Y1632D01*
X2668Y1632D01*
X2668Y1635D01*
X2667Y1635D01*
X2667Y1636D01*
X2666Y1636D01*
X2666Y1637D01*
X2642Y1637D01*
X2642Y1680D01*
X2641Y1680D01*
X2641Y1681D01*
X2639Y1681D01*
X2639Y1682D01*
X2638Y1682D01*
G37*
D02*
G36*
X2686Y1682D02*
X2686Y1681D01*
X2685Y1681D01*
X2685Y1630D01*
X2716Y1630D01*
X2716Y1631D01*
X2717Y1631D01*
X2717Y1632D01*
X2718Y1632D01*
X2718Y1635D01*
X2717Y1635D01*
X2717Y1636D01*
X2716Y1636D01*
X2716Y1637D01*
X2692Y1637D01*
X2692Y1653D01*
X2704Y1653D01*
X2704Y1654D01*
X2705Y1654D01*
X2705Y1658D01*
X2704Y1658D01*
X2704Y1659D01*
X2692Y1659D01*
X2692Y1675D01*
X2717Y1675D01*
X2717Y1676D01*
X2718Y1676D01*
X2718Y1680D01*
X2717Y1680D01*
X2717Y1681D01*
X2715Y1681D01*
X2715Y1682D01*
X2686Y1682D01*
G37*
D02*
G36*
X2738Y1682D02*
X2738Y1681D01*
X2736Y1681D01*
X2736Y1679D01*
X2735Y1679D01*
X2735Y1677D01*
X2736Y1677D01*
X2736Y1676D01*
X2737Y1676D01*
X2737Y1675D01*
X2752Y1675D01*
X2752Y1674D01*
X2754Y1674D01*
X2754Y1672D01*
X2755Y1672D01*
X2755Y1670D01*
X2756Y1670D01*
X2756Y1668D01*
X2757Y1668D01*
X2757Y1666D01*
X2758Y1666D01*
X2758Y1664D01*
X2759Y1664D01*
X2759Y1662D01*
X2760Y1662D01*
X2760Y1660D01*
X2761Y1660D01*
X2761Y1652D01*
X2760Y1652D01*
X2760Y1650D01*
X2759Y1650D01*
X2759Y1648D01*
X2758Y1648D01*
X2758Y1646D01*
X2757Y1646D01*
X2757Y1644D01*
X2756Y1644D01*
X2756Y1642D01*
X2755Y1642D01*
X2755Y1640D01*
X2754Y1640D01*
X2754Y1638D01*
X2753Y1638D01*
X2753Y1637D01*
X2761Y1637D01*
X2761Y1639D01*
X2762Y1639D01*
X2762Y1641D01*
X2763Y1641D01*
X2763Y1643D01*
X2764Y1643D01*
X2764Y1645D01*
X2765Y1645D01*
X2765Y1647D01*
X2766Y1647D01*
X2766Y1649D01*
X2767Y1649D01*
X2767Y1652D01*
X2768Y1652D01*
X2768Y1660D01*
X2767Y1660D01*
X2767Y1663D01*
X2766Y1663D01*
X2766Y1665D01*
X2765Y1665D01*
X2765Y1667D01*
X2764Y1667D01*
X2764Y1669D01*
X2763Y1669D01*
X2763Y1671D01*
X2762Y1671D01*
X2762Y1673D01*
X2761Y1673D01*
X2761Y1675D01*
X2760Y1675D01*
X2760Y1676D01*
X2759Y1676D01*
X2759Y1678D01*
X2758Y1678D01*
X2758Y1679D01*
X2757Y1679D01*
X2757Y1680D01*
X2755Y1680D01*
X2755Y1681D01*
X2752Y1681D01*
X2752Y1682D01*
X2738Y1682D01*
G37*
D02*
G36*
X2742Y1675D02*
X2742Y1637D01*
X2748Y1637D01*
X2748Y1675D01*
X2742Y1675D01*
G37*
D02*
G36*
X2737Y1637D02*
X2737Y1636D01*
X2760Y1636D01*
X2760Y1637D01*
X2737Y1637D01*
G37*
D02*
G36*
X2737Y1637D02*
X2737Y1636D01*
X2760Y1636D01*
X2760Y1637D01*
X2737Y1637D01*
G37*
D02*
G36*
X2736Y1636D02*
X2736Y1635D01*
X2735Y1635D01*
X2735Y1632D01*
X2736Y1632D01*
X2736Y1631D01*
X2737Y1631D01*
X2737Y1630D01*
X2753Y1630D01*
X2753Y1631D01*
X2756Y1631D01*
X2756Y1632D01*
X2757Y1632D01*
X2757Y1633D01*
X2758Y1633D01*
X2758Y1634D01*
X2759Y1634D01*
X2759Y1635D01*
X2760Y1635D01*
X2760Y1636D01*
X2736Y1636D01*
G37*
D02*
G36*
X2793Y1668D02*
X2793Y1667D01*
X2790Y1667D01*
X2790Y1666D01*
X2789Y1666D01*
X2789Y1665D01*
X2788Y1665D01*
X2788Y1664D01*
X2787Y1664D01*
X2787Y1662D01*
X2786Y1662D01*
X2786Y1661D01*
X2810Y1661D01*
X2810Y1660D01*
X2811Y1660D01*
X2811Y1659D01*
X2813Y1659D01*
X2813Y1658D01*
X2815Y1658D01*
X2815Y1659D01*
X2817Y1659D01*
X2817Y1664D01*
X2816Y1664D01*
X2816Y1665D01*
X2815Y1665D01*
X2815Y1666D01*
X2813Y1666D01*
X2813Y1667D01*
X2810Y1667D01*
X2810Y1668D01*
X2793Y1668D01*
G37*
D02*
G36*
X2786Y1661D02*
X2786Y1656D01*
X2787Y1656D01*
X2787Y1654D01*
X2788Y1654D01*
X2788Y1653D01*
X2789Y1653D01*
X2789Y1652D01*
X2791Y1652D01*
X2791Y1651D01*
X2793Y1651D01*
X2793Y1650D01*
X2796Y1650D01*
X2796Y1649D01*
X2798Y1649D01*
X2798Y1648D01*
X2800Y1648D01*
X2800Y1647D01*
X2802Y1647D01*
X2802Y1646D01*
X2805Y1646D01*
X2805Y1645D01*
X2807Y1645D01*
X2807Y1644D01*
X2809Y1644D01*
X2809Y1643D01*
X2811Y1643D01*
X2811Y1638D01*
X2810Y1638D01*
X2810Y1637D01*
X2818Y1637D01*
X2818Y1643D01*
X2817Y1643D01*
X2817Y1646D01*
X2816Y1646D01*
X2816Y1647D01*
X2815Y1647D01*
X2815Y1648D01*
X2814Y1648D01*
X2814Y1649D01*
X2812Y1649D01*
X2812Y1650D01*
X2810Y1650D01*
X2810Y1651D01*
X2808Y1651D01*
X2808Y1652D01*
X2805Y1652D01*
X2805Y1653D01*
X2803Y1653D01*
X2803Y1654D01*
X2801Y1654D01*
X2801Y1655D01*
X2799Y1655D01*
X2799Y1656D01*
X2796Y1656D01*
X2796Y1657D01*
X2794Y1657D01*
X2794Y1658D01*
X2793Y1658D01*
X2793Y1661D01*
X2786Y1661D01*
G37*
D02*
G36*
X2788Y1640D02*
X2788Y1639D01*
X2786Y1639D01*
X2786Y1638D01*
X2785Y1638D01*
X2785Y1637D01*
X2793Y1637D01*
X2793Y1638D01*
X2791Y1638D01*
X2791Y1639D01*
X2790Y1639D01*
X2790Y1640D01*
X2788Y1640D01*
G37*
D02*
G36*
X2785Y1637D02*
X2785Y1636D01*
X2817Y1636D01*
X2817Y1637D01*
X2785Y1637D01*
G37*
D02*
G36*
X2785Y1637D02*
X2785Y1636D01*
X2817Y1636D01*
X2817Y1637D01*
X2785Y1637D01*
G37*
D02*
G36*
X2785Y1636D02*
X2785Y1635D01*
X2786Y1635D01*
X2786Y1634D01*
X2787Y1634D01*
X2787Y1633D01*
X2788Y1633D01*
X2788Y1632D01*
X2790Y1632D01*
X2790Y1631D01*
X2793Y1631D01*
X2793Y1630D01*
X2810Y1630D01*
X2810Y1631D01*
X2813Y1631D01*
X2813Y1632D01*
X2814Y1632D01*
X2814Y1633D01*
X2815Y1633D01*
X2815Y1634D01*
X2816Y1634D01*
X2816Y1635D01*
X2817Y1635D01*
X2817Y1636D01*
X2785Y1636D01*
G37*
D02*
G36*
X1685Y1578D02*
X1685Y1577D01*
X1684Y1577D01*
X1684Y1570D01*
X1685Y1570D01*
X1685Y1569D01*
X1692Y1569D01*
X1692Y1570D01*
X1693Y1570D01*
X1693Y1571D01*
X1694Y1571D01*
X1694Y1576D01*
X1693Y1576D01*
X1693Y1578D01*
X1685Y1578D01*
G37*
D02*
G36*
X1778Y1575D02*
X1778Y1573D01*
X1777Y1573D01*
X1777Y1571D01*
X1778Y1571D01*
X1778Y1570D01*
X1779Y1570D01*
X1779Y1569D01*
X1787Y1569D01*
X1787Y1531D01*
X1779Y1531D01*
X1779Y1530D01*
X1778Y1530D01*
X1778Y1529D01*
X1777Y1529D01*
X1777Y1526D01*
X1778Y1526D01*
X1778Y1525D01*
X1779Y1525D01*
X1779Y1524D01*
X1802Y1524D01*
X1802Y1525D01*
X1803Y1525D01*
X1803Y1530D01*
X1801Y1530D01*
X1801Y1531D01*
X1794Y1531D01*
X1794Y1573D01*
X1793Y1573D01*
X1793Y1575D01*
X1778Y1575D01*
G37*
D02*
G36*
X1589Y1562D02*
X1589Y1561D01*
X1582Y1561D01*
X1582Y1560D01*
X1580Y1560D01*
X1580Y1559D01*
X1579Y1559D01*
X1579Y1558D01*
X1578Y1558D01*
X1578Y1557D01*
X1577Y1557D01*
X1577Y1556D01*
X1576Y1556D01*
X1576Y1555D01*
X1596Y1555D01*
X1596Y1554D01*
X1597Y1554D01*
X1597Y1553D01*
X1599Y1553D01*
X1599Y1552D01*
X1600Y1552D01*
X1600Y1545D01*
X1607Y1545D01*
X1607Y1552D01*
X1606Y1552D01*
X1606Y1555D01*
X1605Y1555D01*
X1605Y1556D01*
X1604Y1556D01*
X1604Y1557D01*
X1603Y1557D01*
X1603Y1558D01*
X1602Y1558D01*
X1602Y1559D01*
X1601Y1559D01*
X1601Y1560D01*
X1599Y1560D01*
X1599Y1561D01*
X1593Y1561D01*
X1593Y1562D01*
X1589Y1562D01*
G37*
D02*
G36*
X1575Y1555D02*
X1575Y1552D01*
X1574Y1552D01*
X1574Y1545D01*
X1581Y1545D01*
X1581Y1552D01*
X1582Y1552D01*
X1582Y1553D01*
X1584Y1553D01*
X1584Y1554D01*
X1585Y1554D01*
X1585Y1555D01*
X1575Y1555D01*
G37*
D02*
G36*
X1574Y1545D02*
X1574Y1544D01*
X1607Y1544D01*
X1607Y1545D01*
X1574Y1545D01*
G37*
D02*
G36*
X1574Y1545D02*
X1574Y1544D01*
X1607Y1544D01*
X1607Y1545D01*
X1574Y1545D01*
G37*
D02*
G36*
X1574Y1544D02*
X1574Y1533D01*
X1575Y1533D01*
X1575Y1531D01*
X1576Y1531D01*
X1576Y1530D01*
X1577Y1530D01*
X1577Y1529D01*
X1578Y1529D01*
X1578Y1528D01*
X1579Y1528D01*
X1579Y1527D01*
X1580Y1527D01*
X1580Y1526D01*
X1581Y1526D01*
X1581Y1525D01*
X1584Y1525D01*
X1584Y1524D01*
X1605Y1524D01*
X1605Y1525D01*
X1606Y1525D01*
X1606Y1526D01*
X1607Y1526D01*
X1607Y1529D01*
X1606Y1529D01*
X1606Y1530D01*
X1605Y1530D01*
X1605Y1531D01*
X1584Y1531D01*
X1584Y1532D01*
X1583Y1532D01*
X1583Y1533D01*
X1582Y1533D01*
X1582Y1534D01*
X1581Y1534D01*
X1581Y1538D01*
X1605Y1538D01*
X1605Y1539D01*
X1606Y1539D01*
X1606Y1540D01*
X1607Y1540D01*
X1607Y1544D01*
X1574Y1544D01*
G37*
D02*
G36*
X1625Y1561D02*
X1625Y1560D01*
X1624Y1560D01*
X1624Y1555D01*
X1631Y1555D01*
X1631Y1559D01*
X1630Y1559D01*
X1630Y1561D01*
X1625Y1561D01*
G37*
D02*
G36*
X1638Y1561D02*
X1638Y1560D01*
X1637Y1560D01*
X1637Y1559D01*
X1636Y1559D01*
X1636Y1558D01*
X1635Y1558D01*
X1635Y1557D01*
X1633Y1557D01*
X1633Y1556D01*
X1632Y1556D01*
X1632Y1555D01*
X1648Y1555D01*
X1648Y1554D01*
X1650Y1554D01*
X1650Y1548D01*
X1651Y1548D01*
X1651Y1547D01*
X1656Y1547D01*
X1656Y1548D01*
X1657Y1548D01*
X1657Y1554D01*
X1656Y1554D01*
X1656Y1557D01*
X1655Y1557D01*
X1655Y1558D01*
X1654Y1558D01*
X1654Y1559D01*
X1653Y1559D01*
X1653Y1560D01*
X1651Y1560D01*
X1651Y1561D01*
X1638Y1561D01*
G37*
D02*
G36*
X1624Y1555D02*
X1624Y1554D01*
X1641Y1554D01*
X1641Y1555D01*
X1624Y1555D01*
G37*
D02*
G36*
X1624Y1555D02*
X1624Y1554D01*
X1641Y1554D01*
X1641Y1555D01*
X1624Y1555D01*
G37*
D02*
G36*
X1624Y1554D02*
X1624Y1526D01*
X1625Y1526D01*
X1625Y1525D01*
X1626Y1525D01*
X1626Y1524D01*
X1629Y1524D01*
X1629Y1525D01*
X1630Y1525D01*
X1630Y1526D01*
X1631Y1526D01*
X1631Y1546D01*
X1632Y1546D01*
X1632Y1547D01*
X1633Y1547D01*
X1633Y1548D01*
X1634Y1548D01*
X1634Y1549D01*
X1635Y1549D01*
X1635Y1550D01*
X1637Y1550D01*
X1637Y1551D01*
X1638Y1551D01*
X1638Y1552D01*
X1639Y1552D01*
X1639Y1553D01*
X1640Y1553D01*
X1640Y1554D01*
X1624Y1554D01*
G37*
D02*
G36*
X1678Y1561D02*
X1678Y1559D01*
X1677Y1559D01*
X1677Y1557D01*
X1678Y1557D01*
X1678Y1556D01*
X1679Y1556D01*
X1679Y1555D01*
X1687Y1555D01*
X1687Y1531D01*
X1679Y1531D01*
X1679Y1530D01*
X1678Y1530D01*
X1678Y1528D01*
X1677Y1528D01*
X1677Y1526D01*
X1678Y1526D01*
X1678Y1525D01*
X1679Y1525D01*
X1679Y1524D01*
X1702Y1524D01*
X1702Y1525D01*
X1703Y1525D01*
X1703Y1527D01*
X1704Y1527D01*
X1704Y1528D01*
X1703Y1528D01*
X1703Y1530D01*
X1701Y1530D01*
X1701Y1531D01*
X1694Y1531D01*
X1694Y1559D01*
X1693Y1559D01*
X1693Y1561D01*
X1678Y1561D01*
G37*
D02*
G36*
X1732Y1561D02*
X1732Y1560D01*
X1731Y1560D01*
X1731Y1556D01*
X1732Y1556D01*
X1732Y1555D01*
X1748Y1555D01*
X1748Y1554D01*
X1749Y1554D01*
X1749Y1547D01*
X1756Y1547D01*
X1756Y1555D01*
X1755Y1555D01*
X1755Y1557D01*
X1754Y1557D01*
X1754Y1558D01*
X1753Y1558D01*
X1753Y1559D01*
X1752Y1559D01*
X1752Y1560D01*
X1750Y1560D01*
X1750Y1561D01*
X1732Y1561D01*
G37*
D02*
G36*
X1733Y1548D02*
X1733Y1547D01*
X1747Y1547D01*
X1747Y1548D01*
X1733Y1548D01*
G37*
D02*
G36*
X1730Y1547D02*
X1730Y1546D01*
X1756Y1546D01*
X1756Y1547D01*
X1730Y1547D01*
G37*
D02*
G36*
X1730Y1547D02*
X1730Y1546D01*
X1756Y1546D01*
X1756Y1547D01*
X1730Y1547D01*
G37*
D02*
G36*
X1728Y1546D02*
X1728Y1545D01*
X1727Y1545D01*
X1727Y1544D01*
X1726Y1544D01*
X1726Y1543D01*
X1725Y1543D01*
X1725Y1541D01*
X1748Y1541D01*
X1748Y1540D01*
X1749Y1540D01*
X1749Y1539D01*
X1750Y1539D01*
X1750Y1535D01*
X1749Y1535D01*
X1749Y1534D01*
X1748Y1534D01*
X1748Y1533D01*
X1746Y1533D01*
X1746Y1532D01*
X1744Y1532D01*
X1744Y1531D01*
X1757Y1531D01*
X1757Y1537D01*
X1756Y1537D01*
X1756Y1546D01*
X1728Y1546D01*
G37*
D02*
G36*
X1724Y1541D02*
X1724Y1531D01*
X1732Y1531D01*
X1732Y1532D01*
X1731Y1532D01*
X1731Y1540D01*
X1732Y1540D01*
X1732Y1541D01*
X1724Y1541D01*
G37*
D02*
G36*
X1725Y1531D02*
X1725Y1530D01*
X1757Y1530D01*
X1757Y1531D01*
X1725Y1531D01*
G37*
D02*
G36*
X1725Y1531D02*
X1725Y1530D01*
X1757Y1530D01*
X1757Y1531D01*
X1725Y1531D01*
G37*
D02*
G36*
X1725Y1530D02*
X1725Y1529D01*
X1726Y1529D01*
X1726Y1527D01*
X1750Y1527D01*
X1750Y1526D01*
X1751Y1526D01*
X1751Y1525D01*
X1752Y1525D01*
X1752Y1524D01*
X1755Y1524D01*
X1755Y1525D01*
X1756Y1525D01*
X1756Y1526D01*
X1757Y1526D01*
X1757Y1530D01*
X1725Y1530D01*
G37*
D02*
G36*
X1727Y1527D02*
X1727Y1526D01*
X1729Y1526D01*
X1729Y1525D01*
X1731Y1525D01*
X1731Y1524D01*
X1745Y1524D01*
X1745Y1525D01*
X1747Y1525D01*
X1747Y1526D01*
X1749Y1526D01*
X1749Y1527D01*
X1727Y1527D01*
G37*
D02*
G36*
X1528Y1575D02*
X1528Y1574D01*
X1527Y1574D01*
X1527Y1573D01*
X1526Y1573D01*
X1526Y1572D01*
X1525Y1572D01*
X1525Y1570D01*
X1524Y1570D01*
X1524Y1569D01*
X1549Y1569D01*
X1549Y1568D01*
X1550Y1568D01*
X1550Y1565D01*
X1551Y1565D01*
X1551Y1564D01*
X1552Y1564D01*
X1552Y1563D01*
X1555Y1563D01*
X1555Y1564D01*
X1556Y1564D01*
X1556Y1565D01*
X1557Y1565D01*
X1557Y1569D01*
X1556Y1569D01*
X1556Y1571D01*
X1555Y1571D01*
X1555Y1573D01*
X1554Y1573D01*
X1554Y1574D01*
X1552Y1574D01*
X1552Y1575D01*
X1528Y1575D01*
G37*
D02*
G36*
X1524Y1569D02*
X1524Y1566D01*
X1525Y1566D01*
X1525Y1564D01*
X1526Y1564D01*
X1526Y1562D01*
X1527Y1562D01*
X1527Y1561D01*
X1528Y1561D01*
X1528Y1560D01*
X1529Y1560D01*
X1529Y1558D01*
X1530Y1558D01*
X1530Y1557D01*
X1531Y1557D01*
X1531Y1556D01*
X1532Y1556D01*
X1532Y1555D01*
X1533Y1555D01*
X1533Y1553D01*
X1534Y1553D01*
X1534Y1552D01*
X1535Y1552D01*
X1535Y1551D01*
X1536Y1551D01*
X1536Y1550D01*
X1537Y1550D01*
X1537Y1548D01*
X1538Y1548D01*
X1538Y1547D01*
X1539Y1547D01*
X1539Y1546D01*
X1540Y1546D01*
X1540Y1544D01*
X1541Y1544D01*
X1541Y1543D01*
X1542Y1543D01*
X1542Y1542D01*
X1543Y1542D01*
X1543Y1541D01*
X1544Y1541D01*
X1544Y1539D01*
X1545Y1539D01*
X1545Y1538D01*
X1546Y1538D01*
X1546Y1537D01*
X1547Y1537D01*
X1547Y1535D01*
X1548Y1535D01*
X1548Y1534D01*
X1549Y1534D01*
X1549Y1533D01*
X1550Y1533D01*
X1550Y1531D01*
X1557Y1531D01*
X1557Y1534D01*
X1556Y1534D01*
X1556Y1536D01*
X1555Y1536D01*
X1555Y1537D01*
X1554Y1537D01*
X1554Y1538D01*
X1553Y1538D01*
X1553Y1540D01*
X1552Y1540D01*
X1552Y1541D01*
X1551Y1541D01*
X1551Y1542D01*
X1550Y1542D01*
X1550Y1544D01*
X1549Y1544D01*
X1549Y1545D01*
X1548Y1545D01*
X1548Y1546D01*
X1547Y1546D01*
X1547Y1547D01*
X1546Y1547D01*
X1546Y1549D01*
X1545Y1549D01*
X1545Y1550D01*
X1544Y1550D01*
X1544Y1551D01*
X1543Y1551D01*
X1543Y1553D01*
X1542Y1553D01*
X1542Y1554D01*
X1541Y1554D01*
X1541Y1555D01*
X1540Y1555D01*
X1540Y1556D01*
X1539Y1556D01*
X1539Y1558D01*
X1538Y1558D01*
X1538Y1559D01*
X1537Y1559D01*
X1537Y1560D01*
X1536Y1560D01*
X1536Y1562D01*
X1535Y1562D01*
X1535Y1563D01*
X1534Y1563D01*
X1534Y1564D01*
X1533Y1564D01*
X1533Y1565D01*
X1532Y1565D01*
X1532Y1567D01*
X1531Y1567D01*
X1531Y1569D01*
X1524Y1569D01*
G37*
D02*
G36*
X1525Y1536D02*
X1525Y1535D01*
X1524Y1535D01*
X1524Y1531D01*
X1531Y1531D01*
X1531Y1534D01*
X1530Y1534D01*
X1530Y1536D01*
X1525Y1536D01*
G37*
D02*
G36*
X1524Y1531D02*
X1524Y1530D01*
X1557Y1530D01*
X1557Y1531D01*
X1524Y1531D01*
G37*
D02*
G36*
X1524Y1531D02*
X1524Y1530D01*
X1557Y1530D01*
X1557Y1531D01*
X1524Y1531D01*
G37*
D02*
G36*
X1525Y1530D02*
X1525Y1528D01*
X1526Y1528D01*
X1526Y1527D01*
X1527Y1527D01*
X1527Y1526D01*
X1528Y1526D01*
X1528Y1525D01*
X1530Y1525D01*
X1530Y1524D01*
X1552Y1524D01*
X1552Y1525D01*
X1554Y1525D01*
X1554Y1526D01*
X1555Y1526D01*
X1555Y1527D01*
X1556Y1527D01*
X1556Y1529D01*
X1557Y1529D01*
X1557Y1530D01*
X1525Y1530D01*
G37*
D02*
G36*
X978Y1505D02*
X978Y1504D01*
X977Y1504D01*
X977Y1503D01*
X976Y1503D01*
X976Y1491D01*
X914Y1491D01*
X914Y1490D01*
X913Y1490D01*
X913Y1489D01*
X912Y1489D01*
X912Y1481D01*
X976Y1481D01*
X976Y1470D01*
X977Y1470D01*
X977Y1469D01*
X978Y1469D01*
X978Y1468D01*
X979Y1468D01*
X979Y1467D01*
X982Y1467D01*
X982Y1468D01*
X984Y1468D01*
X984Y1469D01*
X985Y1469D01*
X985Y1503D01*
X984Y1503D01*
X984Y1504D01*
X983Y1504D01*
X983Y1505D01*
X978Y1505D01*
G37*
D02*
G36*
X912Y1481D02*
X912Y1469D01*
X913Y1469D01*
X913Y1468D01*
X915Y1468D01*
X915Y1467D01*
X918Y1467D01*
X918Y1468D01*
X919Y1468D01*
X919Y1469D01*
X920Y1469D01*
X920Y1470D01*
X921Y1470D01*
X921Y1481D01*
X912Y1481D01*
G37*
D02*
G36*
X1181Y1502D02*
X1181Y1501D01*
X1179Y1501D01*
X1179Y1500D01*
X1178Y1500D01*
X1178Y1498D01*
X1177Y1498D01*
X1177Y1487D01*
X1135Y1487D01*
X1135Y1486D01*
X1134Y1486D01*
X1134Y1485D01*
X1133Y1485D01*
X1133Y1478D01*
X1177Y1478D01*
X1177Y1467D01*
X1178Y1467D01*
X1178Y1465D01*
X1180Y1465D01*
X1180Y1464D01*
X1185Y1464D01*
X1185Y1465D01*
X1186Y1465D01*
X1186Y1467D01*
X1187Y1467D01*
X1187Y1499D01*
X1186Y1499D01*
X1186Y1500D01*
X1185Y1500D01*
X1185Y1501D01*
X1183Y1501D01*
X1183Y1502D01*
X1181Y1502D01*
G37*
D02*
G36*
X1133Y1478D02*
X1133Y1467D01*
X1134Y1467D01*
X1134Y1465D01*
X1135Y1465D01*
X1135Y1464D01*
X1140Y1464D01*
X1140Y1465D01*
X1141Y1465D01*
X1141Y1466D01*
X1142Y1466D01*
X1142Y1468D01*
X1143Y1468D01*
X1143Y1478D01*
X1133Y1478D01*
G37*
D02*
G36*
X713Y1489D02*
X713Y1488D01*
X711Y1488D01*
X711Y1487D01*
X710Y1487D01*
X710Y1481D01*
X711Y1481D01*
X711Y1480D01*
X713Y1480D01*
X713Y1479D01*
X765Y1479D01*
X765Y1478D01*
X766Y1478D01*
X766Y1477D01*
X767Y1477D01*
X767Y1476D01*
X768Y1476D01*
X768Y1475D01*
X769Y1475D01*
X769Y1473D01*
X770Y1473D01*
X770Y1472D01*
X771Y1472D01*
X771Y1471D01*
X772Y1471D01*
X772Y1470D01*
X773Y1470D01*
X773Y1468D01*
X774Y1468D01*
X774Y1457D01*
X773Y1457D01*
X773Y1456D01*
X772Y1456D01*
X772Y1455D01*
X771Y1455D01*
X771Y1453D01*
X770Y1453D01*
X770Y1452D01*
X768Y1452D01*
X768Y1451D01*
X781Y1451D01*
X781Y1452D01*
X782Y1452D01*
X782Y1454D01*
X783Y1454D01*
X783Y1459D01*
X784Y1459D01*
X784Y1466D01*
X783Y1466D01*
X783Y1472D01*
X782Y1472D01*
X782Y1474D01*
X781Y1474D01*
X781Y1475D01*
X780Y1475D01*
X780Y1476D01*
X779Y1476D01*
X779Y1478D01*
X778Y1478D01*
X778Y1479D01*
X780Y1479D01*
X780Y1480D01*
X782Y1480D01*
X782Y1481D01*
X783Y1481D01*
X783Y1487D01*
X782Y1487D01*
X782Y1488D01*
X780Y1488D01*
X780Y1489D01*
X713Y1489D01*
G37*
D02*
G36*
X736Y1479D02*
X736Y1478D01*
X735Y1478D01*
X735Y1477D01*
X734Y1477D01*
X734Y1476D01*
X733Y1476D01*
X733Y1475D01*
X732Y1475D01*
X732Y1473D01*
X731Y1473D01*
X731Y1471D01*
X730Y1471D01*
X730Y1455D01*
X731Y1455D01*
X731Y1452D01*
X732Y1452D01*
X732Y1451D01*
X745Y1451D01*
X745Y1452D01*
X744Y1452D01*
X744Y1453D01*
X743Y1453D01*
X743Y1454D01*
X742Y1454D01*
X742Y1455D01*
X741Y1455D01*
X741Y1456D01*
X740Y1456D01*
X740Y1458D01*
X739Y1458D01*
X739Y1468D01*
X740Y1468D01*
X740Y1470D01*
X741Y1470D01*
X741Y1471D01*
X742Y1471D01*
X742Y1472D01*
X743Y1472D01*
X743Y1473D01*
X744Y1473D01*
X744Y1474D01*
X745Y1474D01*
X745Y1475D01*
X746Y1475D01*
X746Y1477D01*
X747Y1477D01*
X747Y1478D01*
X748Y1478D01*
X748Y1479D01*
X736Y1479D01*
G37*
D02*
G36*
X733Y1451D02*
X733Y1450D01*
X780Y1450D01*
X780Y1451D01*
X733Y1451D01*
G37*
D02*
G36*
X733Y1451D02*
X733Y1450D01*
X780Y1450D01*
X780Y1451D01*
X733Y1451D01*
G37*
D02*
G36*
X734Y1450D02*
X734Y1448D01*
X735Y1448D01*
X735Y1447D01*
X736Y1447D01*
X736Y1446D01*
X737Y1446D01*
X737Y1445D01*
X738Y1445D01*
X738Y1444D01*
X740Y1444D01*
X740Y1443D01*
X742Y1443D01*
X742Y1442D01*
X771Y1442D01*
X771Y1443D01*
X773Y1443D01*
X773Y1444D01*
X775Y1444D01*
X775Y1445D01*
X776Y1445D01*
X776Y1446D01*
X777Y1446D01*
X777Y1447D01*
X778Y1447D01*
X778Y1448D01*
X779Y1448D01*
X779Y1449D01*
X780Y1449D01*
X780Y1450D01*
X734Y1450D01*
G37*
D02*
G36*
X1111Y1487D02*
X1111Y1486D01*
X1110Y1486D01*
X1110Y1485D01*
X1109Y1485D01*
X1109Y1476D01*
X1110Y1476D01*
X1110Y1474D01*
X1112Y1474D01*
X1112Y1473D01*
X1119Y1473D01*
X1119Y1474D01*
X1121Y1474D01*
X1121Y1475D01*
X1122Y1475D01*
X1122Y1486D01*
X1121Y1486D01*
X1121Y1487D01*
X1111Y1487D01*
G37*
D02*
G36*
X927Y1438D02*
X927Y1437D01*
X924Y1437D01*
X924Y1436D01*
X922Y1436D01*
X922Y1435D01*
X920Y1435D01*
X920Y1434D01*
X919Y1434D01*
X919Y1433D01*
X917Y1433D01*
X917Y1432D01*
X947Y1432D01*
X947Y1433D01*
X946Y1433D01*
X946Y1434D01*
X945Y1434D01*
X945Y1435D01*
X943Y1435D01*
X943Y1436D01*
X941Y1436D01*
X941Y1437D01*
X938Y1437D01*
X938Y1438D01*
X927Y1438D01*
G37*
D02*
G36*
X959Y1438D02*
X959Y1437D01*
X956Y1437D01*
X956Y1436D01*
X954Y1436D01*
X954Y1435D01*
X952Y1435D01*
X952Y1434D01*
X951Y1434D01*
X951Y1433D01*
X950Y1433D01*
X950Y1432D01*
X980Y1432D01*
X980Y1433D01*
X978Y1433D01*
X978Y1434D01*
X977Y1434D01*
X977Y1435D01*
X976Y1435D01*
X976Y1436D01*
X973Y1436D01*
X973Y1437D01*
X970Y1437D01*
X970Y1438D01*
X959Y1438D01*
G37*
D02*
G36*
X916Y1432D02*
X916Y1431D01*
X981Y1431D01*
X981Y1432D01*
X916Y1432D01*
G37*
D02*
G36*
X916Y1432D02*
X916Y1431D01*
X981Y1431D01*
X981Y1432D01*
X916Y1432D01*
G37*
D02*
G36*
X916Y1431D02*
X916Y1430D01*
X915Y1430D01*
X915Y1429D01*
X914Y1429D01*
X914Y1428D01*
X970Y1428D01*
X970Y1427D01*
X972Y1427D01*
X972Y1426D01*
X973Y1426D01*
X973Y1425D01*
X974Y1425D01*
X974Y1424D01*
X975Y1424D01*
X975Y1421D01*
X976Y1421D01*
X976Y1400D01*
X986Y1400D01*
X986Y1405D01*
X985Y1405D01*
X985Y1425D01*
X984Y1425D01*
X984Y1427D01*
X983Y1427D01*
X983Y1429D01*
X982Y1429D01*
X982Y1430D01*
X981Y1430D01*
X981Y1431D01*
X916Y1431D01*
G37*
D02*
G36*
X914Y1428D02*
X914Y1427D01*
X913Y1427D01*
X913Y1425D01*
X912Y1425D01*
X912Y1400D01*
X921Y1400D01*
X921Y1421D01*
X922Y1421D01*
X922Y1424D01*
X923Y1424D01*
X923Y1425D01*
X924Y1425D01*
X924Y1426D01*
X925Y1426D01*
X925Y1427D01*
X927Y1427D01*
X927Y1428D01*
X914Y1428D01*
G37*
D02*
G36*
X938Y1428D02*
X938Y1427D01*
X940Y1427D01*
X940Y1426D01*
X941Y1426D01*
X941Y1425D01*
X942Y1425D01*
X942Y1423D01*
X943Y1423D01*
X943Y1421D01*
X944Y1421D01*
X944Y1400D01*
X953Y1400D01*
X953Y1421D01*
X954Y1421D01*
X954Y1423D01*
X955Y1423D01*
X955Y1425D01*
X956Y1425D01*
X956Y1426D01*
X957Y1426D01*
X957Y1427D01*
X959Y1427D01*
X959Y1428D01*
X938Y1428D01*
G37*
D02*
G36*
X912Y1400D02*
X912Y1399D01*
X986Y1399D01*
X986Y1400D01*
X912Y1400D01*
G37*
D02*
G36*
X912Y1400D02*
X912Y1399D01*
X986Y1399D01*
X986Y1400D01*
X912Y1400D01*
G37*
D02*
G36*
X912Y1400D02*
X912Y1399D01*
X986Y1399D01*
X986Y1400D01*
X912Y1400D01*
G37*
D02*
G36*
X912Y1399D02*
X912Y1391D01*
X986Y1391D01*
X986Y1399D01*
X912Y1399D01*
G37*
D02*
G36*
X1179Y1434D02*
X1179Y1433D01*
X1178Y1433D01*
X1178Y1431D01*
X1177Y1431D01*
X1177Y1397D01*
X1116Y1397D01*
X1116Y1396D01*
X1115Y1396D01*
X1115Y1395D01*
X1114Y1395D01*
X1114Y1394D01*
X1113Y1394D01*
X1113Y1390D01*
X1114Y1390D01*
X1114Y1388D01*
X1116Y1388D01*
X1116Y1387D01*
X1187Y1387D01*
X1187Y1431D01*
X1186Y1431D01*
X1186Y1433D01*
X1185Y1433D01*
X1185Y1434D01*
X1179Y1434D01*
G37*
D02*
G36*
X769Y1417D02*
X769Y1416D01*
X743Y1416D01*
X743Y1415D01*
X738Y1415D01*
X738Y1414D01*
X737Y1414D01*
X737Y1413D01*
X735Y1413D01*
X735Y1412D01*
X734Y1412D01*
X734Y1411D01*
X733Y1411D01*
X733Y1410D01*
X732Y1410D01*
X732Y1408D01*
X731Y1408D01*
X731Y1406D01*
X730Y1406D01*
X730Y1391D01*
X731Y1391D01*
X731Y1389D01*
X732Y1389D01*
X732Y1387D01*
X733Y1387D01*
X733Y1386D01*
X734Y1386D01*
X734Y1384D01*
X735Y1384D01*
X735Y1383D01*
X736Y1383D01*
X736Y1381D01*
X737Y1381D01*
X737Y1379D01*
X732Y1379D01*
X732Y1378D01*
X731Y1378D01*
X731Y1377D01*
X730Y1377D01*
X730Y1372D01*
X731Y1372D01*
X731Y1371D01*
X732Y1371D01*
X732Y1370D01*
X781Y1370D01*
X781Y1371D01*
X782Y1371D01*
X782Y1372D01*
X783Y1372D01*
X783Y1374D01*
X784Y1374D01*
X784Y1375D01*
X783Y1375D01*
X783Y1377D01*
X782Y1377D01*
X782Y1378D01*
X781Y1378D01*
X781Y1379D01*
X749Y1379D01*
X749Y1380D01*
X748Y1380D01*
X748Y1382D01*
X747Y1382D01*
X747Y1383D01*
X746Y1383D01*
X746Y1385D01*
X745Y1385D01*
X745Y1386D01*
X744Y1386D01*
X744Y1388D01*
X743Y1388D01*
X743Y1390D01*
X742Y1390D01*
X742Y1391D01*
X741Y1391D01*
X741Y1393D01*
X740Y1393D01*
X740Y1395D01*
X739Y1395D01*
X739Y1403D01*
X740Y1403D01*
X740Y1404D01*
X741Y1404D01*
X741Y1405D01*
X742Y1405D01*
X742Y1406D01*
X758Y1406D01*
X758Y1407D01*
X780Y1407D01*
X780Y1408D01*
X782Y1408D01*
X782Y1409D01*
X783Y1409D01*
X783Y1415D01*
X782Y1415D01*
X782Y1416D01*
X780Y1416D01*
X780Y1417D01*
X769Y1417D01*
G37*
D02*
G36*
X713Y1345D02*
X713Y1344D01*
X711Y1344D01*
X711Y1343D01*
X710Y1343D01*
X710Y1321D01*
X711Y1321D01*
X711Y1319D01*
X712Y1319D01*
X712Y1317D01*
X713Y1317D01*
X713Y1316D01*
X714Y1316D01*
X714Y1315D01*
X715Y1315D01*
X715Y1314D01*
X717Y1314D01*
X717Y1313D01*
X718Y1313D01*
X718Y1312D01*
X719Y1312D01*
X719Y1311D01*
X720Y1311D01*
X720Y1310D01*
X722Y1310D01*
X722Y1309D01*
X723Y1309D01*
X723Y1308D01*
X724Y1308D01*
X724Y1307D01*
X741Y1307D01*
X741Y1308D01*
X739Y1308D01*
X739Y1309D01*
X737Y1309D01*
X737Y1310D01*
X736Y1310D01*
X736Y1311D01*
X735Y1311D01*
X735Y1312D01*
X733Y1312D01*
X733Y1313D01*
X732Y1313D01*
X732Y1314D01*
X731Y1314D01*
X731Y1315D01*
X729Y1315D01*
X729Y1316D01*
X728Y1316D01*
X728Y1317D01*
X727Y1317D01*
X727Y1318D01*
X726Y1318D01*
X726Y1319D01*
X724Y1319D01*
X724Y1320D01*
X723Y1320D01*
X723Y1321D01*
X722Y1321D01*
X722Y1322D01*
X721Y1322D01*
X721Y1323D01*
X720Y1323D01*
X720Y1324D01*
X719Y1324D01*
X719Y1342D01*
X718Y1342D01*
X718Y1344D01*
X716Y1344D01*
X716Y1345D01*
X713Y1345D01*
G37*
D02*
G36*
X750Y1345D02*
X750Y1335D01*
X772Y1335D01*
X772Y1334D01*
X773Y1334D01*
X773Y1333D01*
X774Y1333D01*
X774Y1310D01*
X773Y1310D01*
X773Y1309D01*
X772Y1309D01*
X772Y1308D01*
X771Y1308D01*
X771Y1307D01*
X783Y1307D01*
X783Y1313D01*
X784Y1313D01*
X784Y1331D01*
X783Y1331D01*
X783Y1336D01*
X782Y1336D01*
X782Y1338D01*
X781Y1338D01*
X781Y1339D01*
X780Y1339D01*
X780Y1340D01*
X779Y1340D01*
X779Y1341D01*
X778Y1341D01*
X778Y1342D01*
X777Y1342D01*
X777Y1343D01*
X775Y1343D01*
X775Y1344D01*
X772Y1344D01*
X772Y1345D01*
X750Y1345D01*
G37*
D02*
G36*
X750Y1335D02*
X750Y1323D01*
X751Y1323D01*
X751Y1322D01*
X753Y1322D01*
X753Y1321D01*
X756Y1321D01*
X756Y1322D01*
X758Y1322D01*
X758Y1323D01*
X759Y1323D01*
X759Y1335D01*
X750Y1335D01*
G37*
D02*
G36*
X725Y1307D02*
X725Y1306D01*
X782Y1306D01*
X782Y1307D01*
X725Y1307D01*
G37*
D02*
G36*
X725Y1307D02*
X725Y1306D01*
X782Y1306D01*
X782Y1307D01*
X725Y1307D01*
G37*
D02*
G36*
X727Y1306D02*
X727Y1305D01*
X728Y1305D01*
X728Y1304D01*
X729Y1304D01*
X729Y1303D01*
X731Y1303D01*
X731Y1302D01*
X732Y1302D01*
X732Y1301D01*
X733Y1301D01*
X733Y1300D01*
X735Y1300D01*
X735Y1299D01*
X738Y1299D01*
X738Y1298D01*
X774Y1298D01*
X774Y1299D01*
X776Y1299D01*
X776Y1300D01*
X778Y1300D01*
X778Y1301D01*
X779Y1301D01*
X779Y1302D01*
X780Y1302D01*
X780Y1303D01*
X781Y1303D01*
X781Y1305D01*
X782Y1305D01*
X782Y1306D01*
X727Y1306D01*
G37*
D02*
G36*
X1253Y1290D02*
X1253Y1284D01*
X1276Y1284D01*
X1276Y1283D01*
X1279Y1283D01*
X1279Y1274D01*
X1277Y1274D01*
X1277Y1273D01*
X1286Y1273D01*
X1286Y1284D01*
X1285Y1284D01*
X1285Y1286D01*
X1284Y1286D01*
X1284Y1287D01*
X1283Y1287D01*
X1283Y1288D01*
X1282Y1288D01*
X1282Y1289D01*
X1280Y1289D01*
X1280Y1290D01*
X1253Y1290D01*
G37*
D02*
G36*
X1253Y1284D02*
X1253Y1273D01*
X1260Y1273D01*
X1260Y1284D01*
X1253Y1284D01*
G37*
D02*
G36*
X1253Y1273D02*
X1253Y1272D01*
X1285Y1272D01*
X1285Y1273D01*
X1253Y1273D01*
G37*
D02*
G36*
X1253Y1273D02*
X1253Y1272D01*
X1285Y1272D01*
X1285Y1273D01*
X1253Y1273D01*
G37*
D02*
G36*
X1253Y1272D02*
X1253Y1267D01*
X1265Y1267D01*
X1265Y1265D01*
X1266Y1265D01*
X1266Y1263D01*
X1267Y1263D01*
X1267Y1262D01*
X1268Y1262D01*
X1268Y1260D01*
X1269Y1260D01*
X1269Y1258D01*
X1270Y1258D01*
X1270Y1257D01*
X1271Y1257D01*
X1271Y1255D01*
X1272Y1255D01*
X1272Y1253D01*
X1273Y1253D01*
X1273Y1251D01*
X1274Y1251D01*
X1274Y1250D01*
X1275Y1250D01*
X1275Y1248D01*
X1276Y1248D01*
X1276Y1246D01*
X1277Y1246D01*
X1277Y1245D01*
X1278Y1245D01*
X1278Y1243D01*
X1279Y1243D01*
X1279Y1241D01*
X1280Y1241D01*
X1280Y1240D01*
X1281Y1240D01*
X1281Y1239D01*
X1285Y1239D01*
X1285Y1240D01*
X1286Y1240D01*
X1286Y1244D01*
X1285Y1244D01*
X1285Y1246D01*
X1284Y1246D01*
X1284Y1247D01*
X1283Y1247D01*
X1283Y1249D01*
X1282Y1249D01*
X1282Y1251D01*
X1281Y1251D01*
X1281Y1253D01*
X1280Y1253D01*
X1280Y1254D01*
X1279Y1254D01*
X1279Y1256D01*
X1278Y1256D01*
X1278Y1258D01*
X1277Y1258D01*
X1277Y1259D01*
X1276Y1259D01*
X1276Y1261D01*
X1275Y1261D01*
X1275Y1263D01*
X1274Y1263D01*
X1274Y1265D01*
X1273Y1265D01*
X1273Y1267D01*
X1280Y1267D01*
X1280Y1268D01*
X1282Y1268D01*
X1282Y1269D01*
X1283Y1269D01*
X1283Y1270D01*
X1284Y1270D01*
X1284Y1271D01*
X1285Y1271D01*
X1285Y1272D01*
X1253Y1272D01*
G37*
D02*
G36*
X1253Y1267D02*
X1253Y1241D01*
X1254Y1241D01*
X1254Y1240D01*
X1255Y1240D01*
X1255Y1239D01*
X1259Y1239D01*
X1259Y1240D01*
X1260Y1240D01*
X1260Y1267D01*
X1253Y1267D01*
G37*
D02*
G36*
X1305Y1290D02*
X1305Y1289D01*
X1304Y1289D01*
X1304Y1288D01*
X1303Y1288D01*
X1303Y1286D01*
X1304Y1286D01*
X1304Y1284D01*
X1316Y1284D01*
X1316Y1245D01*
X1323Y1245D01*
X1323Y1290D01*
X1305Y1290D01*
G37*
D02*
G36*
X1331Y1262D02*
X1331Y1261D01*
X1330Y1261D01*
X1330Y1259D01*
X1329Y1259D01*
X1329Y1245D01*
X1336Y1245D01*
X1336Y1261D01*
X1335Y1261D01*
X1335Y1262D01*
X1331Y1262D01*
G37*
D02*
G36*
X1304Y1245D02*
X1304Y1244D01*
X1336Y1244D01*
X1336Y1245D01*
X1304Y1245D01*
G37*
D02*
G36*
X1304Y1245D02*
X1304Y1244D01*
X1336Y1244D01*
X1336Y1245D01*
X1304Y1245D01*
G37*
D02*
G36*
X1304Y1244D02*
X1304Y1243D01*
X1303Y1243D01*
X1303Y1241D01*
X1304Y1241D01*
X1304Y1240D01*
X1305Y1240D01*
X1305Y1239D01*
X1335Y1239D01*
X1335Y1240D01*
X1336Y1240D01*
X1336Y1244D01*
X1304Y1244D01*
G37*
D02*
G36*
X1355Y1290D02*
X1355Y1289D01*
X1354Y1289D01*
X1354Y1288D01*
X1353Y1288D01*
X1353Y1286D01*
X1354Y1286D01*
X1354Y1284D01*
X1379Y1284D01*
X1379Y1268D01*
X1358Y1268D01*
X1358Y1267D01*
X1356Y1267D01*
X1356Y1266D01*
X1355Y1266D01*
X1355Y1265D01*
X1354Y1265D01*
X1354Y1263D01*
X1353Y1263D01*
X1353Y1239D01*
X1385Y1239D01*
X1385Y1240D01*
X1386Y1240D01*
X1386Y1244D01*
X1385Y1244D01*
X1385Y1245D01*
X1360Y1245D01*
X1360Y1261D01*
X1381Y1261D01*
X1381Y1262D01*
X1383Y1262D01*
X1383Y1263D01*
X1384Y1263D01*
X1384Y1264D01*
X1385Y1264D01*
X1385Y1265D01*
X1386Y1265D01*
X1386Y1286D01*
X1385Y1286D01*
X1385Y1288D01*
X1384Y1288D01*
X1384Y1289D01*
X1382Y1289D01*
X1382Y1290D01*
X1355Y1290D01*
G37*
D02*
G36*
X2157Y1207D02*
X2157Y1206D01*
X2155Y1206D01*
X2155Y1201D01*
X2157Y1201D01*
X2157Y1200D01*
X2168Y1200D01*
X2168Y1162D01*
X2156Y1162D01*
X2156Y1161D01*
X2155Y1161D01*
X2155Y1157D01*
X2156Y1157D01*
X2156Y1156D01*
X2157Y1156D01*
X2157Y1155D01*
X2185Y1155D01*
X2185Y1156D01*
X2187Y1156D01*
X2187Y1161D01*
X2186Y1161D01*
X2186Y1162D01*
X2174Y1162D01*
X2174Y1200D01*
X2186Y1200D01*
X2186Y1201D01*
X2187Y1201D01*
X2187Y1206D01*
X2185Y1206D01*
X2185Y1207D01*
X2157Y1207D01*
G37*
D02*
G36*
X2220Y1207D02*
X2220Y1206D01*
X2217Y1206D01*
X2217Y1205D01*
X2216Y1205D01*
X2216Y1204D01*
X2215Y1204D01*
X2215Y1203D01*
X2214Y1203D01*
X2214Y1202D01*
X2213Y1202D01*
X2213Y1200D01*
X2212Y1200D01*
X2212Y1198D01*
X2211Y1198D01*
X2211Y1196D01*
X2210Y1196D01*
X2210Y1194D01*
X2209Y1194D01*
X2209Y1192D01*
X2208Y1192D01*
X2208Y1190D01*
X2207Y1190D01*
X2207Y1188D01*
X2206Y1188D01*
X2206Y1186D01*
X2205Y1186D01*
X2205Y1176D01*
X2206Y1176D01*
X2206Y1174D01*
X2207Y1174D01*
X2207Y1172D01*
X2208Y1172D01*
X2208Y1170D01*
X2209Y1170D01*
X2209Y1168D01*
X2210Y1168D01*
X2210Y1166D01*
X2211Y1166D01*
X2211Y1164D01*
X2212Y1164D01*
X2212Y1162D01*
X2213Y1162D01*
X2213Y1160D01*
X2214Y1160D01*
X2214Y1159D01*
X2215Y1159D01*
X2215Y1158D01*
X2216Y1158D01*
X2216Y1157D01*
X2217Y1157D01*
X2217Y1156D01*
X2221Y1156D01*
X2221Y1155D01*
X2235Y1155D01*
X2235Y1156D01*
X2237Y1156D01*
X2237Y1161D01*
X2236Y1161D01*
X2236Y1162D01*
X2220Y1162D01*
X2220Y1163D01*
X2219Y1163D01*
X2219Y1165D01*
X2218Y1165D01*
X2218Y1167D01*
X2217Y1167D01*
X2217Y1169D01*
X2216Y1169D01*
X2216Y1171D01*
X2215Y1171D01*
X2215Y1173D01*
X2214Y1173D01*
X2214Y1175D01*
X2213Y1175D01*
X2213Y1177D01*
X2212Y1177D01*
X2212Y1180D01*
X2211Y1180D01*
X2211Y1183D01*
X2212Y1183D01*
X2212Y1185D01*
X2213Y1185D01*
X2213Y1187D01*
X2214Y1187D01*
X2214Y1189D01*
X2215Y1189D01*
X2215Y1191D01*
X2216Y1191D01*
X2216Y1193D01*
X2217Y1193D01*
X2217Y1195D01*
X2218Y1195D01*
X2218Y1197D01*
X2219Y1197D01*
X2219Y1199D01*
X2220Y1199D01*
X2220Y1200D01*
X2236Y1200D01*
X2236Y1201D01*
X2237Y1201D01*
X2237Y1206D01*
X2235Y1206D01*
X2235Y1207D01*
X2220Y1207D01*
G37*
D02*
G36*
X2257Y1207D02*
X2257Y1206D01*
X2255Y1206D01*
X2255Y1201D01*
X2256Y1201D01*
X2256Y1200D01*
X2281Y1200D01*
X2281Y1185D01*
X2280Y1185D01*
X2280Y1184D01*
X2258Y1184D01*
X2258Y1183D01*
X2257Y1183D01*
X2257Y1182D01*
X2256Y1182D01*
X2256Y1181D01*
X2255Y1181D01*
X2255Y1155D01*
X2285Y1155D01*
X2285Y1156D01*
X2287Y1156D01*
X2287Y1161D01*
X2286Y1161D01*
X2286Y1162D01*
X2261Y1162D01*
X2261Y1177D01*
X2262Y1177D01*
X2262Y1178D01*
X2284Y1178D01*
X2284Y1179D01*
X2285Y1179D01*
X2285Y1180D01*
X2286Y1180D01*
X2286Y1181D01*
X2287Y1181D01*
X2287Y1204D01*
X2286Y1204D01*
X2286Y1205D01*
X2285Y1205D01*
X2285Y1206D01*
X2283Y1206D01*
X2283Y1207D01*
X2257Y1207D01*
G37*
D02*
G36*
X241Y934D02*
X241Y932D01*
X240Y932D01*
X240Y891D01*
X241Y891D01*
X241Y890D01*
X248Y890D01*
X248Y891D01*
X247Y891D01*
X247Y933D01*
X246Y933D01*
X246Y934D01*
X241Y934D01*
G37*
D02*
G36*
X267Y934D02*
X267Y932D01*
X266Y932D01*
X266Y891D01*
X265Y891D01*
X265Y890D01*
X273Y890D01*
X273Y933D01*
X272Y933D01*
X272Y934D01*
X267Y934D01*
G37*
D02*
G36*
X241Y890D02*
X241Y889D01*
X272Y889D01*
X272Y890D01*
X241Y890D01*
G37*
D02*
G36*
X241Y890D02*
X241Y889D01*
X272Y889D01*
X272Y890D01*
X241Y890D01*
G37*
D02*
G36*
X241Y889D02*
X241Y888D01*
X242Y888D01*
X242Y887D01*
X243Y887D01*
X243Y886D01*
X244Y886D01*
X244Y885D01*
X245Y885D01*
X245Y884D01*
X248Y884D01*
X248Y883D01*
X266Y883D01*
X266Y884D01*
X268Y884D01*
X268Y885D01*
X270Y885D01*
X270Y886D01*
X271Y886D01*
X271Y888D01*
X272Y888D01*
X272Y889D01*
X241Y889D01*
G37*
D02*
G36*
X291Y934D02*
X291Y932D01*
X290Y932D01*
X290Y930D01*
X291Y930D01*
X291Y929D01*
X292Y929D01*
X292Y928D01*
X303Y928D01*
X303Y890D01*
X310Y890D01*
X310Y934D01*
X291Y934D01*
G37*
D02*
G36*
X317Y906D02*
X317Y904D01*
X316Y904D01*
X316Y890D01*
X323Y890D01*
X323Y905D01*
X322Y905D01*
X322Y906D01*
X317Y906D01*
G37*
D02*
G36*
X292Y890D02*
X292Y889D01*
X323Y889D01*
X323Y890D01*
X292Y890D01*
G37*
D02*
G36*
X292Y890D02*
X292Y889D01*
X323Y889D01*
X323Y890D01*
X292Y890D01*
G37*
D02*
G36*
X291Y889D02*
X291Y888D01*
X290Y888D01*
X290Y885D01*
X291Y885D01*
X291Y884D01*
X292Y884D01*
X292Y883D01*
X321Y883D01*
X321Y884D01*
X322Y884D01*
X322Y885D01*
X323Y885D01*
X323Y889D01*
X291Y889D01*
G37*
D02*
G36*
X1000Y929D02*
X1000Y928D01*
X998Y928D01*
X998Y923D01*
X1000Y923D01*
X1000Y922D01*
X1015Y922D01*
X1015Y921D01*
X1016Y921D01*
X1016Y920D01*
X1017Y920D01*
X1017Y918D01*
X1018Y918D01*
X1018Y916D01*
X1019Y916D01*
X1019Y914D01*
X1020Y914D01*
X1020Y912D01*
X1021Y912D01*
X1021Y910D01*
X1022Y910D01*
X1022Y908D01*
X1023Y908D01*
X1023Y906D01*
X1024Y906D01*
X1024Y901D01*
X1023Y901D01*
X1023Y898D01*
X1022Y898D01*
X1022Y896D01*
X1021Y896D01*
X1021Y894D01*
X1020Y894D01*
X1020Y892D01*
X1019Y892D01*
X1019Y890D01*
X1018Y890D01*
X1018Y888D01*
X1017Y888D01*
X1017Y887D01*
X1016Y887D01*
X1016Y885D01*
X1015Y885D01*
X1015Y884D01*
X1023Y884D01*
X1023Y886D01*
X1024Y886D01*
X1024Y888D01*
X1025Y888D01*
X1025Y890D01*
X1026Y890D01*
X1026Y892D01*
X1027Y892D01*
X1027Y894D01*
X1028Y894D01*
X1028Y896D01*
X1029Y896D01*
X1029Y898D01*
X1030Y898D01*
X1030Y908D01*
X1029Y908D01*
X1029Y911D01*
X1028Y911D01*
X1028Y913D01*
X1027Y913D01*
X1027Y915D01*
X1026Y915D01*
X1026Y917D01*
X1025Y917D01*
X1025Y919D01*
X1024Y919D01*
X1024Y921D01*
X1023Y921D01*
X1023Y923D01*
X1022Y923D01*
X1022Y924D01*
X1021Y924D01*
X1021Y926D01*
X1020Y926D01*
X1020Y927D01*
X1018Y927D01*
X1018Y928D01*
X1016Y928D01*
X1016Y929D01*
X1000Y929D01*
G37*
D02*
G36*
X1004Y922D02*
X1004Y884D01*
X1011Y884D01*
X1011Y922D01*
X1004Y922D01*
G37*
D02*
G36*
X999Y884D02*
X999Y883D01*
X1022Y883D01*
X1022Y884D01*
X999Y884D01*
G37*
D02*
G36*
X999Y884D02*
X999Y883D01*
X1022Y883D01*
X1022Y884D01*
X999Y884D01*
G37*
D02*
G36*
X998Y883D02*
X998Y879D01*
X999Y879D01*
X999Y878D01*
X1001Y878D01*
X1001Y877D01*
X1014Y877D01*
X1014Y878D01*
X1018Y878D01*
X1018Y879D01*
X1019Y879D01*
X1019Y880D01*
X1020Y880D01*
X1020Y881D01*
X1021Y881D01*
X1021Y882D01*
X1022Y882D01*
X1022Y883D01*
X998Y883D01*
G37*
D02*
G36*
X1056Y929D02*
X1056Y928D01*
X1055Y928D01*
X1055Y927D01*
X1054Y927D01*
X1054Y922D01*
X1067Y922D01*
X1067Y906D01*
X1074Y906D01*
X1074Y927D01*
X1073Y927D01*
X1073Y928D01*
X1072Y928D01*
X1072Y929D01*
X1056Y929D01*
G37*
D02*
G36*
X1054Y922D02*
X1054Y906D01*
X1061Y906D01*
X1061Y922D01*
X1054Y922D01*
G37*
D02*
G36*
X1051Y906D02*
X1051Y905D01*
X1077Y905D01*
X1077Y906D01*
X1051Y906D01*
G37*
D02*
G36*
X1051Y906D02*
X1051Y905D01*
X1077Y905D01*
X1077Y906D01*
X1051Y906D01*
G37*
D02*
G36*
X1050Y905D02*
X1050Y904D01*
X1049Y904D01*
X1049Y903D01*
X1048Y903D01*
X1048Y900D01*
X1074Y900D01*
X1074Y884D01*
X1080Y884D01*
X1080Y903D01*
X1079Y903D01*
X1079Y905D01*
X1050Y905D01*
G37*
D02*
G36*
X1048Y900D02*
X1048Y884D01*
X1054Y884D01*
X1054Y900D01*
X1048Y900D01*
G37*
D02*
G36*
X1048Y884D02*
X1048Y883D01*
X1080Y883D01*
X1080Y884D01*
X1048Y884D01*
G37*
D02*
G36*
X1048Y884D02*
X1048Y883D01*
X1080Y883D01*
X1080Y884D01*
X1048Y884D01*
G37*
D02*
G36*
X1048Y883D02*
X1048Y881D01*
X1049Y881D01*
X1049Y880D01*
X1050Y880D01*
X1050Y879D01*
X1051Y879D01*
X1051Y878D01*
X1053Y878D01*
X1053Y877D01*
X1075Y877D01*
X1075Y878D01*
X1077Y878D01*
X1077Y879D01*
X1079Y879D01*
X1079Y881D01*
X1080Y881D01*
X1080Y883D01*
X1048Y883D01*
G37*
D02*
G36*
X1206Y929D02*
X1206Y928D01*
X1204Y928D01*
X1204Y923D01*
X1206Y923D01*
X1206Y922D01*
X1221Y922D01*
X1221Y921D01*
X1222Y921D01*
X1222Y920D01*
X1223Y920D01*
X1223Y918D01*
X1224Y918D01*
X1224Y916D01*
X1225Y916D01*
X1225Y914D01*
X1226Y914D01*
X1226Y912D01*
X1227Y912D01*
X1227Y910D01*
X1228Y910D01*
X1228Y908D01*
X1229Y908D01*
X1229Y905D01*
X1230Y905D01*
X1230Y901D01*
X1229Y901D01*
X1229Y899D01*
X1228Y899D01*
X1228Y897D01*
X1227Y897D01*
X1227Y895D01*
X1226Y895D01*
X1226Y893D01*
X1225Y893D01*
X1225Y891D01*
X1224Y891D01*
X1224Y889D01*
X1223Y889D01*
X1223Y887D01*
X1222Y887D01*
X1222Y885D01*
X1221Y885D01*
X1221Y884D01*
X1229Y884D01*
X1229Y886D01*
X1230Y886D01*
X1230Y888D01*
X1231Y888D01*
X1231Y890D01*
X1232Y890D01*
X1232Y892D01*
X1233Y892D01*
X1233Y894D01*
X1234Y894D01*
X1234Y896D01*
X1235Y896D01*
X1235Y898D01*
X1236Y898D01*
X1236Y908D01*
X1235Y908D01*
X1235Y911D01*
X1234Y911D01*
X1234Y913D01*
X1233Y913D01*
X1233Y915D01*
X1232Y915D01*
X1232Y917D01*
X1231Y917D01*
X1231Y919D01*
X1230Y919D01*
X1230Y920D01*
X1229Y920D01*
X1229Y922D01*
X1228Y922D01*
X1228Y924D01*
X1227Y924D01*
X1227Y926D01*
X1226Y926D01*
X1226Y927D01*
X1224Y927D01*
X1224Y928D01*
X1222Y928D01*
X1222Y929D01*
X1206Y929D01*
G37*
D02*
G36*
X1210Y922D02*
X1210Y884D01*
X1217Y884D01*
X1217Y922D01*
X1210Y922D01*
G37*
D02*
G36*
X1205Y884D02*
X1205Y883D01*
X1228Y883D01*
X1228Y884D01*
X1205Y884D01*
G37*
D02*
G36*
X1205Y884D02*
X1205Y883D01*
X1228Y883D01*
X1228Y884D01*
X1205Y884D01*
G37*
D02*
G36*
X1204Y883D02*
X1204Y879D01*
X1205Y879D01*
X1205Y878D01*
X1206Y878D01*
X1206Y877D01*
X1220Y877D01*
X1220Y878D01*
X1224Y878D01*
X1224Y879D01*
X1225Y879D01*
X1225Y880D01*
X1226Y880D01*
X1226Y881D01*
X1227Y881D01*
X1227Y882D01*
X1228Y882D01*
X1228Y883D01*
X1204Y883D01*
G37*
D02*
G36*
X1256Y929D02*
X1256Y928D01*
X1254Y928D01*
X1254Y894D01*
X1280Y894D01*
X1280Y884D01*
X1286Y884D01*
X1286Y900D01*
X1285Y900D01*
X1285Y901D01*
X1260Y901D01*
X1260Y922D01*
X1262Y922D01*
X1262Y923D01*
X1263Y923D01*
X1263Y925D01*
X1264Y925D01*
X1264Y926D01*
X1263Y926D01*
X1263Y928D01*
X1262Y928D01*
X1262Y929D01*
X1256Y929D01*
G37*
D02*
G36*
X1254Y894D02*
X1254Y884D01*
X1260Y884D01*
X1260Y894D01*
X1254Y894D01*
G37*
D02*
G36*
X1254Y884D02*
X1254Y883D01*
X1286Y883D01*
X1286Y884D01*
X1254Y884D01*
G37*
D02*
G36*
X1254Y884D02*
X1254Y883D01*
X1286Y883D01*
X1286Y884D01*
X1254Y884D01*
G37*
D02*
G36*
X1254Y883D02*
X1254Y879D01*
X1255Y879D01*
X1255Y878D01*
X1257Y878D01*
X1257Y877D01*
X1283Y877D01*
X1283Y878D01*
X1285Y878D01*
X1285Y879D01*
X1286Y879D01*
X1286Y883D01*
X1254Y883D01*
G37*
D02*
G36*
X1356Y884D02*
X1356Y878D01*
X1380Y878D01*
X1380Y877D01*
X1382Y877D01*
X1382Y869D01*
X1381Y869D01*
X1381Y868D01*
X1389Y868D01*
X1389Y878D01*
X1388Y878D01*
X1388Y880D01*
X1387Y880D01*
X1387Y881D01*
X1386Y881D01*
X1386Y882D01*
X1385Y882D01*
X1385Y883D01*
X1383Y883D01*
X1383Y884D01*
X1356Y884D01*
G37*
D02*
G36*
X1356Y878D02*
X1356Y868D01*
X1363Y868D01*
X1363Y878D01*
X1356Y878D01*
G37*
D02*
G36*
X1356Y868D02*
X1356Y867D01*
X1389Y867D01*
X1389Y868D01*
X1356Y868D01*
G37*
D02*
G36*
X1356Y868D02*
X1356Y867D01*
X1389Y867D01*
X1389Y868D01*
X1356Y868D01*
G37*
D02*
G36*
X1356Y867D02*
X1356Y861D01*
X1368Y861D01*
X1368Y859D01*
X1369Y859D01*
X1369Y858D01*
X1370Y858D01*
X1370Y856D01*
X1371Y856D01*
X1371Y854D01*
X1372Y854D01*
X1372Y852D01*
X1373Y852D01*
X1373Y851D01*
X1374Y851D01*
X1374Y849D01*
X1375Y849D01*
X1375Y847D01*
X1376Y847D01*
X1376Y846D01*
X1377Y846D01*
X1377Y844D01*
X1378Y844D01*
X1378Y842D01*
X1379Y842D01*
X1379Y840D01*
X1380Y840D01*
X1380Y839D01*
X1381Y839D01*
X1381Y837D01*
X1382Y837D01*
X1382Y835D01*
X1383Y835D01*
X1383Y834D01*
X1384Y834D01*
X1384Y833D01*
X1388Y833D01*
X1388Y834D01*
X1389Y834D01*
X1389Y838D01*
X1388Y838D01*
X1388Y840D01*
X1387Y840D01*
X1387Y842D01*
X1386Y842D01*
X1386Y843D01*
X1385Y843D01*
X1385Y845D01*
X1384Y845D01*
X1384Y847D01*
X1383Y847D01*
X1383Y848D01*
X1382Y848D01*
X1382Y850D01*
X1381Y850D01*
X1381Y852D01*
X1380Y852D01*
X1380Y854D01*
X1379Y854D01*
X1379Y855D01*
X1378Y855D01*
X1378Y857D01*
X1377Y857D01*
X1377Y859D01*
X1376Y859D01*
X1376Y861D01*
X1383Y861D01*
X1383Y862D01*
X1385Y862D01*
X1385Y863D01*
X1386Y863D01*
X1386Y864D01*
X1387Y864D01*
X1387Y865D01*
X1388Y865D01*
X1388Y867D01*
X1356Y867D01*
G37*
D02*
G36*
X1356Y861D02*
X1356Y835D01*
X1357Y835D01*
X1357Y834D01*
X1358Y834D01*
X1358Y833D01*
X1361Y833D01*
X1361Y834D01*
X1362Y834D01*
X1362Y835D01*
X1363Y835D01*
X1363Y861D01*
X1356Y861D01*
G37*
D02*
G36*
X1407Y884D02*
X1407Y882D01*
X1406Y882D01*
X1406Y880D01*
X1407Y880D01*
X1407Y878D01*
X1419Y878D01*
X1419Y840D01*
X1426Y840D01*
X1426Y884D01*
X1407Y884D01*
G37*
D02*
G36*
X1434Y856D02*
X1434Y855D01*
X1433Y855D01*
X1433Y853D01*
X1432Y853D01*
X1432Y840D01*
X1439Y840D01*
X1439Y855D01*
X1438Y855D01*
X1438Y856D01*
X1434Y856D01*
G37*
D02*
G36*
X1409Y840D02*
X1409Y839D01*
X1439Y839D01*
X1439Y840D01*
X1409Y840D01*
G37*
D02*
G36*
X1409Y840D02*
X1409Y839D01*
X1439Y839D01*
X1439Y840D01*
X1409Y840D01*
G37*
D02*
G36*
X1407Y839D02*
X1407Y837D01*
X1406Y837D01*
X1406Y835D01*
X1407Y835D01*
X1407Y834D01*
X1408Y834D01*
X1408Y833D01*
X1438Y833D01*
X1438Y834D01*
X1439Y834D01*
X1439Y839D01*
X1407Y839D01*
G37*
D02*
G36*
X1459Y884D02*
X1459Y883D01*
X1458Y883D01*
X1458Y856D01*
X1465Y856D01*
X1465Y882D01*
X1464Y882D01*
X1464Y883D01*
X1463Y883D01*
X1463Y884D01*
X1459Y884D01*
G37*
D02*
G36*
X1480Y879D02*
X1480Y878D01*
X1478Y878D01*
X1478Y858D01*
X1477Y858D01*
X1477Y856D01*
X1484Y856D01*
X1484Y877D01*
X1483Y877D01*
X1483Y878D01*
X1482Y878D01*
X1482Y879D01*
X1480Y879D01*
G37*
D02*
G36*
X1458Y856D02*
X1458Y855D01*
X1486Y855D01*
X1486Y856D01*
X1458Y856D01*
G37*
D02*
G36*
X1458Y856D02*
X1458Y855D01*
X1486Y855D01*
X1486Y856D01*
X1458Y856D01*
G37*
D02*
G36*
X1458Y855D02*
X1458Y850D01*
X1477Y850D01*
X1477Y838D01*
X1478Y838D01*
X1478Y834D01*
X1479Y834D01*
X1479Y833D01*
X1483Y833D01*
X1483Y834D01*
X1484Y834D01*
X1484Y850D01*
X1486Y850D01*
X1486Y851D01*
X1487Y851D01*
X1487Y855D01*
X1458Y855D01*
G37*
D02*
G36*
X528Y877D02*
X528Y876D01*
X527Y876D01*
X527Y875D01*
X526Y875D01*
X526Y874D01*
X525Y874D01*
X525Y873D01*
X524Y873D01*
X524Y872D01*
X523Y872D01*
X523Y870D01*
X522Y870D01*
X522Y868D01*
X521Y868D01*
X521Y866D01*
X520Y866D01*
X520Y864D01*
X519Y864D01*
X519Y862D01*
X518Y862D01*
X518Y860D01*
X517Y860D01*
X517Y857D01*
X516Y857D01*
X516Y854D01*
X515Y854D01*
X515Y850D01*
X516Y850D01*
X516Y846D01*
X517Y846D01*
X517Y844D01*
X518Y844D01*
X518Y842D01*
X519Y842D01*
X519Y840D01*
X520Y840D01*
X520Y838D01*
X521Y838D01*
X521Y836D01*
X522Y836D01*
X522Y834D01*
X523Y834D01*
X523Y832D01*
X524Y832D01*
X524Y830D01*
X525Y830D01*
X525Y829D01*
X526Y829D01*
X526Y828D01*
X527Y828D01*
X527Y827D01*
X530Y827D01*
X530Y826D01*
X546Y826D01*
X546Y827D01*
X548Y827D01*
X548Y831D01*
X547Y831D01*
X547Y832D01*
X546Y832D01*
X546Y833D01*
X530Y833D01*
X530Y835D01*
X529Y835D01*
X529Y837D01*
X528Y837D01*
X528Y839D01*
X527Y839D01*
X527Y841D01*
X526Y841D01*
X526Y843D01*
X525Y843D01*
X525Y845D01*
X524Y845D01*
X524Y847D01*
X523Y847D01*
X523Y849D01*
X522Y849D01*
X522Y855D01*
X523Y855D01*
X523Y857D01*
X524Y857D01*
X524Y859D01*
X525Y859D01*
X525Y861D01*
X526Y861D01*
X526Y863D01*
X527Y863D01*
X527Y865D01*
X528Y865D01*
X528Y867D01*
X529Y867D01*
X529Y869D01*
X530Y869D01*
X530Y870D01*
X531Y870D01*
X531Y871D01*
X547Y871D01*
X547Y872D01*
X548Y872D01*
X548Y876D01*
X547Y876D01*
X547Y877D01*
X528Y877D01*
G37*
D02*
G36*
X566Y877D02*
X566Y875D01*
X565Y875D01*
X565Y873D01*
X566Y873D01*
X566Y872D01*
X567Y872D01*
X567Y871D01*
X591Y871D01*
X591Y855D01*
X569Y855D01*
X569Y854D01*
X568Y854D01*
X568Y853D01*
X567Y853D01*
X567Y852D01*
X566Y852D01*
X566Y850D01*
X565Y850D01*
X565Y826D01*
X596Y826D01*
X596Y827D01*
X598Y827D01*
X598Y831D01*
X597Y831D01*
X597Y832D01*
X596Y832D01*
X596Y833D01*
X572Y833D01*
X572Y848D01*
X593Y848D01*
X593Y849D01*
X595Y849D01*
X595Y850D01*
X596Y850D01*
X596Y851D01*
X597Y851D01*
X597Y852D01*
X598Y852D01*
X598Y874D01*
X597Y874D01*
X597Y875D01*
X596Y875D01*
X596Y876D01*
X595Y876D01*
X595Y877D01*
X566Y877D01*
G37*
D02*
G36*
X635Y826D02*
X635Y825D01*
X633Y825D01*
X633Y824D01*
X631Y824D01*
X631Y823D01*
X630Y823D01*
X630Y821D01*
X629Y821D01*
X629Y819D01*
X628Y819D01*
X628Y817D01*
X627Y817D01*
X627Y815D01*
X626Y815D01*
X626Y813D01*
X625Y813D01*
X625Y811D01*
X624Y811D01*
X624Y809D01*
X623Y809D01*
X623Y807D01*
X622Y807D01*
X622Y805D01*
X621Y805D01*
X621Y795D01*
X622Y795D01*
X622Y793D01*
X623Y793D01*
X623Y791D01*
X624Y791D01*
X624Y789D01*
X625Y789D01*
X625Y787D01*
X626Y787D01*
X626Y785D01*
X627Y785D01*
X627Y783D01*
X628Y783D01*
X628Y781D01*
X629Y781D01*
X629Y779D01*
X630Y779D01*
X630Y778D01*
X631Y778D01*
X631Y777D01*
X632Y777D01*
X632Y776D01*
X634Y776D01*
X634Y775D01*
X639Y775D01*
X639Y774D01*
X649Y774D01*
X649Y775D01*
X652Y775D01*
X652Y776D01*
X653Y776D01*
X653Y780D01*
X652Y780D01*
X652Y781D01*
X636Y781D01*
X636Y782D01*
X635Y782D01*
X635Y784D01*
X634Y784D01*
X634Y786D01*
X633Y786D01*
X633Y788D01*
X632Y788D01*
X632Y790D01*
X631Y790D01*
X631Y792D01*
X630Y792D01*
X630Y794D01*
X629Y794D01*
X629Y796D01*
X628Y796D01*
X628Y798D01*
X627Y798D01*
X627Y802D01*
X628Y802D01*
X628Y805D01*
X629Y805D01*
X629Y807D01*
X630Y807D01*
X630Y809D01*
X631Y809D01*
X631Y811D01*
X632Y811D01*
X632Y813D01*
X633Y813D01*
X633Y815D01*
X634Y815D01*
X634Y817D01*
X635Y817D01*
X635Y818D01*
X636Y818D01*
X636Y819D01*
X651Y819D01*
X651Y820D01*
X653Y820D01*
X653Y825D01*
X652Y825D01*
X652Y826D01*
X635Y826D01*
G37*
D02*
G36*
X673Y826D02*
X673Y825D01*
X671Y825D01*
X671Y820D01*
X673Y820D01*
X673Y819D01*
X697Y819D01*
X697Y806D01*
X696Y806D01*
X696Y804D01*
X685Y804D01*
X685Y803D01*
X678Y803D01*
X678Y802D01*
X677Y802D01*
X677Y799D01*
X678Y799D01*
X678Y798D01*
X679Y798D01*
X679Y797D01*
X695Y797D01*
X695Y796D01*
X696Y796D01*
X696Y795D01*
X697Y795D01*
X697Y781D01*
X672Y781D01*
X672Y780D01*
X671Y780D01*
X671Y776D01*
X672Y776D01*
X672Y775D01*
X674Y775D01*
X674Y774D01*
X696Y774D01*
X696Y775D01*
X700Y775D01*
X700Y776D01*
X702Y776D01*
X702Y778D01*
X703Y778D01*
X703Y798D01*
X702Y798D01*
X702Y799D01*
X701Y799D01*
X701Y801D01*
X702Y801D01*
X702Y803D01*
X703Y803D01*
X703Y823D01*
X702Y823D01*
X702Y824D01*
X701Y824D01*
X701Y825D01*
X699Y825D01*
X699Y826D01*
X673Y826D01*
G37*
D02*
G36*
X1971Y733D02*
X1971Y732D01*
X1970Y732D01*
X1970Y728D01*
X1971Y728D01*
X1971Y727D01*
X1972Y727D01*
X1972Y726D01*
X1983Y726D01*
X1983Y688D01*
X1971Y688D01*
X1971Y687D01*
X1970Y687D01*
X1970Y683D01*
X1971Y683D01*
X1971Y682D01*
X2001Y682D01*
X2001Y683D01*
X2002Y683D01*
X2002Y685D01*
X2003Y685D01*
X2003Y686D01*
X2002Y686D01*
X2002Y687D01*
X2001Y687D01*
X2001Y688D01*
X1990Y688D01*
X1990Y726D01*
X2000Y726D01*
X2000Y727D01*
X2002Y727D01*
X2002Y729D01*
X2003Y729D01*
X2003Y730D01*
X2002Y730D01*
X2002Y732D01*
X2001Y732D01*
X2001Y733D01*
X1971Y733D01*
G37*
D02*
G36*
X2034Y733D02*
X2034Y732D01*
X2032Y732D01*
X2032Y731D01*
X2030Y731D01*
X2030Y730D01*
X2029Y730D01*
X2029Y728D01*
X2028Y728D01*
X2028Y726D01*
X2027Y726D01*
X2027Y724D01*
X2026Y724D01*
X2026Y722D01*
X2025Y722D01*
X2025Y720D01*
X2024Y720D01*
X2024Y718D01*
X2023Y718D01*
X2023Y716D01*
X2022Y716D01*
X2022Y714D01*
X2021Y714D01*
X2021Y712D01*
X2020Y712D01*
X2020Y703D01*
X2021Y703D01*
X2021Y700D01*
X2022Y700D01*
X2022Y698D01*
X2023Y698D01*
X2023Y696D01*
X2024Y696D01*
X2024Y694D01*
X2025Y694D01*
X2025Y692D01*
X2026Y692D01*
X2026Y690D01*
X2027Y690D01*
X2027Y688D01*
X2028Y688D01*
X2028Y687D01*
X2029Y687D01*
X2029Y685D01*
X2030Y685D01*
X2030Y684D01*
X2031Y684D01*
X2031Y683D01*
X2033Y683D01*
X2033Y682D01*
X2051Y682D01*
X2051Y683D01*
X2052Y683D01*
X2052Y687D01*
X2051Y687D01*
X2051Y688D01*
X2036Y688D01*
X2036Y689D01*
X2035Y689D01*
X2035Y690D01*
X2034Y690D01*
X2034Y691D01*
X2033Y691D01*
X2033Y693D01*
X2032Y693D01*
X2032Y695D01*
X2031Y695D01*
X2031Y697D01*
X2030Y697D01*
X2030Y699D01*
X2029Y699D01*
X2029Y701D01*
X2028Y701D01*
X2028Y703D01*
X2027Y703D01*
X2027Y706D01*
X2026Y706D01*
X2026Y708D01*
X2027Y708D01*
X2027Y712D01*
X2028Y712D01*
X2028Y714D01*
X2029Y714D01*
X2029Y716D01*
X2030Y716D01*
X2030Y718D01*
X2031Y718D01*
X2031Y720D01*
X2032Y720D01*
X2032Y722D01*
X2033Y722D01*
X2033Y724D01*
X2034Y724D01*
X2034Y725D01*
X2035Y725D01*
X2035Y726D01*
X2050Y726D01*
X2050Y727D01*
X2052Y727D01*
X2052Y729D01*
X2053Y729D01*
X2053Y730D01*
X2052Y730D01*
X2052Y732D01*
X2051Y732D01*
X2051Y733D01*
X2034Y733D01*
G37*
D02*
G36*
X2071Y733D02*
X2071Y732D01*
X2070Y732D01*
X2070Y728D01*
X2071Y728D01*
X2071Y727D01*
X2072Y727D01*
X2072Y726D01*
X2083Y726D01*
X2083Y688D01*
X2090Y688D01*
X2090Y689D01*
X2089Y689D01*
X2089Y733D01*
X2071Y733D01*
G37*
D02*
G36*
X2097Y705D02*
X2097Y704D01*
X2096Y704D01*
X2096Y688D01*
X2103Y688D01*
X2103Y702D01*
X2102Y702D01*
X2102Y704D01*
X2101Y704D01*
X2101Y705D01*
X2097Y705D01*
G37*
D02*
G36*
X2071Y688D02*
X2071Y687D01*
X2103Y687D01*
X2103Y688D01*
X2071Y688D01*
G37*
D02*
G36*
X2071Y688D02*
X2071Y687D01*
X2103Y687D01*
X2103Y688D01*
X2071Y688D01*
G37*
D02*
G36*
X2070Y687D02*
X2070Y683D01*
X2071Y683D01*
X2071Y682D01*
X2101Y682D01*
X2101Y683D01*
X2102Y683D01*
X2102Y685D01*
X2103Y685D01*
X2103Y687D01*
X2070Y687D01*
G37*
D02*
G36*
X912Y675D02*
X912Y669D01*
X936Y669D01*
X936Y668D01*
X937Y668D01*
X937Y667D01*
X938Y667D01*
X938Y661D01*
X937Y661D01*
X937Y659D01*
X944Y659D01*
X944Y670D01*
X943Y670D01*
X943Y671D01*
X942Y671D01*
X942Y673D01*
X940Y673D01*
X940Y674D01*
X939Y674D01*
X939Y675D01*
X912Y675D01*
G37*
D02*
G36*
X912Y669D02*
X912Y659D01*
X918Y659D01*
X918Y668D01*
X919Y668D01*
X919Y669D01*
X912Y669D01*
G37*
D02*
G36*
X912Y659D02*
X912Y658D01*
X944Y658D01*
X944Y659D01*
X912Y659D01*
G37*
D02*
G36*
X912Y659D02*
X912Y658D01*
X944Y658D01*
X944Y659D01*
X912Y659D01*
G37*
D02*
G36*
X912Y658D02*
X912Y652D01*
X923Y652D01*
X923Y651D01*
X924Y651D01*
X924Y649D01*
X925Y649D01*
X925Y648D01*
X926Y648D01*
X926Y646D01*
X927Y646D01*
X927Y644D01*
X928Y644D01*
X928Y642D01*
X929Y642D01*
X929Y641D01*
X930Y641D01*
X930Y639D01*
X931Y639D01*
X931Y637D01*
X932Y637D01*
X932Y636D01*
X933Y636D01*
X933Y634D01*
X934Y634D01*
X934Y632D01*
X935Y632D01*
X935Y630D01*
X936Y630D01*
X936Y629D01*
X937Y629D01*
X937Y627D01*
X938Y627D01*
X938Y625D01*
X940Y625D01*
X940Y624D01*
X943Y624D01*
X943Y625D01*
X944Y625D01*
X944Y630D01*
X943Y630D01*
X943Y632D01*
X942Y632D01*
X942Y633D01*
X941Y633D01*
X941Y635D01*
X940Y635D01*
X940Y637D01*
X939Y637D01*
X939Y638D01*
X938Y638D01*
X938Y640D01*
X937Y640D01*
X937Y642D01*
X936Y642D01*
X936Y644D01*
X935Y644D01*
X935Y645D01*
X934Y645D01*
X934Y647D01*
X933Y647D01*
X933Y649D01*
X932Y649D01*
X932Y650D01*
X931Y650D01*
X931Y652D01*
X938Y652D01*
X938Y653D01*
X940Y653D01*
X940Y654D01*
X941Y654D01*
X941Y655D01*
X942Y655D01*
X942Y656D01*
X943Y656D01*
X943Y658D01*
X912Y658D01*
G37*
D02*
G36*
X912Y652D02*
X912Y625D01*
X913Y625D01*
X913Y624D01*
X917Y624D01*
X917Y625D01*
X918Y625D01*
X918Y652D01*
X912Y652D01*
G37*
D02*
G36*
X963Y675D02*
X963Y674D01*
X962Y674D01*
X962Y670D01*
X963Y670D01*
X963Y669D01*
X975Y669D01*
X975Y631D01*
X981Y631D01*
X981Y675D01*
X963Y675D01*
G37*
D02*
G36*
X989Y647D02*
X989Y646D01*
X988Y646D01*
X988Y631D01*
X994Y631D01*
X994Y646D01*
X993Y646D01*
X993Y647D01*
X989Y647D01*
G37*
D02*
G36*
X964Y631D02*
X964Y630D01*
X994Y630D01*
X994Y631D01*
X964Y631D01*
G37*
D02*
G36*
X964Y631D02*
X964Y630D01*
X994Y630D01*
X994Y631D01*
X964Y631D01*
G37*
D02*
G36*
X963Y630D02*
X963Y629D01*
X962Y629D01*
X962Y625D01*
X963Y625D01*
X963Y624D01*
X993Y624D01*
X993Y625D01*
X994Y625D01*
X994Y630D01*
X963Y630D01*
G37*
D02*
G36*
X1018Y675D02*
X1018Y647D01*
X1019Y647D01*
X1019Y646D01*
X1038Y646D01*
X1038Y631D01*
X1044Y631D01*
X1044Y650D01*
X1043Y650D01*
X1043Y651D01*
X1042Y651D01*
X1042Y652D01*
X1040Y652D01*
X1040Y653D01*
X1025Y653D01*
X1025Y669D01*
X1043Y669D01*
X1043Y670D01*
X1044Y670D01*
X1044Y674D01*
X1043Y674D01*
X1043Y675D01*
X1018Y675D01*
G37*
D02*
G36*
X1013Y633D02*
X1013Y632D01*
X1012Y632D01*
X1012Y631D01*
X1020Y631D01*
X1020Y632D01*
X1018Y632D01*
X1018Y633D01*
X1013Y633D01*
G37*
D02*
G36*
X1012Y631D02*
X1012Y630D01*
X1044Y630D01*
X1044Y631D01*
X1012Y631D01*
G37*
D02*
G36*
X1012Y631D02*
X1012Y630D01*
X1044Y630D01*
X1044Y631D01*
X1012Y631D01*
G37*
D02*
G36*
X1012Y630D02*
X1012Y628D01*
X1013Y628D01*
X1013Y627D01*
X1015Y627D01*
X1015Y626D01*
X1017Y626D01*
X1017Y625D01*
X1020Y625D01*
X1020Y624D01*
X1040Y624D01*
X1040Y625D01*
X1042Y625D01*
X1042Y626D01*
X1043Y626D01*
X1043Y627D01*
X1044Y627D01*
X1044Y630D01*
X1012Y630D01*
G37*
D02*
G36*
X1312Y581D02*
X1312Y575D01*
X1336Y575D01*
X1336Y574D01*
X1337Y574D01*
X1337Y573D01*
X1338Y573D01*
X1338Y567D01*
X1337Y567D01*
X1337Y565D01*
X1344Y565D01*
X1344Y575D01*
X1343Y575D01*
X1343Y577D01*
X1342Y577D01*
X1342Y578D01*
X1341Y578D01*
X1341Y579D01*
X1340Y579D01*
X1340Y580D01*
X1339Y580D01*
X1339Y581D01*
X1312Y581D01*
G37*
D02*
G36*
X1312Y575D02*
X1312Y565D01*
X1318Y565D01*
X1318Y575D01*
X1312Y575D01*
G37*
D02*
G36*
X1312Y565D02*
X1312Y564D01*
X1344Y564D01*
X1344Y565D01*
X1312Y565D01*
G37*
D02*
G36*
X1312Y565D02*
X1312Y564D01*
X1344Y564D01*
X1344Y565D01*
X1312Y565D01*
G37*
D02*
G36*
X1312Y564D02*
X1312Y558D01*
X1323Y558D01*
X1323Y557D01*
X1324Y557D01*
X1324Y555D01*
X1325Y555D01*
X1325Y553D01*
X1326Y553D01*
X1326Y552D01*
X1327Y552D01*
X1327Y550D01*
X1328Y550D01*
X1328Y548D01*
X1329Y548D01*
X1329Y547D01*
X1330Y547D01*
X1330Y545D01*
X1331Y545D01*
X1331Y543D01*
X1332Y543D01*
X1332Y541D01*
X1333Y541D01*
X1333Y540D01*
X1334Y540D01*
X1334Y538D01*
X1335Y538D01*
X1335Y536D01*
X1336Y536D01*
X1336Y535D01*
X1337Y535D01*
X1337Y533D01*
X1338Y533D01*
X1338Y531D01*
X1339Y531D01*
X1339Y530D01*
X1343Y530D01*
X1343Y531D01*
X1344Y531D01*
X1344Y536D01*
X1343Y536D01*
X1343Y537D01*
X1342Y537D01*
X1342Y539D01*
X1341Y539D01*
X1341Y541D01*
X1340Y541D01*
X1340Y543D01*
X1339Y543D01*
X1339Y544D01*
X1338Y544D01*
X1338Y546D01*
X1337Y546D01*
X1337Y548D01*
X1336Y548D01*
X1336Y549D01*
X1335Y549D01*
X1335Y551D01*
X1334Y551D01*
X1334Y553D01*
X1333Y553D01*
X1333Y555D01*
X1332Y555D01*
X1332Y556D01*
X1331Y556D01*
X1331Y558D01*
X1337Y558D01*
X1337Y559D01*
X1340Y559D01*
X1340Y560D01*
X1341Y560D01*
X1341Y561D01*
X1342Y561D01*
X1342Y562D01*
X1343Y562D01*
X1343Y564D01*
X1312Y564D01*
G37*
D02*
G36*
X1312Y558D02*
X1312Y531D01*
X1313Y531D01*
X1313Y530D01*
X1316Y530D01*
X1316Y531D01*
X1318Y531D01*
X1318Y558D01*
X1312Y558D01*
G37*
D02*
G36*
X1363Y581D02*
X1363Y580D01*
X1362Y580D01*
X1362Y576D01*
X1363Y576D01*
X1363Y575D01*
X1374Y575D01*
X1374Y574D01*
X1375Y574D01*
X1375Y537D01*
X1381Y537D01*
X1381Y581D01*
X1363Y581D01*
G37*
D02*
G36*
X1389Y553D02*
X1389Y552D01*
X1388Y552D01*
X1388Y537D01*
X1394Y537D01*
X1394Y552D01*
X1393Y552D01*
X1393Y553D01*
X1389Y553D01*
G37*
D02*
G36*
X1364Y537D02*
X1364Y536D01*
X1394Y536D01*
X1394Y537D01*
X1364Y537D01*
G37*
D02*
G36*
X1364Y537D02*
X1364Y536D01*
X1394Y536D01*
X1394Y537D01*
X1364Y537D01*
G37*
D02*
G36*
X1362Y536D02*
X1362Y531D01*
X1363Y531D01*
X1363Y530D01*
X1393Y530D01*
X1393Y531D01*
X1394Y531D01*
X1394Y536D01*
X1362Y536D01*
G37*
D02*
G36*
X1413Y581D02*
X1413Y580D01*
X1412Y580D01*
X1412Y576D01*
X1413Y576D01*
X1413Y575D01*
X1424Y575D01*
X1424Y574D01*
X1425Y574D01*
X1425Y537D01*
X1431Y537D01*
X1431Y581D01*
X1413Y581D01*
G37*
D02*
G36*
X1439Y553D02*
X1439Y552D01*
X1438Y552D01*
X1438Y537D01*
X1444Y537D01*
X1444Y552D01*
X1443Y552D01*
X1443Y553D01*
X1439Y553D01*
G37*
D02*
G36*
X1414Y537D02*
X1414Y536D01*
X1444Y536D01*
X1444Y537D01*
X1414Y537D01*
G37*
D02*
G36*
X1414Y537D02*
X1414Y536D01*
X1444Y536D01*
X1444Y537D01*
X1414Y537D01*
G37*
D02*
G36*
X1412Y536D02*
X1412Y531D01*
X1413Y531D01*
X1413Y530D01*
X1443Y530D01*
X1443Y531D01*
X1444Y531D01*
X1444Y536D01*
X1412Y536D01*
G37*
D02*
G36*
X556Y542D02*
X556Y541D01*
X555Y541D01*
X555Y537D01*
X556Y537D01*
X556Y536D01*
X557Y536D01*
X557Y535D01*
X572Y535D01*
X572Y534D01*
X573Y534D01*
X573Y533D01*
X574Y533D01*
X574Y531D01*
X575Y531D01*
X575Y529D01*
X576Y529D01*
X576Y527D01*
X577Y527D01*
X577Y525D01*
X578Y525D01*
X578Y523D01*
X579Y523D01*
X579Y521D01*
X580Y521D01*
X580Y519D01*
X581Y519D01*
X581Y514D01*
X580Y514D01*
X580Y512D01*
X579Y512D01*
X579Y510D01*
X578Y510D01*
X578Y508D01*
X577Y508D01*
X577Y506D01*
X576Y506D01*
X576Y504D01*
X575Y504D01*
X575Y502D01*
X574Y502D01*
X574Y500D01*
X573Y500D01*
X573Y498D01*
X571Y498D01*
X571Y497D01*
X580Y497D01*
X580Y499D01*
X581Y499D01*
X581Y501D01*
X582Y501D01*
X582Y503D01*
X583Y503D01*
X583Y505D01*
X584Y505D01*
X584Y507D01*
X585Y507D01*
X585Y509D01*
X586Y509D01*
X586Y511D01*
X587Y511D01*
X587Y516D01*
X588Y516D01*
X588Y517D01*
X587Y517D01*
X587Y522D01*
X586Y522D01*
X586Y524D01*
X585Y524D01*
X585Y526D01*
X584Y526D01*
X584Y528D01*
X583Y528D01*
X583Y530D01*
X582Y530D01*
X582Y532D01*
X581Y532D01*
X581Y534D01*
X580Y534D01*
X580Y536D01*
X579Y536D01*
X579Y538D01*
X578Y538D01*
X578Y539D01*
X577Y539D01*
X577Y540D01*
X576Y540D01*
X576Y541D01*
X573Y541D01*
X573Y542D01*
X556Y542D01*
G37*
D02*
G36*
X561Y535D02*
X561Y497D01*
X568Y497D01*
X568Y535D01*
X561Y535D01*
G37*
D02*
G36*
X556Y497D02*
X556Y496D01*
X579Y496D01*
X579Y497D01*
X556Y497D01*
G37*
D02*
G36*
X556Y497D02*
X556Y496D01*
X579Y496D01*
X579Y497D01*
X556Y497D01*
G37*
D02*
G36*
X555Y496D02*
X555Y492D01*
X556Y492D01*
X556Y491D01*
X574Y491D01*
X574Y492D01*
X576Y492D01*
X576Y493D01*
X577Y493D01*
X577Y494D01*
X578Y494D01*
X578Y495D01*
X579Y495D01*
X579Y496D01*
X555Y496D01*
G37*
D02*
G36*
X611Y542D02*
X611Y513D01*
X631Y513D01*
X631Y497D01*
X638Y497D01*
X638Y513D01*
X637Y513D01*
X637Y517D01*
X636Y517D01*
X636Y518D01*
X635Y518D01*
X635Y519D01*
X632Y519D01*
X632Y520D01*
X618Y520D01*
X618Y535D01*
X635Y535D01*
X635Y536D01*
X637Y536D01*
X637Y541D01*
X636Y541D01*
X636Y542D01*
X611Y542D01*
G37*
D02*
G36*
X606Y500D02*
X606Y499D01*
X605Y499D01*
X605Y497D01*
X615Y497D01*
X615Y498D01*
X612Y498D01*
X612Y499D01*
X610Y499D01*
X610Y500D01*
X606Y500D01*
G37*
D02*
G36*
X605Y497D02*
X605Y496D01*
X637Y496D01*
X637Y497D01*
X605Y497D01*
G37*
D02*
G36*
X605Y497D02*
X605Y496D01*
X637Y496D01*
X637Y497D01*
X605Y497D01*
G37*
D02*
G36*
X605Y496D02*
X605Y495D01*
X606Y495D01*
X606Y494D01*
X607Y494D01*
X607Y493D01*
X610Y493D01*
X610Y492D01*
X612Y492D01*
X612Y491D01*
X634Y491D01*
X634Y492D01*
X635Y492D01*
X635Y493D01*
X636Y493D01*
X636Y494D01*
X637Y494D01*
X637Y496D01*
X605Y496D01*
G37*
D02*
G36*
X2092Y376D02*
X2092Y375D01*
X2091Y375D01*
X2091Y369D01*
X2116Y369D01*
X2116Y368D01*
X2117Y368D01*
X2117Y360D01*
X2116Y360D01*
X2116Y359D01*
X2124Y359D01*
X2124Y369D01*
X2123Y369D01*
X2123Y371D01*
X2122Y371D01*
X2122Y372D01*
X2121Y372D01*
X2121Y373D01*
X2120Y373D01*
X2120Y374D01*
X2118Y374D01*
X2118Y375D01*
X2094Y375D01*
X2094Y376D01*
X2092Y376D01*
G37*
D02*
G36*
X2091Y369D02*
X2091Y359D01*
X2098Y359D01*
X2098Y369D01*
X2091Y369D01*
G37*
D02*
G36*
X2091Y359D02*
X2091Y358D01*
X2123Y358D01*
X2123Y359D01*
X2091Y359D01*
G37*
D02*
G36*
X2091Y359D02*
X2091Y358D01*
X2123Y358D01*
X2123Y359D01*
X2091Y359D01*
G37*
D02*
G36*
X2091Y358D02*
X2091Y352D01*
X2103Y352D01*
X2103Y350D01*
X2104Y350D01*
X2104Y349D01*
X2105Y349D01*
X2105Y347D01*
X2106Y347D01*
X2106Y345D01*
X2107Y345D01*
X2107Y343D01*
X2108Y343D01*
X2108Y342D01*
X2109Y342D01*
X2109Y340D01*
X2110Y340D01*
X2110Y338D01*
X2111Y338D01*
X2111Y337D01*
X2112Y337D01*
X2112Y335D01*
X2113Y335D01*
X2113Y333D01*
X2114Y333D01*
X2114Y332D01*
X2115Y332D01*
X2115Y330D01*
X2116Y330D01*
X2116Y328D01*
X2117Y328D01*
X2117Y326D01*
X2118Y326D01*
X2118Y325D01*
X2119Y325D01*
X2119Y324D01*
X2122Y324D01*
X2122Y325D01*
X2123Y325D01*
X2123Y326D01*
X2124Y326D01*
X2124Y329D01*
X2123Y329D01*
X2123Y331D01*
X2122Y331D01*
X2122Y333D01*
X2121Y333D01*
X2121Y334D01*
X2120Y334D01*
X2120Y336D01*
X2119Y336D01*
X2119Y338D01*
X2118Y338D01*
X2118Y340D01*
X2117Y340D01*
X2117Y341D01*
X2116Y341D01*
X2116Y343D01*
X2115Y343D01*
X2115Y345D01*
X2114Y345D01*
X2114Y346D01*
X2113Y346D01*
X2113Y348D01*
X2112Y348D01*
X2112Y350D01*
X2111Y350D01*
X2111Y352D01*
X2117Y352D01*
X2117Y353D01*
X2119Y353D01*
X2119Y354D01*
X2121Y354D01*
X2121Y355D01*
X2122Y355D01*
X2122Y357D01*
X2123Y357D01*
X2123Y358D01*
X2091Y358D01*
G37*
D02*
G36*
X2091Y352D02*
X2091Y326D01*
X2092Y326D01*
X2092Y325D01*
X2093Y325D01*
X2093Y324D01*
X2096Y324D01*
X2096Y325D01*
X2097Y325D01*
X2097Y326D01*
X2098Y326D01*
X2098Y352D01*
X2091Y352D01*
G37*
D02*
G36*
X2159Y376D02*
X2159Y375D01*
X2142Y375D01*
X2142Y373D01*
X2141Y373D01*
X2141Y371D01*
X2142Y371D01*
X2142Y370D01*
X2143Y370D01*
X2143Y369D01*
X2154Y369D01*
X2154Y331D01*
X2161Y331D01*
X2161Y375D01*
X2160Y375D01*
X2160Y376D01*
X2159Y376D01*
G37*
D02*
G36*
X2170Y348D02*
X2170Y347D01*
X2168Y347D01*
X2168Y345D01*
X2167Y345D01*
X2167Y331D01*
X2174Y331D01*
X2174Y346D01*
X2173Y346D01*
X2173Y347D01*
X2171Y347D01*
X2171Y348D01*
X2170Y348D01*
G37*
D02*
G36*
X2143Y331D02*
X2143Y330D01*
X2174Y330D01*
X2174Y331D01*
X2143Y331D01*
G37*
D02*
G36*
X2143Y331D02*
X2143Y330D01*
X2174Y330D01*
X2174Y331D01*
X2143Y331D01*
G37*
D02*
G36*
X2142Y330D02*
X2142Y329D01*
X2141Y329D01*
X2141Y326D01*
X2142Y326D01*
X2142Y325D01*
X2143Y325D01*
X2143Y324D01*
X2172Y324D01*
X2172Y325D01*
X2173Y325D01*
X2173Y326D01*
X2174Y326D01*
X2174Y330D01*
X2142Y330D01*
G37*
D02*
G36*
X2192Y375D02*
X2192Y373D01*
X2191Y373D01*
X2191Y371D01*
X2192Y371D01*
X2192Y370D01*
X2193Y370D01*
X2193Y369D01*
X2217Y369D01*
X2217Y354D01*
X2215Y354D01*
X2215Y353D01*
X2199Y353D01*
X2199Y352D01*
X2198Y352D01*
X2198Y348D01*
X2199Y348D01*
X2199Y347D01*
X2213Y347D01*
X2213Y346D01*
X2216Y346D01*
X2216Y345D01*
X2217Y345D01*
X2217Y331D01*
X2193Y331D01*
X2193Y330D01*
X2192Y330D01*
X2192Y329D01*
X2191Y329D01*
X2191Y326D01*
X2192Y326D01*
X2192Y325D01*
X2193Y325D01*
X2193Y324D01*
X2219Y324D01*
X2219Y325D01*
X2221Y325D01*
X2221Y326D01*
X2222Y326D01*
X2222Y327D01*
X2223Y327D01*
X2223Y328D01*
X2224Y328D01*
X2224Y346D01*
X2223Y346D01*
X2223Y348D01*
X2222Y348D01*
X2222Y351D01*
X2223Y351D01*
X2223Y353D01*
X2224Y353D01*
X2224Y371D01*
X2223Y371D01*
X2223Y373D01*
X2222Y373D01*
X2222Y374D01*
X2221Y374D01*
X2221Y375D01*
X2192Y375D01*
G37*
D02*
G36*
X556Y298D02*
X556Y297D01*
X555Y297D01*
X555Y293D01*
X556Y293D01*
X556Y292D01*
X557Y292D01*
X557Y291D01*
X572Y291D01*
X572Y290D01*
X573Y290D01*
X573Y289D01*
X574Y289D01*
X574Y287D01*
X575Y287D01*
X575Y285D01*
X576Y285D01*
X576Y283D01*
X577Y283D01*
X577Y281D01*
X578Y281D01*
X578Y279D01*
X579Y279D01*
X579Y277D01*
X580Y277D01*
X580Y275D01*
X581Y275D01*
X581Y270D01*
X580Y270D01*
X580Y268D01*
X579Y268D01*
X579Y266D01*
X578Y266D01*
X578Y264D01*
X577Y264D01*
X577Y262D01*
X576Y262D01*
X576Y260D01*
X575Y260D01*
X575Y258D01*
X574Y258D01*
X574Y256D01*
X573Y256D01*
X573Y254D01*
X571Y254D01*
X571Y253D01*
X580Y253D01*
X580Y255D01*
X581Y255D01*
X581Y257D01*
X582Y257D01*
X582Y259D01*
X583Y259D01*
X583Y261D01*
X584Y261D01*
X584Y263D01*
X585Y263D01*
X585Y265D01*
X586Y265D01*
X586Y267D01*
X587Y267D01*
X587Y272D01*
X588Y272D01*
X588Y273D01*
X587Y273D01*
X587Y278D01*
X586Y278D01*
X586Y280D01*
X585Y280D01*
X585Y282D01*
X584Y282D01*
X584Y284D01*
X583Y284D01*
X583Y286D01*
X582Y286D01*
X582Y288D01*
X581Y288D01*
X581Y290D01*
X580Y290D01*
X580Y292D01*
X579Y292D01*
X579Y294D01*
X578Y294D01*
X578Y295D01*
X577Y295D01*
X577Y296D01*
X575Y296D01*
X575Y297D01*
X573Y297D01*
X573Y298D01*
X556Y298D01*
G37*
D02*
G36*
X561Y291D02*
X561Y253D01*
X568Y253D01*
X568Y291D01*
X561Y291D01*
G37*
D02*
G36*
X556Y253D02*
X556Y252D01*
X579Y252D01*
X579Y253D01*
X556Y253D01*
G37*
D02*
G36*
X556Y253D02*
X556Y252D01*
X579Y252D01*
X579Y253D01*
X556Y253D01*
G37*
D02*
G36*
X555Y252D02*
X555Y248D01*
X556Y248D01*
X556Y247D01*
X574Y247D01*
X574Y248D01*
X576Y248D01*
X576Y249D01*
X577Y249D01*
X577Y250D01*
X578Y250D01*
X578Y251D01*
X579Y251D01*
X579Y252D01*
X555Y252D01*
G37*
D02*
G36*
X606Y298D02*
X606Y297D01*
X605Y297D01*
X605Y291D01*
X631Y291D01*
X631Y279D01*
X630Y279D01*
X630Y278D01*
X629Y278D01*
X629Y277D01*
X627Y277D01*
X627Y276D01*
X626Y276D01*
X626Y275D01*
X625Y275D01*
X625Y274D01*
X624Y274D01*
X624Y273D01*
X623Y273D01*
X623Y272D01*
X622Y272D01*
X622Y271D01*
X620Y271D01*
X620Y270D01*
X619Y270D01*
X619Y269D01*
X618Y269D01*
X618Y248D01*
X619Y248D01*
X619Y247D01*
X623Y247D01*
X623Y248D01*
X624Y248D01*
X624Y265D01*
X625Y265D01*
X625Y266D01*
X626Y266D01*
X626Y267D01*
X627Y267D01*
X627Y268D01*
X628Y268D01*
X628Y269D01*
X630Y269D01*
X630Y270D01*
X631Y270D01*
X631Y271D01*
X632Y271D01*
X632Y272D01*
X633Y272D01*
X633Y273D01*
X634Y273D01*
X634Y274D01*
X635Y274D01*
X635Y275D01*
X636Y275D01*
X636Y276D01*
X637Y276D01*
X637Y278D01*
X638Y278D01*
X638Y298D01*
X606Y298D01*
G37*
D02*
G36*
X605Y291D02*
X605Y290D01*
X606Y290D01*
X606Y289D01*
X610Y289D01*
X610Y290D01*
X611Y290D01*
X611Y291D01*
X605Y291D01*
G37*
D02*
G36*
X2089Y276D02*
X2089Y275D01*
X2088Y275D01*
X2088Y269D01*
X2113Y269D01*
X2113Y268D01*
X2114Y268D01*
X2114Y260D01*
X2113Y260D01*
X2113Y259D01*
X2121Y259D01*
X2121Y269D01*
X2120Y269D01*
X2120Y271D01*
X2119Y271D01*
X2119Y272D01*
X2118Y272D01*
X2118Y273D01*
X2117Y273D01*
X2117Y274D01*
X2115Y274D01*
X2115Y275D01*
X2111Y275D01*
X2111Y276D01*
X2089Y276D01*
G37*
D02*
G36*
X2088Y269D02*
X2088Y259D01*
X2095Y259D01*
X2095Y269D01*
X2088Y269D01*
G37*
D02*
G36*
X2088Y259D02*
X2088Y258D01*
X2120Y258D01*
X2120Y259D01*
X2088Y259D01*
G37*
D02*
G36*
X2088Y259D02*
X2088Y258D01*
X2120Y258D01*
X2120Y259D01*
X2088Y259D01*
G37*
D02*
G36*
X2088Y258D02*
X2088Y252D01*
X2100Y252D01*
X2100Y250D01*
X2101Y250D01*
X2101Y249D01*
X2102Y249D01*
X2102Y247D01*
X2103Y247D01*
X2103Y245D01*
X2104Y245D01*
X2104Y243D01*
X2105Y243D01*
X2105Y242D01*
X2106Y242D01*
X2106Y240D01*
X2107Y240D01*
X2107Y238D01*
X2108Y238D01*
X2108Y237D01*
X2109Y237D01*
X2109Y235D01*
X2110Y235D01*
X2110Y233D01*
X2111Y233D01*
X2111Y231D01*
X2112Y231D01*
X2112Y230D01*
X2113Y230D01*
X2113Y228D01*
X2114Y228D01*
X2114Y226D01*
X2115Y226D01*
X2115Y225D01*
X2116Y225D01*
X2116Y224D01*
X2119Y224D01*
X2119Y225D01*
X2120Y225D01*
X2120Y226D01*
X2121Y226D01*
X2121Y229D01*
X2120Y229D01*
X2120Y231D01*
X2119Y231D01*
X2119Y233D01*
X2118Y233D01*
X2118Y234D01*
X2117Y234D01*
X2117Y236D01*
X2116Y236D01*
X2116Y238D01*
X2115Y238D01*
X2115Y240D01*
X2114Y240D01*
X2114Y241D01*
X2113Y241D01*
X2113Y243D01*
X2112Y243D01*
X2112Y245D01*
X2111Y245D01*
X2111Y246D01*
X2110Y246D01*
X2110Y248D01*
X2109Y248D01*
X2109Y250D01*
X2108Y250D01*
X2108Y252D01*
X2114Y252D01*
X2114Y253D01*
X2116Y253D01*
X2116Y254D01*
X2117Y254D01*
X2117Y255D01*
X2119Y255D01*
X2119Y257D01*
X2120Y257D01*
X2120Y258D01*
X2088Y258D01*
G37*
D02*
G36*
X2088Y252D02*
X2088Y226D01*
X2089Y226D01*
X2089Y225D01*
X2090Y225D01*
X2090Y224D01*
X2093Y224D01*
X2093Y225D01*
X2094Y225D01*
X2094Y226D01*
X2095Y226D01*
X2095Y252D01*
X2088Y252D01*
G37*
D02*
G36*
X2141Y276D02*
X2141Y275D01*
X2139Y275D01*
X2139Y274D01*
X2138Y274D01*
X2138Y271D01*
X2139Y271D01*
X2139Y270D01*
X2140Y270D01*
X2140Y269D01*
X2151Y269D01*
X2151Y231D01*
X2158Y231D01*
X2158Y275D01*
X2157Y275D01*
X2157Y276D01*
X2141Y276D01*
G37*
D02*
G36*
X2167Y248D02*
X2167Y247D01*
X2165Y247D01*
X2165Y245D01*
X2164Y245D01*
X2164Y231D01*
X2171Y231D01*
X2171Y246D01*
X2170Y246D01*
X2170Y247D01*
X2168Y247D01*
X2168Y248D01*
X2167Y248D01*
G37*
D02*
G36*
X2140Y231D02*
X2140Y230D01*
X2171Y230D01*
X2171Y231D01*
X2140Y231D01*
G37*
D02*
G36*
X2140Y231D02*
X2140Y230D01*
X2171Y230D01*
X2171Y231D01*
X2140Y231D01*
G37*
D02*
G36*
X2139Y230D02*
X2139Y229D01*
X2138Y229D01*
X2138Y226D01*
X2139Y226D01*
X2139Y225D01*
X2140Y225D01*
X2140Y224D01*
X2169Y224D01*
X2169Y225D01*
X2170Y225D01*
X2170Y226D01*
X2171Y226D01*
X2171Y230D01*
X2139Y230D01*
G37*
D02*
G36*
X2195Y276D02*
X2195Y275D01*
X2191Y275D01*
X2191Y274D01*
X2190Y274D01*
X2190Y273D01*
X2189Y273D01*
X2189Y271D01*
X2188Y271D01*
X2188Y269D01*
X2214Y269D01*
X2214Y231D01*
X2221Y231D01*
X2221Y271D01*
X2220Y271D01*
X2220Y273D01*
X2219Y273D01*
X2219Y274D01*
X2218Y274D01*
X2218Y275D01*
X2214Y275D01*
X2214Y276D01*
X2195Y276D01*
G37*
D02*
G36*
X2188Y269D02*
X2188Y231D01*
X2195Y231D01*
X2195Y269D01*
X2188Y269D01*
G37*
D02*
G36*
X2188Y231D02*
X2188Y230D01*
X2221Y230D01*
X2221Y231D01*
X2188Y231D01*
G37*
D02*
G36*
X2188Y231D02*
X2188Y230D01*
X2221Y230D01*
X2221Y231D01*
X2188Y231D01*
G37*
D02*
G36*
X2188Y230D02*
X2188Y229D01*
X2189Y229D01*
X2189Y227D01*
X2190Y227D01*
X2190Y226D01*
X2191Y226D01*
X2191Y225D01*
X2193Y225D01*
X2193Y224D01*
X2216Y224D01*
X2216Y225D01*
X2218Y225D01*
X2218Y226D01*
X2219Y226D01*
X2219Y227D01*
X2220Y227D01*
X2220Y228D01*
X2221Y228D01*
X2221Y230D01*
X2188Y230D01*
G37*
D02*
G36*
X2149Y207D02*
X2149Y206D01*
X2148Y206D01*
X2148Y204D01*
X2147Y204D01*
X2147Y197D01*
X2148Y197D01*
X2148Y195D01*
X2149Y195D01*
X2149Y194D01*
X2159Y194D01*
X2159Y195D01*
X2160Y195D01*
X2160Y196D01*
X2161Y196D01*
X2161Y205D01*
X2160Y205D01*
X2160Y206D01*
X2159Y206D01*
X2159Y207D01*
X2149Y207D01*
G37*
D02*
G36*
X2010Y203D02*
X2010Y202D01*
X2009Y202D01*
X2009Y201D01*
X2008Y201D01*
X2008Y198D01*
X2007Y198D01*
X2007Y194D01*
X2006Y194D01*
X2006Y191D01*
X2005Y191D01*
X2005Y188D01*
X2004Y188D01*
X2004Y184D01*
X2003Y184D01*
X2003Y181D01*
X2013Y181D01*
X2013Y179D01*
X2014Y179D01*
X2014Y175D01*
X2015Y175D01*
X2015Y172D01*
X2016Y172D01*
X2016Y168D01*
X2017Y168D01*
X2017Y165D01*
X2018Y165D01*
X2018Y161D01*
X2019Y161D01*
X2019Y158D01*
X2020Y158D01*
X2020Y155D01*
X2030Y155D01*
X2030Y158D01*
X2029Y158D01*
X2029Y161D01*
X2028Y161D01*
X2028Y165D01*
X2027Y165D01*
X2027Y168D01*
X2026Y168D01*
X2026Y172D01*
X2025Y172D01*
X2025Y175D01*
X2024Y175D01*
X2024Y178D01*
X2023Y178D01*
X2023Y182D01*
X2022Y182D01*
X2022Y185D01*
X2021Y185D01*
X2021Y189D01*
X2020Y189D01*
X2020Y192D01*
X2019Y192D01*
X2019Y195D01*
X2018Y195D01*
X2018Y199D01*
X2017Y199D01*
X2017Y201D01*
X2016Y201D01*
X2016Y202D01*
X2015Y202D01*
X2015Y203D01*
X2010Y203D01*
G37*
D02*
G36*
X2002Y181D02*
X2002Y177D01*
X2001Y177D01*
X2001Y174D01*
X2000Y174D01*
X2000Y171D01*
X1999Y171D01*
X1999Y167D01*
X1998Y167D01*
X1998Y164D01*
X1997Y164D01*
X1997Y160D01*
X1996Y160D01*
X1996Y157D01*
X1995Y157D01*
X1995Y155D01*
X2005Y155D01*
X2005Y157D01*
X2006Y157D01*
X2006Y160D01*
X2007Y160D01*
X2007Y164D01*
X2008Y164D01*
X2008Y167D01*
X2009Y167D01*
X2009Y171D01*
X2010Y171D01*
X2010Y174D01*
X2011Y174D01*
X2011Y177D01*
X2012Y177D01*
X2012Y181D01*
X2002Y181D01*
G37*
D02*
G36*
X1995Y155D02*
X1995Y154D01*
X2031Y154D01*
X2031Y155D01*
X1995Y155D01*
G37*
D02*
G36*
X1995Y155D02*
X1995Y154D01*
X2031Y154D01*
X2031Y155D01*
X1995Y155D01*
G37*
D02*
G36*
X1995Y154D02*
X1995Y153D01*
X1994Y153D01*
X1994Y150D01*
X1993Y150D01*
X1993Y147D01*
X1992Y147D01*
X1992Y145D01*
X2023Y145D01*
X2023Y144D01*
X2024Y144D01*
X2024Y141D01*
X2025Y141D01*
X2025Y137D01*
X2026Y137D01*
X2026Y134D01*
X2027Y134D01*
X2027Y132D01*
X2028Y132D01*
X2028Y130D01*
X2030Y130D01*
X2030Y129D01*
X2033Y129D01*
X2033Y130D01*
X2035Y130D01*
X2035Y132D01*
X2036Y132D01*
X2036Y137D01*
X2035Y137D01*
X2035Y141D01*
X2034Y141D01*
X2034Y144D01*
X2033Y144D01*
X2033Y148D01*
X2032Y148D01*
X2032Y151D01*
X2031Y151D01*
X2031Y154D01*
X1995Y154D01*
G37*
D02*
G36*
X1992Y145D02*
X1992Y143D01*
X1991Y143D01*
X1991Y140D01*
X1990Y140D01*
X1990Y136D01*
X1989Y136D01*
X1989Y132D01*
X1990Y132D01*
X1990Y131D01*
X1991Y131D01*
X1991Y130D01*
X1993Y130D01*
X1993Y129D01*
X1995Y129D01*
X1995Y130D01*
X1997Y130D01*
X1997Y131D01*
X1998Y131D01*
X1998Y133D01*
X1999Y133D01*
X1999Y136D01*
X2000Y136D01*
X2000Y140D01*
X2001Y140D01*
X2001Y143D01*
X2002Y143D01*
X2002Y145D01*
X1992Y145D01*
G37*
D02*
G36*
X2637Y203D02*
X2637Y194D01*
X2674Y194D01*
X2674Y193D01*
X2675Y193D01*
X2675Y188D01*
X2676Y188D01*
X2676Y187D01*
X2677Y187D01*
X2677Y186D01*
X2682Y186D01*
X2682Y187D01*
X2683Y187D01*
X2683Y188D01*
X2684Y188D01*
X2684Y203D01*
X2637Y203D01*
G37*
D02*
G36*
X2637Y194D02*
X2637Y188D01*
X2638Y188D01*
X2638Y187D01*
X2639Y187D01*
X2639Y186D01*
X2644Y186D01*
X2644Y187D01*
X2645Y187D01*
X2645Y188D01*
X2646Y188D01*
X2646Y193D01*
X2647Y193D01*
X2647Y194D01*
X2637Y194D01*
G37*
D02*
G36*
X2655Y194D02*
X2655Y193D01*
X2656Y193D01*
X2656Y132D01*
X2657Y132D01*
X2657Y130D01*
X2659Y130D01*
X2659Y129D01*
X2662Y129D01*
X2662Y130D01*
X2664Y130D01*
X2664Y132D01*
X2665Y132D01*
X2665Y194D01*
X2655Y194D01*
G37*
D02*
G36*
X45Y199D02*
X45Y171D01*
X219Y171D01*
X219Y170D01*
X223Y170D01*
X223Y169D01*
X225Y169D01*
X225Y168D01*
X227Y168D01*
X227Y167D01*
X229Y167D01*
X229Y166D01*
X230Y166D01*
X230Y165D01*
X232Y165D01*
X232Y164D01*
X233Y164D01*
X233Y163D01*
X234Y163D01*
X234Y161D01*
X235Y161D01*
X235Y160D01*
X236Y160D01*
X236Y158D01*
X237Y158D01*
X237Y153D01*
X238Y153D01*
X238Y152D01*
X237Y152D01*
X237Y147D01*
X236Y147D01*
X236Y145D01*
X235Y145D01*
X235Y143D01*
X234Y143D01*
X234Y142D01*
X233Y142D01*
X233Y141D01*
X232Y141D01*
X232Y140D01*
X231Y140D01*
X231Y139D01*
X230Y139D01*
X230Y138D01*
X228Y138D01*
X228Y137D01*
X226Y137D01*
X226Y136D01*
X224Y136D01*
X224Y135D01*
X221Y135D01*
X221Y134D01*
X217Y134D01*
X217Y133D01*
X282Y133D01*
X282Y134D01*
X283Y134D01*
X283Y136D01*
X284Y136D01*
X284Y137D01*
X285Y137D01*
X285Y139D01*
X286Y139D01*
X286Y141D01*
X287Y141D01*
X287Y144D01*
X288Y144D01*
X288Y149D01*
X289Y149D01*
X289Y160D01*
X288Y160D01*
X288Y164D01*
X287Y164D01*
X287Y166D01*
X286Y166D01*
X286Y168D01*
X285Y168D01*
X285Y170D01*
X284Y170D01*
X284Y172D01*
X283Y172D01*
X283Y173D01*
X282Y173D01*
X282Y175D01*
X281Y175D01*
X281Y176D01*
X280Y176D01*
X280Y177D01*
X279Y177D01*
X279Y178D01*
X278Y178D01*
X278Y179D01*
X277Y179D01*
X277Y180D01*
X276Y180D01*
X276Y181D01*
X275Y181D01*
X275Y182D01*
X274Y182D01*
X274Y183D01*
X273Y183D01*
X273Y184D01*
X272Y184D01*
X272Y185D01*
X270Y185D01*
X270Y186D01*
X269Y186D01*
X269Y187D01*
X267Y187D01*
X267Y188D01*
X266Y188D01*
X266Y189D01*
X264Y189D01*
X264Y190D01*
X262Y190D01*
X262Y191D01*
X260Y191D01*
X260Y192D01*
X257Y192D01*
X257Y193D01*
X255Y193D01*
X255Y194D01*
X252Y194D01*
X252Y195D01*
X249Y195D01*
X249Y196D01*
X245Y196D01*
X245Y197D01*
X239Y197D01*
X239Y198D01*
X232Y198D01*
X232Y199D01*
X45Y199D01*
G37*
D02*
G36*
X45Y171D02*
X45Y133D01*
X96Y133D01*
X96Y171D01*
X45Y171D01*
G37*
D02*
G36*
X45Y133D02*
X45Y132D01*
X281Y132D01*
X281Y133D01*
X45Y133D01*
G37*
D02*
G36*
X45Y133D02*
X45Y132D01*
X281Y132D01*
X281Y133D01*
X45Y133D01*
G37*
D02*
G36*
X45Y132D02*
X45Y40D01*
X96Y40D01*
X96Y111D01*
X230Y111D01*
X230Y112D01*
X242Y112D01*
X242Y113D01*
X248Y113D01*
X248Y114D01*
X252Y114D01*
X252Y115D01*
X256Y115D01*
X256Y116D01*
X258Y116D01*
X258Y117D01*
X261Y117D01*
X261Y118D01*
X263Y118D01*
X263Y119D01*
X265Y119D01*
X265Y120D01*
X267Y120D01*
X267Y121D01*
X269Y121D01*
X269Y122D01*
X271Y122D01*
X271Y123D01*
X272Y123D01*
X272Y124D01*
X273Y124D01*
X273Y125D01*
X275Y125D01*
X275Y126D01*
X276Y126D01*
X276Y127D01*
X277Y127D01*
X277Y128D01*
X278Y128D01*
X278Y129D01*
X279Y129D01*
X279Y130D01*
X280Y130D01*
X280Y131D01*
X281Y131D01*
X281Y132D01*
X45Y132D01*
G37*
D02*
G36*
X312Y199D02*
X312Y171D01*
X485Y171D01*
X485Y170D01*
X489Y170D01*
X489Y169D01*
X492Y169D01*
X492Y168D01*
X494Y168D01*
X494Y167D01*
X496Y167D01*
X496Y166D01*
X497Y166D01*
X497Y165D01*
X498Y165D01*
X498Y164D01*
X499Y164D01*
X499Y163D01*
X500Y163D01*
X500Y162D01*
X501Y162D01*
X501Y161D01*
X502Y161D01*
X502Y159D01*
X503Y159D01*
X503Y156D01*
X504Y156D01*
X504Y149D01*
X503Y149D01*
X503Y146D01*
X502Y146D01*
X502Y144D01*
X501Y144D01*
X501Y142D01*
X500Y142D01*
X500Y141D01*
X499Y141D01*
X499Y140D01*
X498Y140D01*
X498Y139D01*
X496Y139D01*
X496Y138D01*
X495Y138D01*
X495Y137D01*
X493Y137D01*
X493Y136D01*
X491Y136D01*
X491Y135D01*
X488Y135D01*
X488Y134D01*
X483Y134D01*
X483Y133D01*
X392Y133D01*
X392Y132D01*
X393Y132D01*
X393Y131D01*
X395Y131D01*
X395Y130D01*
X396Y130D01*
X396Y129D01*
X397Y129D01*
X397Y128D01*
X398Y128D01*
X398Y127D01*
X399Y127D01*
X399Y126D01*
X401Y126D01*
X401Y125D01*
X402Y125D01*
X402Y124D01*
X403Y124D01*
X403Y123D01*
X404Y123D01*
X404Y122D01*
X406Y122D01*
X406Y121D01*
X407Y121D01*
X407Y120D01*
X408Y120D01*
X408Y119D01*
X409Y119D01*
X409Y118D01*
X410Y118D01*
X410Y117D01*
X412Y117D01*
X412Y116D01*
X413Y116D01*
X413Y115D01*
X414Y115D01*
X414Y114D01*
X415Y114D01*
X415Y113D01*
X416Y113D01*
X416Y112D01*
X418Y112D01*
X418Y111D01*
X419Y111D01*
X419Y110D01*
X420Y110D01*
X420Y109D01*
X421Y109D01*
X421Y108D01*
X422Y108D01*
X422Y107D01*
X424Y107D01*
X424Y106D01*
X425Y106D01*
X425Y105D01*
X426Y105D01*
X426Y104D01*
X427Y104D01*
X427Y103D01*
X428Y103D01*
X428Y102D01*
X430Y102D01*
X430Y101D01*
X431Y101D01*
X431Y100D01*
X432Y100D01*
X432Y99D01*
X433Y99D01*
X433Y98D01*
X434Y98D01*
X434Y97D01*
X436Y97D01*
X436Y96D01*
X437Y96D01*
X437Y95D01*
X438Y95D01*
X438Y94D01*
X439Y94D01*
X439Y93D01*
X440Y93D01*
X440Y92D01*
X442Y92D01*
X442Y91D01*
X443Y91D01*
X443Y90D01*
X444Y90D01*
X444Y89D01*
X445Y89D01*
X445Y88D01*
X446Y88D01*
X446Y87D01*
X448Y87D01*
X448Y86D01*
X449Y86D01*
X449Y85D01*
X450Y85D01*
X450Y84D01*
X451Y84D01*
X451Y83D01*
X452Y83D01*
X452Y82D01*
X454Y82D01*
X454Y81D01*
X455Y81D01*
X455Y80D01*
X456Y80D01*
X456Y79D01*
X457Y79D01*
X457Y78D01*
X458Y78D01*
X458Y77D01*
X460Y77D01*
X460Y76D01*
X461Y76D01*
X461Y75D01*
X462Y75D01*
X462Y74D01*
X463Y74D01*
X463Y73D01*
X464Y73D01*
X464Y72D01*
X466Y72D01*
X466Y71D01*
X467Y71D01*
X467Y70D01*
X468Y70D01*
X468Y69D01*
X469Y69D01*
X469Y68D01*
X470Y68D01*
X470Y67D01*
X472Y67D01*
X472Y66D01*
X473Y66D01*
X473Y65D01*
X474Y65D01*
X474Y64D01*
X475Y64D01*
X475Y63D01*
X476Y63D01*
X476Y62D01*
X478Y62D01*
X478Y61D01*
X479Y61D01*
X479Y60D01*
X480Y60D01*
X480Y59D01*
X481Y59D01*
X481Y58D01*
X482Y58D01*
X482Y57D01*
X484Y57D01*
X484Y56D01*
X485Y56D01*
X485Y55D01*
X486Y55D01*
X486Y54D01*
X487Y54D01*
X487Y53D01*
X489Y53D01*
X489Y52D01*
X490Y52D01*
X490Y51D01*
X491Y51D01*
X491Y50D01*
X492Y50D01*
X492Y49D01*
X493Y49D01*
X493Y48D01*
X495Y48D01*
X495Y47D01*
X496Y47D01*
X496Y46D01*
X497Y46D01*
X497Y45D01*
X498Y45D01*
X498Y44D01*
X499Y44D01*
X499Y43D01*
X501Y43D01*
X501Y42D01*
X502Y42D01*
X502Y41D01*
X503Y41D01*
X503Y40D01*
X561Y40D01*
X561Y41D01*
X560Y41D01*
X560Y42D01*
X559Y42D01*
X559Y43D01*
X558Y43D01*
X558Y44D01*
X556Y44D01*
X556Y45D01*
X555Y45D01*
X555Y46D01*
X554Y46D01*
X554Y47D01*
X553Y47D01*
X553Y48D01*
X552Y48D01*
X552Y49D01*
X550Y49D01*
X550Y50D01*
X549Y50D01*
X549Y51D01*
X548Y51D01*
X548Y52D01*
X547Y52D01*
X547Y53D01*
X545Y53D01*
X545Y54D01*
X544Y54D01*
X544Y55D01*
X543Y55D01*
X543Y56D01*
X542Y56D01*
X542Y57D01*
X541Y57D01*
X541Y58D01*
X539Y58D01*
X539Y59D01*
X538Y59D01*
X538Y60D01*
X537Y60D01*
X537Y61D01*
X536Y61D01*
X536Y62D01*
X534Y62D01*
X534Y63D01*
X533Y63D01*
X533Y64D01*
X532Y64D01*
X532Y65D01*
X531Y65D01*
X531Y66D01*
X530Y66D01*
X530Y67D01*
X528Y67D01*
X528Y68D01*
X527Y68D01*
X527Y69D01*
X526Y69D01*
X526Y70D01*
X525Y70D01*
X525Y71D01*
X523Y71D01*
X523Y72D01*
X522Y72D01*
X522Y73D01*
X521Y73D01*
X521Y74D01*
X520Y74D01*
X520Y75D01*
X519Y75D01*
X519Y76D01*
X517Y76D01*
X517Y77D01*
X516Y77D01*
X516Y78D01*
X515Y78D01*
X515Y79D01*
X514Y79D01*
X514Y80D01*
X512Y80D01*
X512Y81D01*
X511Y81D01*
X511Y82D01*
X510Y82D01*
X510Y83D01*
X509Y83D01*
X509Y84D01*
X507Y84D01*
X507Y85D01*
X506Y85D01*
X506Y86D01*
X505Y86D01*
X505Y87D01*
X504Y87D01*
X504Y88D01*
X503Y88D01*
X503Y89D01*
X501Y89D01*
X501Y90D01*
X500Y90D01*
X500Y91D01*
X499Y91D01*
X499Y92D01*
X498Y92D01*
X498Y93D01*
X496Y93D01*
X496Y94D01*
X495Y94D01*
X495Y95D01*
X494Y95D01*
X494Y96D01*
X493Y96D01*
X493Y97D01*
X492Y97D01*
X492Y98D01*
X490Y98D01*
X490Y99D01*
X489Y99D01*
X489Y100D01*
X488Y100D01*
X488Y101D01*
X487Y101D01*
X487Y102D01*
X486Y102D01*
X486Y103D01*
X485Y103D01*
X485Y104D01*
X484Y104D01*
X484Y106D01*
X483Y106D01*
X483Y108D01*
X484Y108D01*
X484Y109D01*
X495Y109D01*
X495Y110D01*
X507Y110D01*
X507Y111D01*
X513Y111D01*
X513Y112D01*
X518Y112D01*
X518Y113D01*
X521Y113D01*
X521Y114D01*
X524Y114D01*
X524Y115D01*
X527Y115D01*
X527Y116D01*
X529Y116D01*
X529Y117D01*
X532Y117D01*
X532Y118D01*
X533Y118D01*
X533Y119D01*
X535Y119D01*
X535Y120D01*
X537Y120D01*
X537Y121D01*
X538Y121D01*
X538Y122D01*
X540Y122D01*
X540Y123D01*
X541Y123D01*
X541Y124D01*
X542Y124D01*
X542Y125D01*
X543Y125D01*
X543Y126D01*
X544Y126D01*
X544Y127D01*
X545Y127D01*
X545Y128D01*
X546Y128D01*
X546Y129D01*
X547Y129D01*
X547Y130D01*
X548Y130D01*
X548Y132D01*
X549Y132D01*
X549Y133D01*
X550Y133D01*
X550Y135D01*
X551Y135D01*
X551Y137D01*
X552Y137D01*
X552Y139D01*
X553Y139D01*
X553Y142D01*
X554Y142D01*
X554Y146D01*
X555Y146D01*
X555Y162D01*
X554Y162D01*
X554Y165D01*
X553Y165D01*
X553Y167D01*
X552Y167D01*
X552Y169D01*
X551Y169D01*
X551Y171D01*
X550Y171D01*
X550Y173D01*
X549Y173D01*
X549Y174D01*
X548Y174D01*
X548Y175D01*
X547Y175D01*
X547Y177D01*
X546Y177D01*
X546Y178D01*
X545Y178D01*
X545Y179D01*
X544Y179D01*
X544Y180D01*
X543Y180D01*
X543Y181D01*
X542Y181D01*
X542Y182D01*
X541Y182D01*
X541Y183D01*
X539Y183D01*
X539Y184D01*
X538Y184D01*
X538Y185D01*
X537Y185D01*
X537Y186D01*
X535Y186D01*
X535Y187D01*
X534Y187D01*
X534Y188D01*
X532Y188D01*
X532Y189D01*
X530Y189D01*
X530Y190D01*
X528Y190D01*
X528Y191D01*
X526Y191D01*
X526Y192D01*
X524Y192D01*
X524Y193D01*
X521Y193D01*
X521Y194D01*
X518Y194D01*
X518Y195D01*
X515Y195D01*
X515Y196D01*
X511Y196D01*
X511Y197D01*
X506Y197D01*
X506Y198D01*
X499Y198D01*
X499Y199D01*
X312Y199D01*
G37*
D02*
G36*
X312Y171D02*
X312Y40D01*
X362Y40D01*
X362Y171D01*
X312Y171D01*
G37*
D02*
G36*
X582Y199D02*
X582Y40D01*
X813Y40D01*
X813Y71D01*
X633Y71D01*
X633Y104D01*
X799Y104D01*
X799Y131D01*
X633Y131D01*
X633Y171D01*
X813Y171D01*
X813Y199D01*
X582Y199D01*
G37*
D02*
G36*
X831Y199D02*
X831Y40D01*
X1041Y40D01*
X1041Y71D01*
X882Y71D01*
X882Y199D01*
X831Y199D01*
G37*
D02*
G36*
X1053Y199D02*
X1053Y83D01*
X1054Y83D01*
X1054Y79D01*
X1055Y79D01*
X1055Y76D01*
X1056Y76D01*
X1056Y73D01*
X1057Y73D01*
X1057Y71D01*
X1132Y71D01*
X1132Y72D01*
X1128Y72D01*
X1128Y73D01*
X1125Y73D01*
X1125Y74D01*
X1123Y74D01*
X1123Y75D01*
X1121Y75D01*
X1121Y76D01*
X1119Y76D01*
X1119Y77D01*
X1118Y77D01*
X1118Y78D01*
X1116Y78D01*
X1116Y79D01*
X1115Y79D01*
X1115Y80D01*
X1114Y80D01*
X1114Y81D01*
X1113Y81D01*
X1113Y82D01*
X1112Y82D01*
X1112Y83D01*
X1111Y83D01*
X1111Y84D01*
X1110Y84D01*
X1110Y86D01*
X1109Y86D01*
X1109Y87D01*
X1108Y87D01*
X1108Y89D01*
X1107Y89D01*
X1107Y91D01*
X1106Y91D01*
X1106Y93D01*
X1105Y93D01*
X1105Y97D01*
X1104Y97D01*
X1104Y102D01*
X1103Y102D01*
X1103Y199D01*
X1053Y199D01*
G37*
D02*
G36*
X1248Y199D02*
X1248Y101D01*
X1247Y101D01*
X1247Y96D01*
X1246Y96D01*
X1246Y93D01*
X1245Y93D01*
X1245Y91D01*
X1244Y91D01*
X1244Y89D01*
X1243Y89D01*
X1243Y87D01*
X1242Y87D01*
X1242Y86D01*
X1241Y86D01*
X1241Y84D01*
X1240Y84D01*
X1240Y83D01*
X1239Y83D01*
X1239Y82D01*
X1238Y82D01*
X1238Y81D01*
X1237Y81D01*
X1237Y80D01*
X1236Y80D01*
X1236Y79D01*
X1235Y79D01*
X1235Y78D01*
X1233Y78D01*
X1233Y77D01*
X1232Y77D01*
X1232Y76D01*
X1230Y76D01*
X1230Y75D01*
X1229Y75D01*
X1229Y74D01*
X1226Y74D01*
X1226Y73D01*
X1224Y73D01*
X1224Y72D01*
X1219Y72D01*
X1219Y71D01*
X1296Y71D01*
X1296Y72D01*
X1297Y72D01*
X1297Y74D01*
X1298Y74D01*
X1298Y77D01*
X1299Y77D01*
X1299Y81D01*
X1300Y81D01*
X1300Y87D01*
X1301Y87D01*
X1301Y199D01*
X1248Y199D01*
G37*
D02*
G36*
X1058Y71D02*
X1058Y70D01*
X1296Y70D01*
X1296Y71D01*
X1058Y71D01*
G37*
D02*
G36*
X1058Y71D02*
X1058Y70D01*
X1296Y70D01*
X1296Y71D01*
X1058Y71D01*
G37*
D02*
G36*
X1058Y70D02*
X1058Y69D01*
X1059Y69D01*
X1059Y67D01*
X1060Y67D01*
X1060Y65D01*
X1061Y65D01*
X1061Y64D01*
X1062Y64D01*
X1062Y62D01*
X1063Y62D01*
X1063Y61D01*
X1064Y61D01*
X1064Y59D01*
X1065Y59D01*
X1065Y58D01*
X1066Y58D01*
X1066Y57D01*
X1067Y57D01*
X1067Y56D01*
X1068Y56D01*
X1068Y55D01*
X1069Y55D01*
X1069Y54D01*
X1070Y54D01*
X1070Y53D01*
X1071Y53D01*
X1071Y52D01*
X1072Y52D01*
X1072Y51D01*
X1074Y51D01*
X1074Y50D01*
X1075Y50D01*
X1075Y49D01*
X1077Y49D01*
X1077Y48D01*
X1078Y48D01*
X1078Y47D01*
X1080Y47D01*
X1080Y46D01*
X1082Y46D01*
X1082Y45D01*
X1084Y45D01*
X1084Y44D01*
X1086Y44D01*
X1086Y43D01*
X1089Y43D01*
X1089Y42D01*
X1092Y42D01*
X1092Y41D01*
X1097Y41D01*
X1097Y40D01*
X1256Y40D01*
X1256Y41D01*
X1261Y41D01*
X1261Y42D01*
X1264Y42D01*
X1264Y43D01*
X1267Y43D01*
X1267Y44D01*
X1270Y44D01*
X1270Y45D01*
X1272Y45D01*
X1272Y46D01*
X1274Y46D01*
X1274Y47D01*
X1275Y47D01*
X1275Y48D01*
X1277Y48D01*
X1277Y49D01*
X1278Y49D01*
X1278Y50D01*
X1280Y50D01*
X1280Y51D01*
X1281Y51D01*
X1281Y52D01*
X1282Y52D01*
X1282Y53D01*
X1283Y53D01*
X1283Y54D01*
X1284Y54D01*
X1284Y55D01*
X1285Y55D01*
X1285Y56D01*
X1286Y56D01*
X1286Y57D01*
X1287Y57D01*
X1287Y58D01*
X1288Y58D01*
X1288Y59D01*
X1289Y59D01*
X1289Y60D01*
X1290Y60D01*
X1290Y61D01*
X1291Y61D01*
X1291Y63D01*
X1292Y63D01*
X1292Y64D01*
X1293Y64D01*
X1293Y66D01*
X1294Y66D01*
X1294Y68D01*
X1295Y68D01*
X1295Y70D01*
X1058Y70D01*
G37*
D02*
G36*
X1324Y199D02*
X1324Y171D01*
X1489Y171D01*
X1489Y170D01*
X1494Y170D01*
X1494Y169D01*
X1498Y169D01*
X1498Y168D01*
X1501Y168D01*
X1501Y167D01*
X1503Y167D01*
X1503Y166D01*
X1506Y166D01*
X1506Y165D01*
X1508Y165D01*
X1508Y164D01*
X1509Y164D01*
X1509Y163D01*
X1511Y163D01*
X1511Y162D01*
X1513Y162D01*
X1513Y161D01*
X1514Y161D01*
X1514Y160D01*
X1515Y160D01*
X1515Y159D01*
X1517Y159D01*
X1517Y158D01*
X1518Y158D01*
X1518Y157D01*
X1519Y157D01*
X1519Y156D01*
X1520Y156D01*
X1520Y155D01*
X1521Y155D01*
X1521Y154D01*
X1522Y154D01*
X1522Y153D01*
X1523Y153D01*
X1523Y151D01*
X1524Y151D01*
X1524Y150D01*
X1525Y150D01*
X1525Y149D01*
X1526Y149D01*
X1526Y147D01*
X1527Y147D01*
X1527Y146D01*
X1528Y146D01*
X1528Y144D01*
X1529Y144D01*
X1529Y142D01*
X1530Y142D01*
X1530Y140D01*
X1531Y140D01*
X1531Y137D01*
X1532Y137D01*
X1532Y134D01*
X1533Y134D01*
X1533Y130D01*
X1534Y130D01*
X1534Y124D01*
X1535Y124D01*
X1535Y114D01*
X1534Y114D01*
X1534Y108D01*
X1533Y108D01*
X1533Y105D01*
X1532Y105D01*
X1532Y102D01*
X1531Y102D01*
X1531Y100D01*
X1530Y100D01*
X1530Y98D01*
X1529Y98D01*
X1529Y97D01*
X1528Y97D01*
X1528Y95D01*
X1527Y95D01*
X1527Y94D01*
X1526Y94D01*
X1526Y92D01*
X1525Y92D01*
X1525Y91D01*
X1524Y91D01*
X1524Y90D01*
X1523Y90D01*
X1523Y89D01*
X1522Y89D01*
X1522Y88D01*
X1521Y88D01*
X1521Y87D01*
X1520Y87D01*
X1520Y86D01*
X1519Y86D01*
X1519Y85D01*
X1518Y85D01*
X1518Y84D01*
X1517Y84D01*
X1517Y83D01*
X1515Y83D01*
X1515Y82D01*
X1514Y82D01*
X1514Y81D01*
X1512Y81D01*
X1512Y80D01*
X1511Y80D01*
X1511Y79D01*
X1509Y79D01*
X1509Y78D01*
X1507Y78D01*
X1507Y77D01*
X1505Y77D01*
X1505Y76D01*
X1503Y76D01*
X1503Y75D01*
X1500Y75D01*
X1500Y74D01*
X1497Y74D01*
X1497Y73D01*
X1493Y73D01*
X1493Y72D01*
X1487Y72D01*
X1487Y71D01*
X1401Y71D01*
X1401Y70D01*
X1403Y70D01*
X1403Y69D01*
X1404Y69D01*
X1404Y68D01*
X1406Y68D01*
X1406Y67D01*
X1407Y67D01*
X1407Y66D01*
X1408Y66D01*
X1408Y65D01*
X1410Y65D01*
X1410Y64D01*
X1411Y64D01*
X1411Y63D01*
X1412Y63D01*
X1412Y62D01*
X1414Y62D01*
X1414Y61D01*
X1415Y61D01*
X1415Y60D01*
X1417Y60D01*
X1417Y59D01*
X1418Y59D01*
X1418Y58D01*
X1419Y58D01*
X1419Y57D01*
X1421Y57D01*
X1421Y56D01*
X1422Y56D01*
X1422Y55D01*
X1423Y55D01*
X1423Y54D01*
X1425Y54D01*
X1425Y53D01*
X1426Y53D01*
X1426Y52D01*
X1428Y52D01*
X1428Y51D01*
X1429Y51D01*
X1429Y50D01*
X1430Y50D01*
X1430Y49D01*
X1432Y49D01*
X1432Y48D01*
X1433Y48D01*
X1433Y47D01*
X1435Y47D01*
X1435Y46D01*
X1436Y46D01*
X1436Y45D01*
X1437Y45D01*
X1437Y44D01*
X1439Y44D01*
X1439Y43D01*
X1440Y43D01*
X1440Y42D01*
X1441Y42D01*
X1441Y41D01*
X1443Y41D01*
X1443Y40D01*
X1505Y40D01*
X1505Y41D01*
X1512Y41D01*
X1512Y42D01*
X1517Y42D01*
X1517Y43D01*
X1521Y43D01*
X1521Y44D01*
X1524Y44D01*
X1524Y45D01*
X1527Y45D01*
X1527Y46D01*
X1530Y46D01*
X1530Y47D01*
X1533Y47D01*
X1533Y48D01*
X1535Y48D01*
X1535Y49D01*
X1537Y49D01*
X1537Y50D01*
X1539Y50D01*
X1539Y51D01*
X1541Y51D01*
X1541Y52D01*
X1543Y52D01*
X1543Y53D01*
X1545Y53D01*
X1545Y54D01*
X1546Y54D01*
X1546Y55D01*
X1548Y55D01*
X1548Y56D01*
X1550Y56D01*
X1550Y57D01*
X1551Y57D01*
X1551Y58D01*
X1552Y58D01*
X1552Y59D01*
X1554Y59D01*
X1554Y60D01*
X1555Y60D01*
X1555Y61D01*
X1556Y61D01*
X1556Y62D01*
X1558Y62D01*
X1558Y63D01*
X1559Y63D01*
X1559Y64D01*
X1560Y64D01*
X1560Y65D01*
X1561Y65D01*
X1561Y66D01*
X1562Y66D01*
X1562Y67D01*
X1563Y67D01*
X1563Y68D01*
X1564Y68D01*
X1564Y69D01*
X1565Y69D01*
X1565Y70D01*
X1566Y70D01*
X1566Y71D01*
X1567Y71D01*
X1567Y72D01*
X1568Y72D01*
X1568Y73D01*
X1569Y73D01*
X1569Y74D01*
X1570Y74D01*
X1570Y76D01*
X1571Y76D01*
X1571Y77D01*
X1572Y77D01*
X1572Y78D01*
X1573Y78D01*
X1573Y80D01*
X1574Y80D01*
X1574Y81D01*
X1575Y81D01*
X1575Y83D01*
X1576Y83D01*
X1576Y84D01*
X1577Y84D01*
X1577Y86D01*
X1578Y86D01*
X1578Y88D01*
X1579Y88D01*
X1579Y90D01*
X1580Y90D01*
X1580Y92D01*
X1581Y92D01*
X1581Y95D01*
X1582Y95D01*
X1582Y97D01*
X1583Y97D01*
X1583Y100D01*
X1584Y100D01*
X1584Y104D01*
X1585Y104D01*
X1585Y109D01*
X1586Y109D01*
X1586Y130D01*
X1585Y130D01*
X1585Y135D01*
X1584Y135D01*
X1584Y139D01*
X1583Y139D01*
X1583Y142D01*
X1582Y142D01*
X1582Y145D01*
X1581Y145D01*
X1581Y147D01*
X1580Y147D01*
X1580Y149D01*
X1579Y149D01*
X1579Y151D01*
X1578Y151D01*
X1578Y153D01*
X1577Y153D01*
X1577Y155D01*
X1576Y155D01*
X1576Y157D01*
X1575Y157D01*
X1575Y158D01*
X1574Y158D01*
X1574Y160D01*
X1573Y160D01*
X1573Y161D01*
X1572Y161D01*
X1572Y163D01*
X1571Y163D01*
X1571Y164D01*
X1570Y164D01*
X1570Y165D01*
X1569Y165D01*
X1569Y167D01*
X1568Y167D01*
X1568Y168D01*
X1567Y168D01*
X1567Y169D01*
X1566Y169D01*
X1566Y170D01*
X1565Y170D01*
X1565Y171D01*
X1564Y171D01*
X1564Y172D01*
X1563Y172D01*
X1563Y173D01*
X1562Y173D01*
X1562Y174D01*
X1561Y174D01*
X1561Y175D01*
X1560Y175D01*
X1560Y176D01*
X1559Y176D01*
X1559Y177D01*
X1558Y177D01*
X1558Y178D01*
X1557Y178D01*
X1557Y179D01*
X1555Y179D01*
X1555Y180D01*
X1554Y180D01*
X1554Y181D01*
X1553Y181D01*
X1553Y182D01*
X1551Y182D01*
X1551Y183D01*
X1550Y183D01*
X1550Y184D01*
X1548Y184D01*
X1548Y185D01*
X1547Y185D01*
X1547Y186D01*
X1545Y186D01*
X1545Y187D01*
X1544Y187D01*
X1544Y188D01*
X1542Y188D01*
X1542Y189D01*
X1540Y189D01*
X1540Y190D01*
X1538Y190D01*
X1538Y191D01*
X1536Y191D01*
X1536Y192D01*
X1533Y192D01*
X1533Y193D01*
X1531Y193D01*
X1531Y194D01*
X1528Y194D01*
X1528Y195D01*
X1525Y195D01*
X1525Y196D01*
X1521Y196D01*
X1521Y197D01*
X1517Y197D01*
X1517Y198D01*
X1511Y198D01*
X1511Y199D01*
X1324Y199D01*
G37*
D02*
G36*
X1324Y171D02*
X1324Y40D01*
X1375Y40D01*
X1375Y171D01*
X1324Y171D01*
G37*
D02*
G36*
X1604Y199D02*
X1604Y40D01*
X1835Y40D01*
X1835Y71D01*
X1654Y71D01*
X1654Y104D01*
X1820Y104D01*
X1820Y131D01*
X1655Y131D01*
X1655Y132D01*
X1654Y132D01*
X1654Y171D01*
X1834Y171D01*
X1834Y172D01*
X1835Y172D01*
X1835Y199D01*
X1604Y199D01*
G37*
D02*
G36*
X2361Y199D02*
X2361Y198D01*
X2359Y198D01*
X2359Y195D01*
X2358Y195D01*
X2358Y183D01*
X2351Y183D01*
X2351Y182D01*
X2350Y182D01*
X2350Y181D01*
X2349Y181D01*
X2349Y176D01*
X2350Y176D01*
X2350Y175D01*
X2351Y175D01*
X2351Y174D01*
X2358Y174D01*
X2358Y142D01*
X2359Y142D01*
X2359Y139D01*
X2370Y139D01*
X2370Y140D01*
X2369Y140D01*
X2369Y141D01*
X2368Y141D01*
X2368Y174D01*
X2389Y174D01*
X2389Y175D01*
X2390Y175D01*
X2390Y176D01*
X2391Y176D01*
X2391Y181D01*
X2390Y181D01*
X2390Y182D01*
X2389Y182D01*
X2389Y183D01*
X2368Y183D01*
X2368Y196D01*
X2367Y196D01*
X2367Y198D01*
X2366Y198D01*
X2366Y199D01*
X2361Y199D01*
G37*
D02*
G36*
X2389Y147D02*
X2389Y146D01*
X2388Y146D01*
X2388Y145D01*
X2387Y145D01*
X2387Y142D01*
X2386Y142D01*
X2386Y141D01*
X2385Y141D01*
X2385Y140D01*
X2384Y140D01*
X2384Y139D01*
X2396Y139D01*
X2396Y145D01*
X2395Y145D01*
X2395Y146D01*
X2393Y146D01*
X2393Y147D01*
X2389Y147D01*
G37*
D02*
G36*
X2359Y139D02*
X2359Y138D01*
X2395Y138D01*
X2395Y139D01*
X2359Y139D01*
G37*
D02*
G36*
X2359Y139D02*
X2359Y138D01*
X2395Y138D01*
X2395Y139D01*
X2359Y139D01*
G37*
D02*
G36*
X2360Y138D02*
X2360Y136D01*
X2361Y136D01*
X2361Y135D01*
X2362Y135D01*
X2362Y134D01*
X2363Y134D01*
X2363Y133D01*
X2364Y133D01*
X2364Y132D01*
X2365Y132D01*
X2365Y131D01*
X2367Y131D01*
X2367Y130D01*
X2370Y130D01*
X2370Y129D01*
X2384Y129D01*
X2384Y130D01*
X2388Y130D01*
X2388Y131D01*
X2389Y131D01*
X2389Y132D01*
X2391Y132D01*
X2391Y133D01*
X2392Y133D01*
X2392Y134D01*
X2393Y134D01*
X2393Y135D01*
X2394Y135D01*
X2394Y137D01*
X2395Y137D01*
X2395Y138D01*
X2360Y138D01*
G37*
D02*
G36*
X2063Y183D02*
X2063Y182D01*
X2062Y182D01*
X2062Y180D01*
X2061Y180D01*
X2061Y176D01*
X2071Y176D01*
X2071Y179D01*
X2070Y179D01*
X2070Y181D01*
X2069Y181D01*
X2069Y182D01*
X2068Y182D01*
X2068Y183D01*
X2063Y183D01*
G37*
D02*
G36*
X2083Y183D02*
X2083Y182D01*
X2081Y182D01*
X2081Y181D01*
X2079Y181D01*
X2079Y180D01*
X2078Y180D01*
X2078Y179D01*
X2076Y179D01*
X2076Y178D01*
X2074Y178D01*
X2074Y177D01*
X2073Y177D01*
X2073Y176D01*
X2105Y176D01*
X2105Y177D01*
X2104Y177D01*
X2104Y178D01*
X2103Y178D01*
X2103Y179D01*
X2102Y179D01*
X2102Y180D01*
X2101Y180D01*
X2101Y181D01*
X2099Y181D01*
X2099Y182D01*
X2097Y182D01*
X2097Y183D01*
X2083Y183D01*
G37*
D02*
G36*
X2061Y176D02*
X2061Y175D01*
X2105Y175D01*
X2105Y176D01*
X2061Y176D01*
G37*
D02*
G36*
X2061Y176D02*
X2061Y175D01*
X2105Y175D01*
X2105Y176D01*
X2061Y176D01*
G37*
D02*
G36*
X2061Y175D02*
X2061Y174D01*
X2094Y174D01*
X2094Y173D01*
X2096Y173D01*
X2096Y172D01*
X2097Y172D01*
X2097Y167D01*
X2098Y167D01*
X2098Y139D01*
X2099Y139D01*
X2099Y131D01*
X2100Y131D01*
X2100Y130D01*
X2102Y130D01*
X2102Y129D01*
X2105Y129D01*
X2105Y130D01*
X2107Y130D01*
X2107Y132D01*
X2108Y132D01*
X2108Y156D01*
X2107Y156D01*
X2107Y173D01*
X2106Y173D01*
X2106Y175D01*
X2061Y175D01*
G37*
D02*
G36*
X2061Y174D02*
X2061Y132D01*
X2062Y132D01*
X2062Y131D01*
X2063Y131D01*
X2063Y130D01*
X2065Y130D01*
X2065Y129D01*
X2067Y129D01*
X2067Y130D01*
X2069Y130D01*
X2069Y131D01*
X2070Y131D01*
X2070Y133D01*
X2071Y133D01*
X2071Y164D01*
X2072Y164D01*
X2072Y165D01*
X2073Y165D01*
X2073Y166D01*
X2075Y166D01*
X2075Y167D01*
X2077Y167D01*
X2077Y168D01*
X2078Y168D01*
X2078Y169D01*
X2080Y169D01*
X2080Y170D01*
X2081Y170D01*
X2081Y171D01*
X2083Y171D01*
X2083Y172D01*
X2084Y172D01*
X2084Y173D01*
X2087Y173D01*
X2087Y174D01*
X2061Y174D01*
G37*
D02*
G36*
X2140Y183D02*
X2140Y182D01*
X2139Y182D01*
X2139Y181D01*
X2138Y181D01*
X2138Y176D01*
X2139Y176D01*
X2139Y175D01*
X2140Y175D01*
X2140Y174D01*
X2151Y174D01*
X2151Y173D01*
X2152Y173D01*
X2152Y139D01*
X2141Y139D01*
X2141Y138D01*
X2139Y138D01*
X2139Y137D01*
X2138Y137D01*
X2138Y132D01*
X2139Y132D01*
X2139Y130D01*
X2141Y130D01*
X2141Y129D01*
X2172Y129D01*
X2172Y130D01*
X2174Y130D01*
X2174Y131D01*
X2175Y131D01*
X2175Y137D01*
X2174Y137D01*
X2174Y138D01*
X2173Y138D01*
X2173Y139D01*
X2161Y139D01*
X2161Y181D01*
X2160Y181D01*
X2160Y182D01*
X2159Y182D01*
X2159Y183D01*
X2140Y183D01*
G37*
D02*
G36*
X2207Y183D02*
X2207Y182D01*
X2205Y182D01*
X2205Y180D01*
X2213Y180D01*
X2213Y182D01*
X2211Y182D01*
X2211Y183D01*
X2207Y183D01*
G37*
D02*
G36*
X2218Y183D02*
X2218Y182D01*
X2216Y182D01*
X2216Y181D01*
X2214Y181D01*
X2214Y180D01*
X2229Y180D01*
X2229Y181D01*
X2228Y181D01*
X2228Y182D01*
X2226Y182D01*
X2226Y183D01*
X2218Y183D01*
G37*
D02*
G36*
X2237Y183D02*
X2237Y182D01*
X2235Y182D01*
X2235Y181D01*
X2233Y181D01*
X2233Y180D01*
X2232Y180D01*
X2232Y179D01*
X2249Y179D01*
X2249Y180D01*
X2248Y180D01*
X2248Y181D01*
X2246Y181D01*
X2246Y182D01*
X2244Y182D01*
X2244Y183D01*
X2237Y183D01*
G37*
D02*
G36*
X2204Y180D02*
X2204Y179D01*
X2230Y179D01*
X2230Y180D01*
X2204Y180D01*
G37*
D02*
G36*
X2204Y180D02*
X2204Y179D01*
X2230Y179D01*
X2230Y180D01*
X2204Y180D01*
G37*
D02*
G36*
X2204Y179D02*
X2204Y178D01*
X2249Y178D01*
X2249Y179D01*
X2204Y179D01*
G37*
D02*
G36*
X2204Y179D02*
X2204Y178D01*
X2249Y178D01*
X2249Y179D01*
X2204Y179D01*
G37*
D02*
G36*
X2204Y178D02*
X2204Y174D01*
X2241Y174D01*
X2241Y173D01*
X2242Y173D01*
X2242Y159D01*
X2243Y159D01*
X2243Y133D01*
X2244Y133D01*
X2244Y131D01*
X2245Y131D01*
X2245Y130D01*
X2247Y130D01*
X2247Y129D01*
X2249Y129D01*
X2249Y130D01*
X2251Y130D01*
X2251Y131D01*
X2252Y131D01*
X2252Y132D01*
X2253Y132D01*
X2253Y147D01*
X2252Y147D01*
X2252Y173D01*
X2251Y173D01*
X2251Y177D01*
X2250Y177D01*
X2250Y178D01*
X2204Y178D01*
G37*
D02*
G36*
X2204Y174D02*
X2204Y133D01*
X2205Y133D01*
X2205Y131D01*
X2206Y131D01*
X2206Y130D01*
X2208Y130D01*
X2208Y129D01*
X2210Y129D01*
X2210Y130D01*
X2212Y130D01*
X2212Y131D01*
X2213Y131D01*
X2213Y132D01*
X2214Y132D01*
X2214Y168D01*
X2215Y168D01*
X2215Y169D01*
X2216Y169D01*
X2216Y170D01*
X2217Y170D01*
X2217Y171D01*
X2219Y171D01*
X2219Y172D01*
X2220Y172D01*
X2220Y173D01*
X2221Y173D01*
X2221Y174D01*
X2204Y174D01*
G37*
D02*
G36*
X2222Y174D02*
X2222Y173D01*
X2224Y173D01*
X2224Y132D01*
X2225Y132D01*
X2225Y131D01*
X2226Y131D01*
X2226Y130D01*
X2227Y130D01*
X2227Y129D01*
X2230Y129D01*
X2230Y130D01*
X2232Y130D01*
X2232Y131D01*
X2233Y131D01*
X2233Y168D01*
X2234Y168D01*
X2234Y169D01*
X2235Y169D01*
X2235Y170D01*
X2236Y170D01*
X2236Y171D01*
X2237Y171D01*
X2237Y172D01*
X2239Y172D01*
X2239Y173D01*
X2240Y173D01*
X2240Y174D01*
X2222Y174D01*
G37*
D02*
G36*
X2289Y183D02*
X2289Y182D01*
X2288Y182D01*
X2288Y181D01*
X2287Y181D01*
X2287Y179D01*
X2286Y179D01*
X2286Y177D01*
X2287Y177D01*
X2287Y175D01*
X2288Y175D01*
X2288Y174D01*
X2310Y174D01*
X2310Y173D01*
X2312Y173D01*
X2312Y172D01*
X2313Y172D01*
X2313Y166D01*
X2314Y166D01*
X2314Y163D01*
X2287Y163D01*
X2287Y162D01*
X2285Y162D01*
X2285Y161D01*
X2283Y161D01*
X2283Y160D01*
X2282Y160D01*
X2282Y159D01*
X2281Y159D01*
X2281Y158D01*
X2280Y158D01*
X2280Y157D01*
X2279Y157D01*
X2279Y155D01*
X2278Y155D01*
X2278Y153D01*
X2312Y153D01*
X2312Y152D01*
X2313Y152D01*
X2313Y151D01*
X2314Y151D01*
X2314Y144D01*
X2312Y144D01*
X2312Y143D01*
X2310Y143D01*
X2310Y142D01*
X2308Y142D01*
X2308Y141D01*
X2307Y141D01*
X2307Y140D01*
X2305Y140D01*
X2305Y139D01*
X2324Y139D01*
X2324Y154D01*
X2323Y154D01*
X2323Y172D01*
X2322Y172D01*
X2322Y175D01*
X2321Y175D01*
X2321Y177D01*
X2320Y177D01*
X2320Y178D01*
X2319Y178D01*
X2319Y179D01*
X2318Y179D01*
X2318Y180D01*
X2317Y180D01*
X2317Y181D01*
X2315Y181D01*
X2315Y182D01*
X2313Y182D01*
X2313Y183D01*
X2289Y183D01*
G37*
D02*
G36*
X2277Y153D02*
X2277Y140D01*
X2278Y140D01*
X2278Y139D01*
X2289Y139D01*
X2289Y140D01*
X2288Y140D01*
X2288Y141D01*
X2287Y141D01*
X2287Y152D01*
X2288Y152D01*
X2288Y153D01*
X2277Y153D01*
G37*
D02*
G36*
X2278Y139D02*
X2278Y138D01*
X2324Y138D01*
X2324Y139D01*
X2278Y139D01*
G37*
D02*
G36*
X2278Y139D02*
X2278Y138D01*
X2324Y138D01*
X2324Y139D01*
X2278Y139D01*
G37*
D02*
G36*
X2278Y138D02*
X2278Y137D01*
X2279Y137D01*
X2279Y135D01*
X2280Y135D01*
X2280Y134D01*
X2315Y134D01*
X2315Y131D01*
X2316Y131D01*
X2316Y130D01*
X2318Y130D01*
X2318Y129D01*
X2321Y129D01*
X2321Y130D01*
X2322Y130D01*
X2322Y131D01*
X2323Y131D01*
X2323Y132D01*
X2324Y132D01*
X2324Y138D01*
X2278Y138D01*
G37*
D02*
G36*
X2281Y134D02*
X2281Y133D01*
X2282Y133D01*
X2282Y132D01*
X2284Y132D01*
X2284Y131D01*
X2286Y131D01*
X2286Y130D01*
X2289Y130D01*
X2289Y129D01*
X2306Y129D01*
X2306Y130D01*
X2309Y130D01*
X2309Y131D01*
X2310Y131D01*
X2310Y132D01*
X2312Y132D01*
X2312Y133D01*
X2314Y133D01*
X2314Y134D01*
X2281Y134D01*
G37*
D02*
G36*
X2434Y183D02*
X2434Y182D01*
X2432Y182D01*
X2432Y181D01*
X2430Y181D01*
X2430Y180D01*
X2429Y180D01*
X2429Y179D01*
X2428Y179D01*
X2428Y178D01*
X2427Y178D01*
X2427Y177D01*
X2426Y177D01*
X2426Y176D01*
X2425Y176D01*
X2425Y175D01*
X2424Y175D01*
X2424Y174D01*
X2451Y174D01*
X2451Y173D01*
X2453Y173D01*
X2453Y172D01*
X2455Y172D01*
X2455Y171D01*
X2456Y171D01*
X2456Y170D01*
X2457Y170D01*
X2457Y169D01*
X2458Y169D01*
X2458Y167D01*
X2459Y167D01*
X2459Y159D01*
X2468Y159D01*
X2468Y170D01*
X2467Y170D01*
X2467Y173D01*
X2466Y173D01*
X2466Y174D01*
X2465Y174D01*
X2465Y176D01*
X2463Y176D01*
X2463Y177D01*
X2462Y177D01*
X2462Y178D01*
X2461Y178D01*
X2461Y179D01*
X2460Y179D01*
X2460Y180D01*
X2459Y180D01*
X2459Y181D01*
X2457Y181D01*
X2457Y182D01*
X2455Y182D01*
X2455Y183D01*
X2434Y183D01*
G37*
D02*
G36*
X2423Y174D02*
X2423Y172D01*
X2422Y172D01*
X2422Y170D01*
X2421Y170D01*
X2421Y159D01*
X2431Y159D01*
X2431Y169D01*
X2432Y169D01*
X2432Y170D01*
X2433Y170D01*
X2433Y171D01*
X2434Y171D01*
X2434Y172D01*
X2436Y172D01*
X2436Y173D01*
X2438Y173D01*
X2438Y174D01*
X2423Y174D01*
G37*
D02*
G36*
X2421Y159D02*
X2421Y158D01*
X2468Y158D01*
X2468Y159D01*
X2421Y159D01*
G37*
D02*
G36*
X2421Y159D02*
X2421Y158D01*
X2468Y158D01*
X2468Y159D01*
X2421Y159D01*
G37*
D02*
G36*
X2421Y158D02*
X2421Y143D01*
X2422Y143D01*
X2422Y140D01*
X2423Y140D01*
X2423Y138D01*
X2424Y138D01*
X2424Y137D01*
X2425Y137D01*
X2425Y136D01*
X2426Y136D01*
X2426Y135D01*
X2427Y135D01*
X2427Y134D01*
X2428Y134D01*
X2428Y133D01*
X2430Y133D01*
X2430Y132D01*
X2431Y132D01*
X2431Y131D01*
X2433Y131D01*
X2433Y130D01*
X2437Y130D01*
X2437Y129D01*
X2465Y129D01*
X2465Y130D01*
X2466Y130D01*
X2466Y131D01*
X2467Y131D01*
X2467Y132D01*
X2468Y132D01*
X2468Y136D01*
X2467Y136D01*
X2467Y138D01*
X2465Y138D01*
X2465Y139D01*
X2436Y139D01*
X2436Y140D01*
X2435Y140D01*
X2435Y141D01*
X2434Y141D01*
X2434Y142D01*
X2433Y142D01*
X2433Y143D01*
X2432Y143D01*
X2432Y144D01*
X2431Y144D01*
X2431Y149D01*
X2463Y149D01*
X2463Y150D01*
X2466Y150D01*
X2466Y151D01*
X2467Y151D01*
X2467Y152D01*
X2468Y152D01*
X2468Y158D01*
X2421Y158D01*
G37*
D02*
G36*
X2533Y203D02*
X2533Y202D01*
X2532Y202D01*
X2532Y201D01*
X2531Y201D01*
X2531Y177D01*
X2540Y177D01*
X2540Y201D01*
X2539Y201D01*
X2539Y202D01*
X2538Y202D01*
X2538Y203D01*
X2533Y203D01*
G37*
D02*
G36*
X2506Y183D02*
X2506Y182D01*
X2504Y182D01*
X2504Y181D01*
X2502Y181D01*
X2502Y180D01*
X2501Y180D01*
X2501Y179D01*
X2500Y179D01*
X2500Y178D01*
X2499Y178D01*
X2499Y177D01*
X2530Y177D01*
X2530Y178D01*
X2528Y178D01*
X2528Y179D01*
X2527Y179D01*
X2527Y180D01*
X2526Y180D01*
X2526Y181D01*
X2524Y181D01*
X2524Y182D01*
X2522Y182D01*
X2522Y183D01*
X2506Y183D01*
G37*
D02*
G36*
X2498Y177D02*
X2498Y176D01*
X2540Y176D01*
X2540Y177D01*
X2498Y177D01*
G37*
D02*
G36*
X2498Y177D02*
X2498Y176D01*
X2540Y176D01*
X2540Y177D01*
X2498Y177D01*
G37*
D02*
G36*
X2497Y176D02*
X2497Y175D01*
X2496Y175D01*
X2496Y174D01*
X2519Y174D01*
X2519Y173D01*
X2521Y173D01*
X2521Y172D01*
X2522Y172D01*
X2522Y171D01*
X2523Y171D01*
X2523Y170D01*
X2524Y170D01*
X2524Y169D01*
X2525Y169D01*
X2525Y168D01*
X2527Y168D01*
X2527Y167D01*
X2528Y167D01*
X2528Y166D01*
X2529Y166D01*
X2529Y165D01*
X2530Y165D01*
X2530Y163D01*
X2531Y163D01*
X2531Y150D01*
X2530Y150D01*
X2530Y148D01*
X2529Y148D01*
X2529Y147D01*
X2528Y147D01*
X2528Y146D01*
X2527Y146D01*
X2527Y145D01*
X2526Y145D01*
X2526Y144D01*
X2525Y144D01*
X2525Y143D01*
X2524Y143D01*
X2524Y142D01*
X2522Y142D01*
X2522Y141D01*
X2521Y141D01*
X2521Y140D01*
X2520Y140D01*
X2520Y139D01*
X2540Y139D01*
X2540Y176D01*
X2497Y176D01*
G37*
D02*
G36*
X2495Y174D02*
X2495Y172D01*
X2494Y172D01*
X2494Y170D01*
X2493Y170D01*
X2493Y143D01*
X2494Y143D01*
X2494Y140D01*
X2495Y140D01*
X2495Y139D01*
X2508Y139D01*
X2508Y140D01*
X2507Y140D01*
X2507Y141D01*
X2506Y141D01*
X2506Y142D01*
X2505Y142D01*
X2505Y143D01*
X2504Y143D01*
X2504Y144D01*
X2503Y144D01*
X2503Y169D01*
X2504Y169D01*
X2504Y170D01*
X2505Y170D01*
X2505Y171D01*
X2506Y171D01*
X2506Y172D01*
X2508Y172D01*
X2508Y173D01*
X2510Y173D01*
X2510Y174D01*
X2495Y174D01*
G37*
D02*
G36*
X2495Y139D02*
X2495Y138D01*
X2540Y138D01*
X2540Y139D01*
X2495Y139D01*
G37*
D02*
G36*
X2495Y139D02*
X2495Y138D01*
X2540Y138D01*
X2540Y139D01*
X2495Y139D01*
G37*
D02*
G36*
X2496Y138D02*
X2496Y137D01*
X2497Y137D01*
X2497Y136D01*
X2498Y136D01*
X2498Y135D01*
X2531Y135D01*
X2531Y131D01*
X2532Y131D01*
X2532Y130D01*
X2534Y130D01*
X2534Y129D01*
X2536Y129D01*
X2536Y130D01*
X2538Y130D01*
X2538Y131D01*
X2539Y131D01*
X2539Y132D01*
X2540Y132D01*
X2540Y138D01*
X2496Y138D01*
G37*
D02*
G36*
X2499Y135D02*
X2499Y134D01*
X2500Y134D01*
X2500Y133D01*
X2502Y133D01*
X2502Y132D01*
X2503Y132D01*
X2503Y131D01*
X2505Y131D01*
X2505Y130D01*
X2509Y130D01*
X2509Y129D01*
X2520Y129D01*
X2520Y130D01*
X2523Y130D01*
X2523Y131D01*
X2525Y131D01*
X2525Y132D01*
X2527Y132D01*
X2527Y133D01*
X2528Y133D01*
X2528Y134D01*
X2529Y134D01*
X2529Y135D01*
X2499Y135D01*
G37*
D02*
G36*
X2711Y183D02*
X2711Y182D01*
X2710Y182D01*
X2710Y181D01*
X2709Y181D01*
X2709Y159D01*
X2710Y159D01*
X2710Y140D01*
X2711Y140D01*
X2711Y139D01*
X2722Y139D01*
X2722Y140D01*
X2721Y140D01*
X2721Y141D01*
X2720Y141D01*
X2720Y148D01*
X2719Y148D01*
X2719Y176D01*
X2718Y176D01*
X2718Y181D01*
X2717Y181D01*
X2717Y182D01*
X2716Y182D01*
X2716Y183D01*
X2711Y183D01*
G37*
D02*
G36*
X2749Y183D02*
X2749Y182D01*
X2748Y182D01*
X2748Y181D01*
X2747Y181D01*
X2747Y149D01*
X2746Y149D01*
X2746Y148D01*
X2744Y148D01*
X2744Y147D01*
X2743Y147D01*
X2743Y146D01*
X2741Y146D01*
X2741Y145D01*
X2740Y145D01*
X2740Y144D01*
X2738Y144D01*
X2738Y143D01*
X2737Y143D01*
X2737Y142D01*
X2735Y142D01*
X2735Y141D01*
X2734Y141D01*
X2734Y140D01*
X2732Y140D01*
X2732Y139D01*
X2756Y139D01*
X2756Y181D01*
X2755Y181D01*
X2755Y182D01*
X2754Y182D01*
X2754Y183D01*
X2749Y183D01*
G37*
D02*
G36*
X2711Y139D02*
X2711Y138D01*
X2756Y138D01*
X2756Y139D01*
X2711Y139D01*
G37*
D02*
G36*
X2711Y139D02*
X2711Y138D01*
X2756Y138D01*
X2756Y139D01*
X2711Y139D01*
G37*
D02*
G36*
X2711Y138D02*
X2711Y137D01*
X2746Y137D01*
X2746Y136D01*
X2747Y136D01*
X2747Y131D01*
X2748Y131D01*
X2748Y130D01*
X2750Y130D01*
X2750Y129D01*
X2752Y129D01*
X2752Y130D01*
X2754Y130D01*
X2754Y131D01*
X2755Y131D01*
X2755Y132D01*
X2756Y132D01*
X2756Y138D01*
X2711Y138D01*
G37*
D02*
G36*
X2712Y137D02*
X2712Y136D01*
X2713Y136D01*
X2713Y134D01*
X2714Y134D01*
X2714Y133D01*
X2715Y133D01*
X2715Y132D01*
X2717Y132D01*
X2717Y131D01*
X2719Y131D01*
X2719Y130D01*
X2722Y130D01*
X2722Y129D01*
X2732Y129D01*
X2732Y130D01*
X2735Y130D01*
X2735Y131D01*
X2737Y131D01*
X2737Y132D01*
X2739Y132D01*
X2739Y133D01*
X2740Y133D01*
X2740Y134D01*
X2742Y134D01*
X2742Y135D01*
X2743Y135D01*
X2743Y136D01*
X2745Y136D01*
X2745Y137D01*
X2712Y137D01*
G37*
D02*
G36*
X2783Y183D02*
X2783Y182D01*
X2782Y182D01*
X2782Y181D01*
X2781Y181D01*
X2781Y173D01*
X2790Y173D01*
X2790Y181D01*
X2789Y181D01*
X2789Y182D01*
X2788Y182D01*
X2788Y183D01*
X2783Y183D01*
G37*
D02*
G36*
X2802Y183D02*
X2802Y182D01*
X2801Y182D01*
X2801Y181D01*
X2800Y181D01*
X2800Y180D01*
X2798Y180D01*
X2798Y179D01*
X2797Y179D01*
X2797Y178D01*
X2796Y178D01*
X2796Y177D01*
X2795Y177D01*
X2795Y176D01*
X2794Y176D01*
X2794Y175D01*
X2793Y175D01*
X2793Y174D01*
X2814Y174D01*
X2814Y173D01*
X2817Y173D01*
X2817Y172D01*
X2818Y172D01*
X2818Y167D01*
X2819Y167D01*
X2819Y163D01*
X2820Y163D01*
X2820Y162D01*
X2826Y162D01*
X2826Y163D01*
X2827Y163D01*
X2827Y164D01*
X2828Y164D01*
X2828Y173D01*
X2827Y173D01*
X2827Y175D01*
X2826Y175D01*
X2826Y177D01*
X2825Y177D01*
X2825Y178D01*
X2824Y178D01*
X2824Y179D01*
X2823Y179D01*
X2823Y180D01*
X2822Y180D01*
X2822Y181D01*
X2821Y181D01*
X2821Y182D01*
X2818Y182D01*
X2818Y183D01*
X2802Y183D01*
G37*
D02*
G36*
X2791Y174D02*
X2791Y173D01*
X2806Y173D01*
X2806Y174D01*
X2791Y174D01*
G37*
D02*
G36*
X2781Y173D02*
X2781Y172D01*
X2805Y172D01*
X2805Y173D01*
X2781Y173D01*
G37*
D02*
G36*
X2781Y173D02*
X2781Y172D01*
X2805Y172D01*
X2805Y173D01*
X2781Y173D01*
G37*
D02*
G36*
X2781Y172D02*
X2781Y132D01*
X2782Y132D01*
X2782Y131D01*
X2783Y131D01*
X2783Y130D01*
X2784Y130D01*
X2784Y129D01*
X2787Y129D01*
X2787Y130D01*
X2789Y130D01*
X2789Y131D01*
X2790Y131D01*
X2790Y160D01*
X2791Y160D01*
X2791Y161D01*
X2792Y161D01*
X2792Y162D01*
X2793Y162D01*
X2793Y163D01*
X2794Y163D01*
X2794Y164D01*
X2796Y164D01*
X2796Y165D01*
X2797Y165D01*
X2797Y166D01*
X2798Y166D01*
X2798Y167D01*
X2799Y167D01*
X2799Y168D01*
X2800Y168D01*
X2800Y169D01*
X2801Y169D01*
X2801Y170D01*
X2803Y170D01*
X2803Y171D01*
X2804Y171D01*
X2804Y172D01*
X2781Y172D01*
G37*
D02*
G36*
X2855Y183D02*
X2855Y182D01*
X2854Y182D01*
X2854Y181D01*
X2853Y181D01*
X2853Y176D01*
X2862Y176D01*
X2862Y181D01*
X2861Y181D01*
X2861Y182D01*
X2860Y182D01*
X2860Y183D01*
X2855Y183D01*
G37*
D02*
G36*
X2875Y183D02*
X2875Y182D01*
X2873Y182D01*
X2873Y181D01*
X2871Y181D01*
X2871Y180D01*
X2869Y180D01*
X2869Y179D01*
X2868Y179D01*
X2868Y178D01*
X2866Y178D01*
X2866Y177D01*
X2865Y177D01*
X2865Y176D01*
X2897Y176D01*
X2897Y177D01*
X2896Y177D01*
X2896Y178D01*
X2895Y178D01*
X2895Y179D01*
X2894Y179D01*
X2894Y180D01*
X2893Y180D01*
X2893Y181D01*
X2891Y181D01*
X2891Y182D01*
X2889Y182D01*
X2889Y183D01*
X2875Y183D01*
G37*
D02*
G36*
X2853Y176D02*
X2853Y175D01*
X2897Y175D01*
X2897Y176D01*
X2853Y176D01*
G37*
D02*
G36*
X2853Y176D02*
X2853Y175D01*
X2897Y175D01*
X2897Y176D01*
X2853Y176D01*
G37*
D02*
G36*
X2853Y175D02*
X2853Y174D01*
X2885Y174D01*
X2885Y173D01*
X2888Y173D01*
X2888Y171D01*
X2889Y171D01*
X2889Y161D01*
X2890Y161D01*
X2890Y134D01*
X2891Y134D01*
X2891Y131D01*
X2892Y131D01*
X2892Y130D01*
X2894Y130D01*
X2894Y129D01*
X2896Y129D01*
X2896Y130D01*
X2898Y130D01*
X2898Y131D01*
X2899Y131D01*
X2899Y132D01*
X2900Y132D01*
X2900Y149D01*
X2899Y149D01*
X2899Y172D01*
X2898Y172D01*
X2898Y175D01*
X2853Y175D01*
G37*
D02*
G36*
X2853Y174D02*
X2853Y132D01*
X2854Y132D01*
X2854Y131D01*
X2855Y131D01*
X2855Y130D01*
X2856Y130D01*
X2856Y129D01*
X2859Y129D01*
X2859Y130D01*
X2861Y130D01*
X2861Y131D01*
X2862Y131D01*
X2862Y164D01*
X2864Y164D01*
X2864Y165D01*
X2865Y165D01*
X2865Y166D01*
X2867Y166D01*
X2867Y167D01*
X2868Y167D01*
X2868Y168D01*
X2870Y168D01*
X2870Y169D01*
X2871Y169D01*
X2871Y170D01*
X2873Y170D01*
X2873Y171D01*
X2875Y171D01*
X2875Y172D01*
X2876Y172D01*
X2876Y173D01*
X2878Y173D01*
X2878Y174D01*
X2853Y174D01*
G37*
D02*
G36*
X2083Y102D02*
X2083Y101D01*
X2082Y101D01*
X2082Y99D01*
X2081Y99D01*
X2081Y93D01*
X2082Y93D01*
X2082Y91D01*
X2083Y91D01*
X2083Y90D01*
X2084Y90D01*
X2084Y89D01*
X2093Y89D01*
X2093Y90D01*
X2094Y90D01*
X2094Y91D01*
X2095Y91D01*
X2095Y92D01*
X2096Y92D01*
X2096Y99D01*
X2095Y99D01*
X2095Y101D01*
X2094Y101D01*
X2094Y102D01*
X2083Y102D01*
G37*
D02*
G36*
X2362Y98D02*
X2362Y97D01*
X2361Y97D01*
X2361Y96D01*
X2360Y96D01*
X2360Y91D01*
X2361Y91D01*
X2361Y90D01*
X2362Y90D01*
X2362Y89D01*
X2374Y89D01*
X2374Y34D01*
X2363Y34D01*
X2363Y33D01*
X2361Y33D01*
X2361Y32D01*
X2360Y32D01*
X2360Y27D01*
X2361Y27D01*
X2361Y26D01*
X2362Y26D01*
X2362Y25D01*
X2364Y25D01*
X2364Y24D01*
X2394Y24D01*
X2394Y25D01*
X2396Y25D01*
X2396Y26D01*
X2397Y26D01*
X2397Y28D01*
X2398Y28D01*
X2398Y30D01*
X2397Y30D01*
X2397Y32D01*
X2396Y32D01*
X2396Y33D01*
X2395Y33D01*
X2395Y34D01*
X2384Y34D01*
X2384Y93D01*
X2383Y93D01*
X2383Y97D01*
X2382Y97D01*
X2382Y98D01*
X2362Y98D01*
G37*
D02*
G36*
X2573Y98D02*
X2573Y97D01*
X2572Y97D01*
X2572Y95D01*
X2571Y95D01*
X2571Y76D01*
X2572Y76D01*
X2572Y73D01*
X2573Y73D01*
X2573Y71D01*
X2574Y71D01*
X2574Y68D01*
X2575Y68D01*
X2575Y65D01*
X2576Y65D01*
X2576Y63D01*
X2577Y63D01*
X2577Y60D01*
X2578Y60D01*
X2578Y58D01*
X2579Y58D01*
X2579Y55D01*
X2580Y55D01*
X2580Y53D01*
X2581Y53D01*
X2581Y50D01*
X2582Y50D01*
X2582Y47D01*
X2583Y47D01*
X2583Y45D01*
X2584Y45D01*
X2584Y43D01*
X2594Y43D01*
X2594Y46D01*
X2593Y46D01*
X2593Y48D01*
X2592Y48D01*
X2592Y51D01*
X2591Y51D01*
X2591Y53D01*
X2590Y53D01*
X2590Y56D01*
X2589Y56D01*
X2589Y58D01*
X2588Y58D01*
X2588Y61D01*
X2587Y61D01*
X2587Y64D01*
X2586Y64D01*
X2586Y66D01*
X2585Y66D01*
X2585Y69D01*
X2584Y69D01*
X2584Y71D01*
X2583Y71D01*
X2583Y74D01*
X2582Y74D01*
X2582Y76D01*
X2581Y76D01*
X2581Y95D01*
X2580Y95D01*
X2580Y97D01*
X2579Y97D01*
X2579Y98D01*
X2573Y98D01*
G37*
D02*
G36*
X2611Y98D02*
X2611Y97D01*
X2610Y97D01*
X2610Y96D01*
X2609Y96D01*
X2609Y78D01*
X2608Y78D01*
X2608Y75D01*
X2607Y75D01*
X2607Y73D01*
X2606Y73D01*
X2606Y70D01*
X2605Y70D01*
X2605Y67D01*
X2604Y67D01*
X2604Y65D01*
X2603Y65D01*
X2603Y62D01*
X2602Y62D01*
X2602Y60D01*
X2601Y60D01*
X2601Y57D01*
X2600Y57D01*
X2600Y55D01*
X2599Y55D01*
X2599Y52D01*
X2598Y52D01*
X2598Y50D01*
X2597Y50D01*
X2597Y47D01*
X2596Y47D01*
X2596Y44D01*
X2595Y44D01*
X2595Y43D01*
X2605Y43D01*
X2605Y44D01*
X2606Y44D01*
X2606Y46D01*
X2607Y46D01*
X2607Y49D01*
X2608Y49D01*
X2608Y51D01*
X2609Y51D01*
X2609Y54D01*
X2610Y54D01*
X2610Y56D01*
X2611Y56D01*
X2611Y59D01*
X2612Y59D01*
X2612Y62D01*
X2613Y62D01*
X2613Y64D01*
X2614Y64D01*
X2614Y67D01*
X2615Y67D01*
X2615Y69D01*
X2616Y69D01*
X2616Y72D01*
X2617Y72D01*
X2617Y74D01*
X2618Y74D01*
X2618Y96D01*
X2617Y96D01*
X2617Y97D01*
X2616Y97D01*
X2616Y98D01*
X2611Y98D01*
G37*
D02*
G36*
X2584Y43D02*
X2584Y42D01*
X2605Y42D01*
X2605Y43D01*
X2584Y43D01*
G37*
D02*
G36*
X2584Y43D02*
X2584Y42D01*
X2605Y42D01*
X2605Y43D01*
X2584Y43D01*
G37*
D02*
G36*
X2585Y42D02*
X2585Y40D01*
X2586Y40D01*
X2586Y37D01*
X2587Y37D01*
X2587Y35D01*
X2588Y35D01*
X2588Y32D01*
X2589Y32D01*
X2589Y30D01*
X2590Y30D01*
X2590Y27D01*
X2591Y27D01*
X2591Y26D01*
X2592Y26D01*
X2592Y25D01*
X2594Y25D01*
X2594Y24D01*
X2595Y24D01*
X2595Y25D01*
X2598Y25D01*
X2598Y26D01*
X2599Y26D01*
X2599Y28D01*
X2600Y28D01*
X2600Y31D01*
X2601Y31D01*
X2601Y33D01*
X2602Y33D01*
X2602Y36D01*
X2603Y36D01*
X2603Y39D01*
X2604Y39D01*
X2604Y41D01*
X2605Y41D01*
X2605Y42D01*
X2585Y42D01*
G37*
D02*
G36*
X2645Y98D02*
X2645Y97D01*
X2644Y97D01*
X2644Y95D01*
X2643Y95D01*
X2643Y92D01*
X2644Y92D01*
X2644Y90D01*
X2646Y90D01*
X2646Y89D01*
X2681Y89D01*
X2681Y66D01*
X2649Y66D01*
X2649Y65D01*
X2647Y65D01*
X2647Y64D01*
X2646Y64D01*
X2646Y63D01*
X2645Y63D01*
X2645Y61D01*
X2644Y61D01*
X2644Y59D01*
X2643Y59D01*
X2643Y25D01*
X2644Y25D01*
X2644Y24D01*
X2686Y24D01*
X2686Y25D01*
X2688Y25D01*
X2688Y26D01*
X2689Y26D01*
X2689Y27D01*
X2690Y27D01*
X2690Y32D01*
X2689Y32D01*
X2689Y33D01*
X2688Y33D01*
X2688Y34D01*
X2653Y34D01*
X2653Y57D01*
X2685Y57D01*
X2685Y58D01*
X2686Y58D01*
X2686Y59D01*
X2688Y59D01*
X2688Y61D01*
X2689Y61D01*
X2689Y62D01*
X2690Y62D01*
X2690Y93D01*
X2689Y93D01*
X2689Y94D01*
X2688Y94D01*
X2688Y96D01*
X2686Y96D01*
X2686Y97D01*
X2685Y97D01*
X2685Y98D01*
X2645Y98D01*
G37*
D02*
G36*
X2789Y98D02*
X2789Y97D01*
X2788Y97D01*
X2788Y96D01*
X2787Y96D01*
X2787Y92D01*
X2788Y92D01*
X2788Y90D01*
X2789Y90D01*
X2789Y89D01*
X2806Y89D01*
X2806Y34D01*
X2815Y34D01*
X2815Y98D01*
X2789Y98D01*
G37*
D02*
G36*
X2827Y58D02*
X2827Y57D01*
X2826Y57D01*
X2826Y56D01*
X2825Y56D01*
X2825Y34D01*
X2834Y34D01*
X2834Y56D01*
X2833Y56D01*
X2833Y57D01*
X2832Y57D01*
X2832Y58D01*
X2827Y58D01*
G37*
D02*
G36*
X2790Y34D02*
X2790Y33D01*
X2834Y33D01*
X2834Y34D01*
X2790Y34D01*
G37*
D02*
G36*
X2790Y34D02*
X2790Y33D01*
X2834Y33D01*
X2834Y34D01*
X2790Y34D01*
G37*
D02*
G36*
X2788Y33D02*
X2788Y31D01*
X2787Y31D01*
X2787Y27D01*
X2788Y27D01*
X2788Y26D01*
X2789Y26D01*
X2789Y25D01*
X2791Y25D01*
X2791Y24D01*
X2829Y24D01*
X2829Y25D01*
X2832Y25D01*
X2832Y26D01*
X2833Y26D01*
X2833Y27D01*
X2834Y27D01*
X2834Y33D01*
X2788Y33D01*
G37*
D02*
G36*
X2074Y78D02*
X2074Y77D01*
X2073Y77D01*
X2073Y76D01*
X2072Y76D01*
X2072Y71D01*
X2073Y71D01*
X2073Y70D01*
X2074Y70D01*
X2074Y69D01*
X2086Y69D01*
X2086Y34D01*
X2075Y34D01*
X2075Y33D01*
X2073Y33D01*
X2073Y31D01*
X2072Y31D01*
X2072Y27D01*
X2073Y27D01*
X2073Y26D01*
X2074Y26D01*
X2074Y25D01*
X2076Y25D01*
X2076Y24D01*
X2106Y24D01*
X2106Y25D01*
X2108Y25D01*
X2108Y26D01*
X2109Y26D01*
X2109Y28D01*
X2110Y28D01*
X2110Y31D01*
X2109Y31D01*
X2109Y32D01*
X2108Y32D01*
X2108Y33D01*
X2107Y33D01*
X2107Y34D01*
X2096Y34D01*
X2096Y75D01*
X2095Y75D01*
X2095Y77D01*
X2093Y77D01*
X2093Y78D01*
X2074Y78D01*
G37*
D02*
G36*
X2213Y78D02*
X2213Y77D01*
X2212Y77D01*
X2212Y75D01*
X2211Y75D01*
X2211Y71D01*
X2221Y71D01*
X2221Y75D01*
X2220Y75D01*
X2220Y77D01*
X2219Y77D01*
X2219Y78D01*
X2213Y78D01*
G37*
D02*
G36*
X2233Y78D02*
X2233Y77D01*
X2231Y77D01*
X2231Y76D01*
X2229Y76D01*
X2229Y75D01*
X2228Y75D01*
X2228Y74D01*
X2226Y74D01*
X2226Y73D01*
X2224Y73D01*
X2224Y72D01*
X2223Y72D01*
X2223Y71D01*
X2255Y71D01*
X2255Y72D01*
X2254Y72D01*
X2254Y74D01*
X2253Y74D01*
X2253Y75D01*
X2251Y75D01*
X2251Y76D01*
X2250Y76D01*
X2250Y77D01*
X2248Y77D01*
X2248Y78D01*
X2233Y78D01*
G37*
D02*
G36*
X2211Y71D02*
X2211Y70D01*
X2256Y70D01*
X2256Y71D01*
X2211Y71D01*
G37*
D02*
G36*
X2211Y71D02*
X2211Y70D01*
X2256Y70D01*
X2256Y71D01*
X2211Y71D01*
G37*
D02*
G36*
X2211Y70D02*
X2211Y69D01*
X2244Y69D01*
X2244Y68D01*
X2246Y68D01*
X2246Y67D01*
X2247Y67D01*
X2247Y65D01*
X2248Y65D01*
X2248Y39D01*
X2249Y39D01*
X2249Y27D01*
X2250Y27D01*
X2250Y26D01*
X2251Y26D01*
X2251Y25D01*
X2253Y25D01*
X2253Y24D01*
X2254Y24D01*
X2254Y25D01*
X2257Y25D01*
X2257Y26D01*
X2258Y26D01*
X2258Y56D01*
X2257Y56D01*
X2257Y68D01*
X2256Y68D01*
X2256Y70D01*
X2211Y70D01*
G37*
D02*
G36*
X2211Y69D02*
X2211Y28D01*
X2212Y28D01*
X2212Y26D01*
X2213Y26D01*
X2213Y25D01*
X2215Y25D01*
X2215Y24D01*
X2217Y24D01*
X2217Y25D01*
X2219Y25D01*
X2219Y26D01*
X2220Y26D01*
X2220Y28D01*
X2221Y28D01*
X2221Y59D01*
X2222Y59D01*
X2222Y60D01*
X2223Y60D01*
X2223Y61D01*
X2225Y61D01*
X2225Y62D01*
X2227Y62D01*
X2227Y63D01*
X2228Y63D01*
X2228Y64D01*
X2230Y64D01*
X2230Y65D01*
X2231Y65D01*
X2231Y66D01*
X2233Y66D01*
X2233Y67D01*
X2234Y67D01*
X2234Y68D01*
X2236Y68D01*
X2236Y69D01*
X2211Y69D01*
G37*
D02*
G36*
X2295Y78D02*
X2295Y77D01*
X2294Y77D01*
X2294Y76D01*
X2293Y76D01*
X2293Y71D01*
X2294Y71D01*
X2294Y70D01*
X2295Y70D01*
X2295Y69D01*
X2316Y69D01*
X2316Y68D01*
X2318Y68D01*
X2318Y67D01*
X2319Y67D01*
X2319Y65D01*
X2320Y65D01*
X2320Y58D01*
X2293Y58D01*
X2293Y57D01*
X2291Y57D01*
X2291Y56D01*
X2289Y56D01*
X2289Y55D01*
X2288Y55D01*
X2288Y54D01*
X2287Y54D01*
X2287Y53D01*
X2286Y53D01*
X2286Y52D01*
X2285Y52D01*
X2285Y50D01*
X2284Y50D01*
X2284Y49D01*
X2317Y49D01*
X2317Y48D01*
X2319Y48D01*
X2319Y47D01*
X2320Y47D01*
X2320Y39D01*
X2318Y39D01*
X2318Y38D01*
X2316Y38D01*
X2316Y37D01*
X2314Y37D01*
X2314Y36D01*
X2313Y36D01*
X2313Y35D01*
X2311Y35D01*
X2311Y34D01*
X2330Y34D01*
X2330Y55D01*
X2329Y55D01*
X2329Y68D01*
X2328Y68D01*
X2328Y71D01*
X2327Y71D01*
X2327Y72D01*
X2326Y72D01*
X2326Y74D01*
X2325Y74D01*
X2325Y75D01*
X2323Y75D01*
X2323Y76D01*
X2322Y76D01*
X2322Y77D01*
X2320Y77D01*
X2320Y78D01*
X2295Y78D01*
G37*
D02*
G36*
X2284Y49D02*
X2284Y47D01*
X2283Y47D01*
X2283Y36D01*
X2284Y36D01*
X2284Y34D01*
X2295Y34D01*
X2295Y35D01*
X2294Y35D01*
X2294Y36D01*
X2293Y36D01*
X2293Y46D01*
X2294Y46D01*
X2294Y48D01*
X2297Y48D01*
X2297Y49D01*
X2284Y49D01*
G37*
D02*
G36*
X2284Y34D02*
X2284Y33D01*
X2330Y33D01*
X2330Y34D01*
X2284Y34D01*
G37*
D02*
G36*
X2284Y34D02*
X2284Y33D01*
X2330Y33D01*
X2330Y34D01*
X2284Y34D01*
G37*
D02*
G36*
X2285Y33D02*
X2285Y31D01*
X2286Y31D01*
X2286Y30D01*
X2287Y30D01*
X2287Y29D01*
X2321Y29D01*
X2321Y27D01*
X2322Y27D01*
X2322Y26D01*
X2323Y26D01*
X2323Y25D01*
X2325Y25D01*
X2325Y24D01*
X2326Y24D01*
X2326Y25D01*
X2329Y25D01*
X2329Y26D01*
X2330Y26D01*
X2330Y33D01*
X2285Y33D01*
G37*
D02*
G36*
X2288Y29D02*
X2288Y28D01*
X2289Y28D01*
X2289Y27D01*
X2290Y27D01*
X2290Y26D01*
X2292Y26D01*
X2292Y25D01*
X2297Y25D01*
X2297Y24D01*
X2312Y24D01*
X2312Y25D01*
X2315Y25D01*
X2315Y26D01*
X2316Y26D01*
X2316Y27D01*
X2318Y27D01*
X2318Y28D01*
X2320Y28D01*
X2320Y29D01*
X2288Y29D01*
G37*
D02*
G36*
X2732Y54D02*
X2732Y53D01*
X2730Y53D01*
X2730Y51D01*
X2729Y51D01*
X2729Y40D01*
X2730Y40D01*
X2730Y38D01*
X2731Y38D01*
X2731Y37D01*
X2735Y37D01*
X2735Y36D01*
X2738Y36D01*
X2738Y37D01*
X2746Y37D01*
X2746Y38D01*
X2747Y38D01*
X2747Y39D01*
X2748Y39D01*
X2748Y52D01*
X2747Y52D01*
X2747Y53D01*
X2746Y53D01*
X2746Y54D01*
X2732Y54D01*
G37*
D02*
G36*
X2002Y98D02*
X2002Y97D01*
X2000Y97D01*
X2000Y96D01*
X1999Y96D01*
X1999Y95D01*
X1998Y95D01*
X1998Y94D01*
X1997Y94D01*
X1997Y92D01*
X1996Y92D01*
X1996Y90D01*
X1995Y90D01*
X1995Y89D01*
X2031Y89D01*
X2031Y88D01*
X2032Y88D01*
X2032Y87D01*
X2033Y87D01*
X2033Y83D01*
X2034Y83D01*
X2034Y82D01*
X2035Y82D01*
X2035Y81D01*
X2040Y81D01*
X2040Y82D01*
X2041Y82D01*
X2041Y83D01*
X2042Y83D01*
X2042Y85D01*
X2043Y85D01*
X2043Y86D01*
X2042Y86D01*
X2042Y91D01*
X2041Y91D01*
X2041Y92D01*
X2040Y92D01*
X2040Y94D01*
X2039Y94D01*
X2039Y95D01*
X2038Y95D01*
X2038Y96D01*
X2036Y96D01*
X2036Y97D01*
X2034Y97D01*
X2034Y98D01*
X2002Y98D01*
G37*
D02*
G36*
X1995Y89D02*
X1995Y86D01*
X1996Y86D01*
X1996Y83D01*
X1997Y83D01*
X1997Y81D01*
X1998Y81D01*
X1998Y80D01*
X1999Y80D01*
X1999Y79D01*
X2000Y79D01*
X2000Y77D01*
X2001Y77D01*
X2001Y76D01*
X2002Y76D01*
X2002Y75D01*
X2003Y75D01*
X2003Y73D01*
X2004Y73D01*
X2004Y72D01*
X2005Y72D01*
X2005Y71D01*
X2006Y71D01*
X2006Y70D01*
X2007Y70D01*
X2007Y68D01*
X2008Y68D01*
X2008Y67D01*
X2009Y67D01*
X2009Y66D01*
X2010Y66D01*
X2010Y64D01*
X2011Y64D01*
X2011Y63D01*
X2012Y63D01*
X2012Y62D01*
X2013Y62D01*
X2013Y61D01*
X2014Y61D01*
X2014Y59D01*
X2015Y59D01*
X2015Y58D01*
X2016Y58D01*
X2016Y57D01*
X2017Y57D01*
X2017Y55D01*
X2018Y55D01*
X2018Y54D01*
X2019Y54D01*
X2019Y53D01*
X2020Y53D01*
X2020Y52D01*
X2021Y52D01*
X2021Y50D01*
X2022Y50D01*
X2022Y49D01*
X2023Y49D01*
X2023Y48D01*
X2024Y48D01*
X2024Y46D01*
X2025Y46D01*
X2025Y45D01*
X2026Y45D01*
X2026Y44D01*
X2027Y44D01*
X2027Y43D01*
X2028Y43D01*
X2028Y41D01*
X2029Y41D01*
X2029Y40D01*
X2030Y40D01*
X2030Y39D01*
X2031Y39D01*
X2031Y37D01*
X2032Y37D01*
X2032Y36D01*
X2033Y36D01*
X2033Y34D01*
X2043Y34D01*
X2043Y36D01*
X2042Y36D01*
X2042Y40D01*
X2041Y40D01*
X2041Y41D01*
X2040Y41D01*
X2040Y43D01*
X2039Y43D01*
X2039Y44D01*
X2038Y44D01*
X2038Y45D01*
X2037Y45D01*
X2037Y47D01*
X2036Y47D01*
X2036Y48D01*
X2035Y48D01*
X2035Y49D01*
X2034Y49D01*
X2034Y50D01*
X2033Y50D01*
X2033Y52D01*
X2032Y52D01*
X2032Y53D01*
X2031Y53D01*
X2031Y54D01*
X2030Y54D01*
X2030Y56D01*
X2029Y56D01*
X2029Y57D01*
X2028Y57D01*
X2028Y58D01*
X2027Y58D01*
X2027Y59D01*
X2026Y59D01*
X2026Y61D01*
X2025Y61D01*
X2025Y62D01*
X2024Y62D01*
X2024Y63D01*
X2023Y63D01*
X2023Y65D01*
X2022Y65D01*
X2022Y66D01*
X2021Y66D01*
X2021Y67D01*
X2020Y67D01*
X2020Y68D01*
X2019Y68D01*
X2019Y70D01*
X2018Y70D01*
X2018Y71D01*
X2017Y71D01*
X2017Y72D01*
X2016Y72D01*
X2016Y74D01*
X2015Y74D01*
X2015Y75D01*
X2014Y75D01*
X2014Y76D01*
X2013Y76D01*
X2013Y77D01*
X2012Y77D01*
X2012Y79D01*
X2011Y79D01*
X2011Y80D01*
X2010Y80D01*
X2010Y81D01*
X2009Y81D01*
X2009Y83D01*
X2008Y83D01*
X2008Y84D01*
X2007Y84D01*
X2007Y85D01*
X2006Y85D01*
X2006Y86D01*
X2005Y86D01*
X2005Y89D01*
X1995Y89D01*
G37*
D02*
G36*
X1998Y42D02*
X1998Y41D01*
X1997Y41D01*
X1997Y40D01*
X1996Y40D01*
X1996Y39D01*
X1995Y39D01*
X1995Y35D01*
X1996Y35D01*
X1996Y34D01*
X2006Y34D01*
X2006Y35D01*
X2005Y35D01*
X2005Y39D01*
X2004Y39D01*
X2004Y41D01*
X2002Y41D01*
X2002Y42D01*
X1998Y42D01*
G37*
D02*
G36*
X1996Y34D02*
X1996Y33D01*
X2042Y33D01*
X2042Y34D01*
X1996Y34D01*
G37*
D02*
G36*
X1996Y34D02*
X1996Y33D01*
X2042Y33D01*
X2042Y34D01*
X1996Y34D01*
G37*
D02*
G36*
X1996Y33D02*
X1996Y32D01*
X1997Y32D01*
X1997Y30D01*
X1998Y30D01*
X1998Y29D01*
X1999Y29D01*
X1999Y28D01*
X2000Y28D01*
X2000Y27D01*
X2001Y27D01*
X2001Y26D01*
X2003Y26D01*
X2003Y25D01*
X2007Y25D01*
X2007Y24D01*
X2032Y24D01*
X2032Y25D01*
X2036Y25D01*
X2036Y26D01*
X2038Y26D01*
X2038Y27D01*
X2039Y27D01*
X2039Y28D01*
X2040Y28D01*
X2040Y29D01*
X2041Y29D01*
X2041Y31D01*
X2042Y31D01*
X2042Y33D01*
X1996Y33D01*
G37*
D02*
G36*
X2436Y78D02*
X2436Y77D01*
X2434Y77D01*
X2434Y76D01*
X2433Y76D01*
X2433Y75D01*
X2432Y75D01*
X2432Y74D01*
X2431Y74D01*
X2431Y73D01*
X2430Y73D01*
X2430Y72D01*
X2429Y72D01*
X2429Y69D01*
X2462Y69D01*
X2462Y68D01*
X2464Y68D01*
X2464Y67D01*
X2465Y67D01*
X2465Y66D01*
X2466Y66D01*
X2466Y65D01*
X2471Y65D01*
X2471Y66D01*
X2472Y66D01*
X2472Y67D01*
X2473Y67D01*
X2473Y72D01*
X2472Y72D01*
X2472Y73D01*
X2471Y73D01*
X2471Y74D01*
X2470Y74D01*
X2470Y75D01*
X2469Y75D01*
X2469Y76D01*
X2468Y76D01*
X2468Y77D01*
X2465Y77D01*
X2465Y78D01*
X2436Y78D01*
G37*
D02*
G36*
X2428Y69D02*
X2428Y63D01*
X2429Y63D01*
X2429Y61D01*
X2430Y61D01*
X2430Y59D01*
X2431Y59D01*
X2431Y58D01*
X2432Y58D01*
X2432Y57D01*
X2433Y57D01*
X2433Y56D01*
X2435Y56D01*
X2435Y55D01*
X2437Y55D01*
X2437Y54D01*
X2439Y54D01*
X2439Y53D01*
X2441Y53D01*
X2441Y52D01*
X2444Y52D01*
X2444Y51D01*
X2446Y51D01*
X2446Y50D01*
X2448Y50D01*
X2448Y49D01*
X2450Y49D01*
X2450Y48D01*
X2453Y48D01*
X2453Y47D01*
X2455Y47D01*
X2455Y46D01*
X2457Y46D01*
X2457Y45D01*
X2460Y45D01*
X2460Y44D01*
X2462Y44D01*
X2462Y43D01*
X2463Y43D01*
X2463Y42D01*
X2464Y42D01*
X2464Y41D01*
X2465Y41D01*
X2465Y37D01*
X2464Y37D01*
X2464Y36D01*
X2463Y36D01*
X2463Y35D01*
X2462Y35D01*
X2462Y34D01*
X2474Y34D01*
X2474Y44D01*
X2473Y44D01*
X2473Y46D01*
X2472Y46D01*
X2472Y48D01*
X2471Y48D01*
X2471Y49D01*
X2470Y49D01*
X2470Y50D01*
X2469Y50D01*
X2469Y51D01*
X2467Y51D01*
X2467Y52D01*
X2465Y52D01*
X2465Y53D01*
X2463Y53D01*
X2463Y54D01*
X2461Y54D01*
X2461Y55D01*
X2458Y55D01*
X2458Y56D01*
X2456Y56D01*
X2456Y57D01*
X2454Y57D01*
X2454Y58D01*
X2451Y58D01*
X2451Y59D01*
X2449Y59D01*
X2449Y60D01*
X2447Y60D01*
X2447Y61D01*
X2445Y61D01*
X2445Y62D01*
X2442Y62D01*
X2442Y63D01*
X2440Y63D01*
X2440Y64D01*
X2438Y64D01*
X2438Y68D01*
X2440Y68D01*
X2440Y69D01*
X2428Y69D01*
G37*
D02*
G36*
X2430Y38D02*
X2430Y37D01*
X2428Y37D01*
X2428Y35D01*
X2427Y35D01*
X2427Y34D01*
X2439Y34D01*
X2439Y35D01*
X2437Y35D01*
X2437Y36D01*
X2436Y36D01*
X2436Y37D01*
X2434Y37D01*
X2434Y38D01*
X2430Y38D01*
G37*
D02*
G36*
X2427Y34D02*
X2427Y33D01*
X2473Y33D01*
X2473Y34D01*
X2427Y34D01*
G37*
D02*
G36*
X2427Y34D02*
X2427Y33D01*
X2473Y33D01*
X2473Y34D01*
X2427Y34D01*
G37*
D02*
G36*
X2427Y33D02*
X2427Y32D01*
X2428Y32D01*
X2428Y30D01*
X2429Y30D01*
X2429Y29D01*
X2430Y29D01*
X2430Y28D01*
X2432Y28D01*
X2432Y27D01*
X2434Y27D01*
X2434Y26D01*
X2436Y26D01*
X2436Y25D01*
X2441Y25D01*
X2441Y24D01*
X2461Y24D01*
X2461Y25D01*
X2465Y25D01*
X2465Y26D01*
X2467Y26D01*
X2467Y27D01*
X2469Y27D01*
X2469Y28D01*
X2470Y28D01*
X2470Y29D01*
X2471Y29D01*
X2471Y30D01*
X2472Y30D01*
X2472Y32D01*
X2473Y32D01*
X2473Y33D01*
X2427Y33D01*
G37*
D02*
G04 End of Silk1*
M02*